$MeshFormat
2.2 0 8
$EndMeshFormat
$PhysicalNames
3
0 1 "Γ¹"
0 2 "Γ²"
1 3 "Ω"
$EndPhysicalNames
$Nodes
1601
1 0 0 0
2 8 0 0
3 7.450580596923828e-11 0 0
4 1.490116119384766e-10 0 0
5 2.235174179077149e-10 0 0
6 2.980232238769531e-10 0 0
7 3.725290298461914e-10 0 0
8 4.470348358154297e-10 0 0
9 5.215406417846679e-10 0 0
10 5.960464477539063e-10 0 0
11 6.705522537231446e-10 0 0
12 7.450580596923829e-10 0 0
13 8.195638656616211e-10 0 0
14 8.940696716308594e-10 0 0
15 9.685754776000977e-10 0 0
16 1.043081283569336e-09 0 0
17 1.117587089538574e-09 0 0
18 1.192092895507813e-09 0 0
19 1.266598701477051e-09 0 0
20 1.341104507446289e-09 0 0
21 1.415610313415527e-09 0 0
22 1.490116119384766e-09 0 0
23 1.564621925354004e-09 0 0
24 1.639127731323242e-09 0 0
25 1.713633537292481e-09 0 0
26 1.788139343261719e-09 0 0
27 1.862645149230957e-09 0 0
28 1.937150955200195e-09 0 0
29 2.011656761169434e-09 0 0
30 2.086162567138672e-09 0 0
31 2.16066837310791e-09 0 0
32 2.235174179077149e-09 0 0
33 2.309679985046387e-09 0 0
34 2.384185791015625e-09 0 0
35 2.458691596984863e-09 0 0
36 2.533197402954101e-09 0 0
37 2.60770320892334e-09 0 0
38 2.682209014892578e-09 0 0
39 2.756714820861817e-09 0 0
40 2.831220626831055e-09 0 0
41 2.905726432800293e-09 0 0
42 2.980232238769531e-09 0 0
43 3.054738044738769e-09 0 0
44 3.129243850708008e-09 0 0
45 3.203749656677246e-09 0 0
46 3.278255462646484e-09 0 0
47 3.352761268615723e-09 0 0
48 3.427267074584961e-09 0 0
49 3.501772880554199e-09 0 0
50 3.576278686523438e-09 0 0
51 3.650784492492676e-09 0 0
52 3.725290298461914e-09 0 0
53 3.799796104431152e-09 0 0
54 3.874301910400391e-09 0 0
55 3.948807716369629e-09 0 0
56 4.023313522338867e-09 0 0
57 4.097819328308105e-09 0 0
58 4.172325134277343e-09 0 0
59 4.246830940246582e-09 0 0
60 4.321336746215821e-09 0 0
61 4.395842552185059e-09 0 0
62 4.470348358154298e-09 0 0
63 4.544854164123536e-09 0 0
64 4.619359970092773e-09 0 0
65 4.693865776062012e-09 0 0
66 4.76837158203125e-09 0 0
67 4.842877388000488e-09 0 0
68 4.917383193969727e-09 0 0
69 4.991888999938965e-09 0 0
70 5.066394805908203e-09 0 0
71 5.140900611877441e-09 0 0
72 5.215406417846679e-09 0 0
73 5.289912223815919e-09 0 0
74 5.364418029785157e-09 0 0
75 5.438923835754395e-09 0 0
76 5.513429641723634e-09 0 0
77 5.587935447692871e-09 0 0
78 5.662441253662109e-09 0 0
79 5.736947059631348e-09 0 0
80 5.811452865600586e-09 0 0
81 5.885958671569824e-09 0 0
82 5.960464477539063e-09 0 0
83 6.0349702835083e-09 0 0
84 6.109476089477539e-09 0 0
85 6.183981895446777e-09 0 0
86 6.258487701416016e-09 0 0
87 6.332993507385255e-09 0 0
88 6.407499313354493e-09 0 0
89 6.482005119323731e-09 0 0
90 6.556510925292969e-09 0 0
91 6.631016731262207e-09 0 0
92 6.705522537231445e-09 0 0
93 6.780028343200684e-09 0 0
94 6.854534149169922e-09 0 0
95 6.929039955139161e-09 0 0
96 7.003545761108398e-09 0 0
97 7.078051567077636e-09 0 0
98 7.152557373046876e-09 0 0
99 7.227063179016114e-09 0 0
100 7.301568984985352e-09 0 0
101 7.376074790954591e-09 0 0
102 7.450580596923828e-09 0 0
103 7.525086402893066e-09 0 0
104 7.599592208862305e-09 0 0
105 7.674098014831543e-09 0 0
106 7.748603820800782e-09 0 0
107 7.82310962677002e-09 0 0
108 7.897615432739258e-09 0 0
109 7.972121238708497e-09 0 0
110 8.046627044677735e-09 0 0
111 8.121132850646973e-09 0 0
112 8.19563865661621e-09 0 0
113 8.27014446258545e-09 0 0
114 8.344650268554687e-09 0 0
115 8.419156074523927e-09 0 0
116 8.493661880493163e-09 0 0
117 8.568167686462403e-09 0 0
118 8.642673492431642e-09 0 0
119 8.717179298400878e-09 0 0
120 8.791685104370118e-09 0 0
121 8.866190910339355e-09 0 0
122 8.940696716308595e-09 0 0
123 9.015202522277832e-09 0 0
124 9.089708328247072e-09 0 0
125 9.164214134216308e-09 0 0
126 9.238719940185547e-09 0 0
127 9.313225746154785e-09 0 0
128 9.387731552124024e-09 0 0
129 9.462237358093262e-09 0 0
130 9.5367431640625e-09 0 0
131 9.61124897003174e-09 0 0
132 9.685754776000977e-09 0 0
133 9.760260581970215e-09 0 0
134 9.834766387939454e-09 0 0
135 9.909272193908692e-09 0 0
136 9.98377799987793e-09 0 0
137 1.005828380584717e-08 0 0
138 1.013278961181641e-08 0 0
139 1.020729541778565e-08 0 0
140 1.028180122375488e-08 0 0
141 1.035630702972412e-08 0 0
142 1.043081283569336e-08 0 0
143 1.05053186416626e-08 0 0
144 1.057982444763184e-08 0 0
145 1.065433025360107e-08 0 0
146 1.072883605957031e-08 0 0
147 1.080334186553955e-08 0 0
148 1.087784767150879e-08 0 0
149 1.095235347747803e-08 0 0
150 1.102685928344727e-08 0 0
151 1.11013650894165e-08 0 0
152 1.117587089538574e-08 0 0
153 1.125037670135498e-08 0 0
154 1.132488250732422e-08 0 0
155 1.139938831329346e-08 0 0
156 1.14738941192627e-08 0 0
157 1.154839992523193e-08 0 0
158 1.162290573120117e-08 0 0
159 1.169741153717041e-08 0 0
160 1.177191734313965e-08 0 0
161 1.184642314910889e-08 0 0
162 1.192092895507813e-08 0 0
163 1.199543476104736e-08 0 0
164 1.20699405670166e-08 0 0
165 1.214444637298584e-08 0 0
166 1.221895217895508e-08 0 0
167 1.229345798492432e-08 0 0
168 1.236796379089355e-08 0 0
169 1.244246959686279e-08 0 0
170 1.251697540283203e-08 0 0
171 1.259148120880127e-08 0 0
172 1.266598701477051e-08 0 0
173 1.274049282073975e-08 0 0
174 1.281499862670899e-08 0 0
175 1.288950443267822e-08 0 0
176 1.296401023864746e-08 0 0
177 1.30385160446167e-08 0 0
178 1.311302185058594e-08 0 0
179 1.318752765655518e-08 0 0
180 1.326203346252441e-08 0 0
181 1.333653926849365e-08 0 0
182 1.341104507446289e-08 0 0
183 1.348555088043213e-08 0 0
184 1.356005668640137e-08 0 0
185 1.363456249237061e-08 0 0
186 1.370906829833984e-08 0 0
187 1.378357410430908e-08 0 0
188 1.385807991027832e-08 0 0
189 1.393258571624756e-08 0 0
190 1.40070915222168e-08 0 0
191 1.408159732818604e-08 0 0
192 1.415610313415527e-08 0 0
193 1.423060894012451e-08 0 0
194 1.430511474609375e-08 0 0
195 1.437962055206299e-08 0 0
196 1.445412635803223e-08 0 0
197 1.452863216400146e-08 0 0
198 1.46031379699707e-08 0 0
199 1.467764377593994e-08 0 0
200 1.475214958190918e-08 0 0
201 1.482665538787842e-08 0 0
202 1.490116119384766e-08 0 0
203 1.497566699981689e-08 0 0
204 1.505017280578613e-08 0 0
205 1.512467861175537e-08 0 0
206 1.519918441772461e-08 0 0
207 1.527369022369385e-08 0 0
208 1.534819602966309e-08 0 0
209 1.542270183563233e-08 0 0
210 1.549720764160156e-08 0 0
211 1.55717134475708e-08 0 0
212 1.564621925354004e-08 0 0
213 1.572072505950928e-08 0 0
214 1.579523086547852e-08 0 0
215 1.586973667144775e-08 0 0
216 1.594424247741699e-08 0 0
217 1.601874828338623e-08 0 0
218 1.609325408935547e-08 0 0
219 1.616775989532471e-08 0 0
220 1.624226570129395e-08 0 0
221 1.631677150726319e-08 0 0
222 1.639127731323242e-08 0 0
223 1.646578311920166e-08 0 0
224 1.65402889251709e-08 0 0
225 1.661479473114014e-08 0 0
226 1.668930053710937e-08 0 0
227 1.676380634307861e-08 0 0
228 1.683831214904785e-08 0 0
229 1.691281795501709e-08 0 0
230 1.698732376098633e-08 0 0
231 1.706182956695557e-08 0 0
232 1.713633537292481e-08 0 0
233 1.721084117889404e-08 0 0
234 1.728534698486328e-08 0 0
235 1.735985279083252e-08 0 0
236 1.743435859680176e-08 0 0
237 1.7508864402771e-08 0 0
238 1.758337020874024e-08 0 0
239 1.765787601470947e-08 0 0
240 1.773238182067871e-08 0 0
241 1.780688762664795e-08 0 0
242 1.788139343261719e-08 0 0
243 1.795589923858642e-08 0 0
244 1.803040504455566e-08 0 0
245 1.81049108505249e-08 0 0
246 1.817941665649414e-08 0 0
247 1.825392246246338e-08 0 0
248 1.832842826843262e-08 0 0
249 1.840293407440186e-08 0 0
250 1.847743988037109e-08 0 0
251 1.855194568634033e-08 0 0
252 1.862645149230957e-08 0 0
253 1.870095729827881e-08 0 0
254 1.877546310424805e-08 0 0
255 1.884996891021729e-08 0 0
256 1.892447471618652e-08 0 0
257 1.899898052215576e-08 0 0
258 1.9073486328125e-08 0 0
259 1.914799213409424e-08 0 0
260 1.922249794006348e-08 0 0
261 1.929700374603271e-08 0 0
262 1.937150955200195e-08 0 0
263 1.944601535797119e-08 0 0
264 1.952052116394043e-08 0 0
265 1.959502696990967e-08 0 0
266 1.966953277587891e-08 0 0
267 1.974403858184814e-08 0 0
268 1.981854438781738e-08 0 0
269 1.989305019378662e-08 0 0
270 1.996755599975586e-08 0 0
271 2.00420618057251e-08 0 0
272 2.011656761169434e-08 0 0
273 2.019107341766358e-08 0 0
274 2.026557922363281e-08 0 0
275 2.034008502960205e-08 0 0
276 2.041459083557129e-08 0 0
277 2.048909664154053e-08 0 0
278 2.056360244750976e-08 0 0
279 2.0638108253479e-08 0 0
280 2.071261405944824e-08 0 0
281 2.078711986541748e-08 0 0
282 2.086162567138672e-08 0 0
283 2.093613147735596e-08 0 0
284 2.10106372833252e-08 0 0
285 2.108514308929443e-08 0 0
286 2.115964889526367e-08 0 0
287 2.123415470123291e-08 0 0
288 2.130866050720215e-08 0 0
289 2.138316631317139e-08 0 0
290 2.145767211914063e-08 0 0
291 2.153217792510986e-08 0 0
292 2.16066837310791e-08 0 0
293 2.168118953704834e-08 0 0
294 2.175569534301758e-08 0 0
295 2.183020114898681e-08 0 0
296 2.190470695495605e-08 0 0
297 2.197921276092529e-08 0 0
298 2.205371856689453e-08 0 0
299 2.212822437286377e-08 0 0
300 2.220273017883301e-08 0 0
301 2.227723598480225e-08 0 0
302 2.235174179077148e-08 0 0
303 2.242624759674072e-08 0 0
304 2.250075340270996e-08 0 0
305 2.25752592086792e-08 0 0
306 2.264976501464844e-08 0 0
307 2.272427082061768e-08 0 0
308 2.279877662658691e-08 0 0
309 2.287328243255615e-08 0 0
310 2.294778823852539e-08 0 0
311 2.302229404449463e-08 0 0
312 2.309679985046387e-08 0 0
313 2.31713056564331e-08 0 0
314 2.324581146240234e-08 0 0
315 2.332031726837158e-08 0 0
316 2.339482307434082e-08 0 0
317 2.346932888031006e-08 0 0
318 2.35438346862793e-08 0 0
319 2.361834049224853e-08 0 0
320 2.369284629821777e-08 0 0
321 2.376735210418701e-08 0 0
322 2.384185791015625e-08 0 0
323 2.391636371612549e-08 0 0
324 2.399086952209473e-08 0 0
325 2.406537532806397e-08 0 0
326 2.41398811340332e-08 0 0
327 2.421438694000244e-08 0 0
328 2.428889274597168e-08 0 0
329 2.436339855194092e-08 0 0
330 2.443790435791015e-08 0 0
331 2.451241016387939e-08 0 0
332 2.458691596984863e-08 0 0
333 2.466142177581787e-08 0 0
334 2.473592758178711e-08 0 0
335 2.481043338775635e-08 0 0
336 2.488493919372559e-08 0 0
337 2.495944499969482e-08 0 0
338 2.503395080566406e-08 0 0
339 2.51084566116333e-08 0 0
340 2.518296241760254e-08 0 0
341 2.525746822357178e-08 0 0
342 2.533197402954102e-08 0 0
343 2.540647983551025e-08 0 0
344 2.548098564147949e-08 0 0
345 2.555549144744873e-08 0 0
346 2.562999725341797e-08 0 0
347 2.570450305938721e-08 0 0
348 2.577900886535645e-08 0 0
349 2.585351467132569e-08 0 0
350 2.592802047729493e-08 0 0
351 2.600252628326416e-08 0 0
352 2.60770320892334e-08 0 0
353 2.615153789520264e-08 0 0
354 2.622604370117188e-08 0 0
355 2.630054950714112e-08 0 0
356 2.637505531311035e-08 0 0
357 2.644956111907959e-08 0 0
358 2.652406692504883e-08 0 0
359 2.659857273101807e-08 0 0
360 2.667307853698731e-08 0 0
361 2.674758434295654e-08 0 0
362 2.682209014892578e-08 0 0
363 2.689659595489502e-08 0 0
364 2.697110176086426e-08 0 0
365 2.70456075668335e-08 0 0
366 2.712011337280274e-08 0 0
367 2.719461917877198e-08 0 0
368 2.726912498474121e-08 0 0
369 2.734363079071045e-08 0 0
370 2.741813659667969e-08 0 0
371 2.749264240264893e-08 0 0
372 2.756714820861817e-08 0 0
373 2.76416540145874e-08 0 0
374 2.771615982055664e-08 0 0
375 2.779066562652588e-08 0 0
376 2.786517143249512e-08 0 0
377 2.793967723846436e-08 0 0
378 2.801418304443359e-08 0 0
379 2.808868885040283e-08 0 0
380 2.816319465637207e-08 0 0
381 2.823770046234131e-08 0 0
382 2.831220626831055e-08 0 0
383 2.838671207427979e-08 0 0
384 2.846121788024903e-08 0 0
385 2.853572368621826e-08 0 0
386 2.86102294921875e-08 0 0
387 2.868473529815674e-08 0 0
388 2.875924110412598e-08 0 0
389 2.883374691009522e-08 0 0
390 2.890825271606446e-08 0 0
391 2.898275852203369e-08 0 0
392 2.905726432800293e-08 0 0
393 2.913177013397217e-08 0 0
394 2.920627593994141e-08 0 0
395 2.928078174591064e-08 0 0
396 2.935528755187988e-08 0 0
397 2.942979335784912e-08 0 0
398 2.950429916381836e-08 0 0
399 2.95788049697876e-08 0 0
400 2.965331077575684e-08 0 0
401 2.972781658172608e-08 0 0
402 2.980232238769531e-08 0 0
403 2.987682819366456e-08 0 0
404 2.995133399963379e-08 0 0
405 3.002583980560303e-08 0 0
406 3.010034561157227e-08 0 0
407 3.017485141754151e-08 0 0
408 3.024935722351074e-08 0 0
409 3.032386302947998e-08 0 0
410 3.039836883544922e-08 0 0
411 3.047287464141846e-08 0 0
412 3.05473804473877e-08 0 0
413 3.062188625335694e-08 0 0
414 3.069639205932617e-08 0 0
415 3.077089786529541e-08 0 0
416 3.084540367126465e-08 0 0
417 3.091990947723389e-08 0 0
418 3.099441528320313e-08 0 0
419 3.106892108917236e-08 0 0
420 3.114342689514161e-08 0 0
421 3.121793270111084e-08 0 0
422 3.129243850708008e-08 0 0
423 3.136694431304932e-08 0 0
424 3.144145011901855e-08 0 0
425 3.151595592498779e-08 0 0
426 3.159046173095703e-08 0 0
427 3.166496753692627e-08 0 0
428 3.173947334289551e-08 0 0
429 3.181397914886475e-08 0 0
430 3.188848495483399e-08 0 0
431 3.196299076080323e-08 0 0
432 3.203749656677246e-08 0 0
433 3.21120023727417e-08 0 0
434 3.218650817871094e-08 0 0
435 3.226101398468018e-08 0 0
436 3.233551979064941e-08 0 0
437 3.241002559661866e-08 0 0
438 3.248453140258789e-08 0 0
439 3.255903720855713e-08 0 0
440 3.263354301452637e-08 0 0
441 3.27080488204956e-08 0 0
442 3.278255462646484e-08 0 0
443 3.285706043243408e-08 0 0
444 3.293156623840332e-08 0 0
445 3.300607204437256e-08 0 0
446 3.30805778503418e-08 0 0
447 3.315508365631104e-08 0 0
448 3.322958946228028e-08 0 0
449 3.330409526824951e-08 0 0
450 3.337860107421875e-08 0 0
451 3.345310688018799e-08 0 0
452 3.352761268615723e-08 0 0
453 3.360211849212646e-08 0 0
454 3.367662429809571e-08 0 0
455 3.375113010406494e-08 0 0
456 3.382563591003418e-08 0 0
457 3.390014171600342e-08 0 0
458 3.397464752197265e-08 0 0
459 3.404915332794189e-08 0 0
460 3.412365913391113e-08 0 0
461 3.419816493988037e-08 0 0
462 3.427267074584961e-08 0 0
463 3.434717655181885e-08 0 0
464 3.442168235778809e-08 0 0
465 3.449618816375733e-08 0 0
466 3.457069396972657e-08 0 0
467 3.46451997756958e-08 0 0
468 3.471970558166504e-08 0 0
469 3.479421138763428e-08 0 0
470 3.486871719360351e-08 0 0
471 3.494322299957276e-08 0 0
472 3.501772880554199e-08 0 0
473 3.509223461151124e-08 0 0
474 3.516674041748047e-08 0 0
475 3.52412462234497e-08 0 0
476 3.531575202941895e-08 0 0
477 3.539025783538818e-08 0 0
478 3.546476364135742e-08 0 0
479 3.553926944732666e-08 0 0
480 3.56137752532959e-08 0 0
481 3.568828105926514e-08 0 0
482 3.576278686523438e-08 0 0
483 3.583729267120362e-08 0 0
484 3.591179847717285e-08 0 0
485 3.598630428314209e-08 0 0
486 3.606081008911133e-08 0 0
487 3.613531589508056e-08 0 0
488 3.620982170104981e-08 0 0
489 3.628432750701904e-08 0 0
490 3.635883331298829e-08 0 0
491 3.643333911895752e-08 0 0
492 3.650784492492676e-08 0 0
493 3.6582350730896e-08 0 0
494 3.665685653686523e-08 0 0
495 3.673136234283447e-08 0 0
496 3.680586814880371e-08 0 0
497 3.688037395477295e-08 0 0
498 3.695487976074219e-08 0 0
499 3.702938556671143e-08 0 0
500 3.710389137268067e-08 0 0
501 3.71783971786499e-08 0 0
502 3.725290298461914e-08 0 0
503 3.732740879058838e-08 0 0
504 3.740191459655762e-08 0 0
505 3.747642040252686e-08 0 0
506 3.755092620849609e-08 0 0
507 3.762543201446534e-08 0 0
508 3.769993782043457e-08 0 0
509 3.777444362640381e-08 0 0
510 3.784894943237305e-08 0 0
511 3.792345523834228e-08 0 0
512 3.799796104431152e-08 0 0
513 3.807246685028076e-08 0 0
514 3.814697265625e-08 0 0
515 3.822147846221924e-08 0 0
516 3.829598426818848e-08 0 0
517 3.837049007415772e-08 0 0
518 3.844499588012696e-08 0 0
519 3.851950168609619e-08 0 0
520 3.859400749206543e-08 0 0
521 3.866851329803467e-08 0 0
522 3.874301910400391e-08 0 0
523 3.881752490997314e-08 0 0
524 3.889203071594239e-08 0 0
525 3.896653652191162e-08 0 0
526 3.904104232788086e-08 0 0
527 3.91155481338501e-08 0 0
528 3.919005393981933e-08 0 0
529 3.926455974578857e-08 0 0
530 3.933906555175781e-08 0 0
531 3.941357135772705e-08 0 0
532 3.948807716369629e-08 0 0
533 3.956258296966553e-08 0 0
534 3.963708877563477e-08 0 0
535 3.971159458160401e-08 0 0
536 3.978610038757324e-08 0 0
537 3.986060619354248e-08 0 0
538 3.993511199951172e-08 0 0
539 4.000961780548096e-08 0 0
540 4.008412361145019e-08 0 0
541 4.015862941741944e-08 0 0
542 4.023313522338867e-08 0 0
543 4.030764102935791e-08 0 0
544 4.038214683532715e-08 0 0
545 4.045665264129638e-08 0 0
546 4.053115844726562e-08 0 0
547 4.060566425323486e-08 0 0
548 4.06801700592041e-08 0 0
549 4.075467586517334e-08 0 0
550 4.082918167114258e-08 0 0
551 4.090368747711182e-08 0 0
552 4.097819328308106e-08 0 0
553 4.10526990890503e-08 0 0
554 4.112720489501953e-08 0 0
555 4.120171070098877e-08 0 0
556 4.127621650695801e-08 0 0
557 4.135072231292724e-08 0 0
558 4.142522811889649e-08 0 0
559 4.149973392486572e-08 0 0
560 4.157423973083496e-08 0 0
561 4.16487455368042e-08 0 0
562 4.172325134277343e-08 0 0
563 4.179775714874267e-08 0 0
564 4.187226295471191e-08 0 0
565 4.194676876068115e-08 0 0
566 4.202127456665039e-08 0 0
567 4.209578037261963e-08 0 0
568 4.217028617858887e-08 0 0
569 4.224479198455811e-08 0 0
570 4.231929779052735e-08 0 0
571 4.239380359649658e-08 0 0
572 4.246830940246582e-08 0 0
573 4.254281520843506e-08 0 0
574 4.26173210144043e-08 0 0
575 4.269182682037354e-08 0 0
576 4.276633262634278e-08 0 0
577 4.284083843231201e-08 0 0
578 4.291534423828126e-08 0 0
579 4.298985004425049e-08 0 0
580 4.306435585021973e-08 0 0
581 4.313886165618897e-08 0 0
582 4.32133674621582e-08 0 0
583 4.328787326812745e-08 0 0
584 4.336237907409668e-08 0 0
585 4.343688488006592e-08 0 0
586 4.351139068603516e-08 0 0
587 4.35858964920044e-08 0 0
588 4.366040229797363e-08 0 0
589 4.373490810394287e-08 0 0
590 4.380941390991211e-08 0 0
591 4.388391971588135e-08 0 0
592 4.395842552185059e-08 0 0
593 4.403293132781983e-08 0 0
594 4.410743713378907e-08 0 0
595 4.418194293975831e-08 0 0
596 4.425644874572754e-08 0 0
597 4.433095455169678e-08 0 0
598 4.440546035766602e-08 0 0
599 4.447996616363525e-08 0 0
600 4.45544719696045e-08 0 0
601 4.462897777557373e-08 0 0
602 4.470348358154297e-08 0 0
603 4.477798938751221e-08 0 0
604 4.485249519348145e-08 0 0
605 4.492700099945069e-08 0 0
606 4.500150680541992e-08 0 0
607 4.507601261138916e-08 0 0
608 4.51505184173584e-08 0 0
609 4.522502422332764e-08 0 0
610 4.529953002929688e-08 0 0
611 4.537403583526612e-08 0 0
612 4.544854164123536e-08 0 0
613 4.552304744720459e-08 0 0
614 4.559755325317383e-08 0 0
615 4.567205905914307e-08 0 0
616 4.57465648651123e-08 0 0
617 4.582107067108155e-08 0 0
618 4.589557647705078e-08 0 0
619 4.597008228302002e-08 0 0
620 4.604458808898926e-08 0 0
621 4.61190938949585e-08 0 0
622 4.619359970092774e-08 0 0
623 4.626810550689697e-08 0 0
624 4.634261131286621e-08 0 0
625 4.641711711883545e-08 0 0
626 4.649162292480469e-08 0 0
627 4.656612873077393e-08 0 0
628 4.664063453674317e-08 0 0
629 4.671514034271241e-08 0 0
630 4.678964614868164e-08 0 0
631 4.686415195465089e-08 0 0
632 4.693865776062012e-08 0 0
633 4.701316356658935e-08 0 0
634 4.70876693725586e-08 0 0
635 4.716217517852783e-08 0 0
636 4.723668098449707e-08 0 0
637 4.731118679046631e-08 0 0
638 4.738569259643555e-08 0 0
639 4.746019840240479e-08 0 0
640 4.753470420837402e-08 0 0
641 4.760921001434326e-08 0 0
642 4.76837158203125e-08 0 0
643 4.775822162628174e-08 0 0
644 4.783272743225098e-08 0 0
645 4.790723323822022e-08 0 0
646 4.798173904418946e-08 0 0
647 4.805624485015869e-08 0 0
648 4.813075065612794e-08 0 0
649 4.820525646209717e-08 0 0
650 4.82797622680664e-08 0 0
651 4.835426807403565e-08 0 0
652 4.842877388000488e-08 0 0
653 4.850327968597413e-08 0 0
654 4.857778549194336e-08 0 0
655 4.86522912979126e-08 0 0
656 4.872679710388184e-08 0 0
657 4.880130290985108e-08 0 0
658 4.887580871582031e-08 0 0
659 4.895031452178955e-08 0 0
660 4.902482032775879e-08 0 0
661 4.909932613372803e-08 0 0
662 4.917383193969727e-08 0 0
663 4.924833774566651e-08 0 0
664 4.932284355163574e-08 0 0
665 4.939734935760499e-08 0 0
666 4.947185516357422e-08 0 0
667 4.954636096954345e-08 0 0
668 4.96208667755127e-08 0 0
669 4.969537258148193e-08 0 0
670 4.976987838745118e-08 0 0
671 4.984438419342041e-08 0 0
672 4.991888999938965e-08 0 0
673 4.999339580535889e-08 0 0
674 5.006790161132813e-08 0 0
675 5.014240741729736e-08 0 0
676 5.02169132232666e-08 0 0
677 5.029141902923584e-08 0 0
678 5.036592483520508e-08 0 0
679 5.044043064117432e-08 0 0
680 5.051493644714356e-08 0 0
681 5.058944225311279e-08 0 0
682 5.066394805908204e-08 0 0
683 5.073845386505127e-08 0 0
684 5.081295967102051e-08 0 0
685 5.088746547698975e-08 0 0
686 5.096197128295898e-08 0 0
687 5.103647708892823e-08 0 0
688 5.111098289489746e-08 0 0
689 5.11854887008667e-08 0 0
690 5.125999450683594e-08 0 0
691 5.133450031280518e-08 0 0
692 5.140900611877441e-08 0 0
693 5.148351192474365e-08 0 0
694 5.155801773071289e-08 0 0
695 5.163252353668213e-08 0 0
696 5.170702934265137e-08 0 0
697 5.178153514862061e-08 0 0
698 5.185604095458985e-08 0 0
699 5.193054676055909e-08 0 0
700 5.200505256652832e-08 0 0
701 5.207955837249756e-08 0 0
702 5.21540641784668e-08 0 0
703 5.222856998443603e-08 0 0
704 5.230307579040528e-08 0 0
705 5.237758159637451e-08 0 0
706 5.245208740234375e-08 0 0
707 5.252659320831299e-08 0 0
708 5.260109901428223e-08 0 0
709 5.267560482025147e-08 0 0
710 5.27501106262207e-08 0 0
711 5.282461643218994e-08 0 0
712 5.289912223815918e-08 0 0
713 5.297362804412842e-08 0 0
714 5.304813385009766e-08 0 0
715 5.31226396560669e-08 0 0
716 5.319714546203614e-08 0 0
717 5.327165126800537e-08 0 0
718 5.334615707397461e-08 0 0
719 5.342066287994385e-08 0 0
720 5.349516868591308e-08 0 0
721 5.356967449188233e-08 0 0
722 5.364418029785156e-08 0 0
723 5.37186861038208e-08 0 0
724 5.379319190979004e-08 0 0
725 5.386769771575928e-08 0 0
726 5.394220352172852e-08 0 0
727 5.401670932769775e-08 0 0
728 5.409121513366699e-08 0 0
729 5.416572093963623e-08 0 0
730 5.424022674560547e-08 0 0
731 5.431473255157471e-08 0 0
732 5.438923835754395e-08 0 0
733 5.446374416351319e-08 0 0
734 5.453824996948242e-08 0 0
735 5.461275577545167e-08 0 0
736 5.46872615814209e-08 0 0
737 5.476176738739013e-08 0 0
738 5.483627319335938e-08 0 0
739 5.491077899932861e-08 0 0
740 5.498528480529785e-08 0 0
741 5.505979061126709e-08 0 0
742 5.513429641723633e-08 0 0
743 5.520880222320557e-08 0 0
744 5.52833080291748e-08 0 0
745 5.535781383514404e-08 0 0
746 5.543231964111328e-08 0 0
747 5.550682544708252e-08 0 0
748 5.558133125305176e-08 0 0
749 5.5655837059021e-08 0 0
750 5.573034286499024e-08 0 0
751 5.580484867095947e-08 0 0
752 5.587935447692872e-08 0 0
753 5.595386028289795e-08 0 0
754 5.602836608886718e-08 0 0
755 5.610287189483643e-08 0 0
756 5.617737770080566e-08 0 0
757 5.62518835067749e-08 0 0
758 5.632638931274414e-08 0 0
759 5.640089511871338e-08 0 0
760 5.647540092468262e-08 0 0
761 5.654990673065186e-08 0 0
762 5.662441253662109e-08 0 0
763 5.669891834259033e-08 0 0
764 5.677342414855957e-08 0 0
765 5.684792995452881e-08 0 0
766 5.692243576049805e-08 0 0
767 5.699694156646729e-08 0 0
768 5.707144737243652e-08 0 0
769 5.714595317840577e-08 0 0
770 5.7220458984375e-08 0 0
771 5.729496479034423e-08 0 0
772 5.736947059631348e-08 0 0
773 5.744397640228271e-08 0 0
774 5.751848220825196e-08 0 0
775 5.759298801422119e-08 0 0
776 5.766749382019043e-08 0 0
777 5.774199962615967e-08 0 0
778 5.781650543212891e-08 0 0
779 5.789101123809814e-08 0 0
780 5.796551704406738e-08 0 0
781 5.804002285003662e-08 0 0
782 5.811452865600586e-08 0 0
783 5.81890344619751e-08 0 0
784 5.826354026794434e-08 0 0
785 5.833804607391357e-08 0 0
786 5.841255187988282e-08 0 0
787 5.848705768585205e-08 0 0
788 5.856156349182128e-08 0 0
789 5.863606929779053e-08 0 0
790 5.871057510375976e-08 0 0
791 5.878508090972901e-08 0 0
792 5.885958671569824e-08 0 0
793 5.893409252166748e-08 0 0
794 5.900859832763672e-08 0 0
795 5.908310413360596e-08 0 0
796 5.91576099395752e-08 0 0
797 5.923211574554443e-08 0 0
798 5.930662155151367e-08 0 0
799 5.938112735748291e-08 0 0
800 5.945563316345215e-08 0 0
801 5.953013896942139e-08 0 0
802 5.960464477539062e-08 0 0
803 5.967915058135986e-08 0 0
804 5.975365638732911e-08 0 0
805 5.982816219329834e-08 0 0
806 5.990266799926757e-08 0 0
807 5.997717380523682e-08 0 0
808 6.005167961120606e-08 0 0
809 6.01261854171753e-08 0 0
810 6.020069122314453e-08 0 0
811 6.027519702911377e-08 0 0
812 6.034970283508302e-08 0 0
813 6.042420864105226e-08 0 0
814 6.049871444702148e-08 0 0
815 6.057322025299073e-08 0 0
816 6.064772605895997e-08 0 0
817 6.07222318649292e-08 0 0
818 6.079673767089844e-08 0 0
819 6.087124347686768e-08 0 0
820 6.094574928283691e-08 0 0
821 6.102025508880616e-08 0 0
822 6.10947608947754e-08 0 0
823 6.116926670074462e-08 0 0
824 6.124377250671387e-08 0 0
825 6.131827831268311e-08 0 0
826 6.139278411865235e-08 0 0
827 6.146728992462158e-08 0 0
828 6.154179573059082e-08 0 0
829 6.161630153656007e-08 0 0
830 6.169080734252931e-08 0 0
831 6.176531314849853e-08 0 0
832 6.183981895446778e-08 0 0
833 6.191432476043702e-08 0 0
834 6.198883056640625e-08 0 0
835 6.20633363723755e-08 0 0
836 6.213784217834473e-08 0 0
837 6.221234798431396e-08 0 0
838 6.228685379028321e-08 0 0
839 6.236135959625244e-08 0 0
840 6.243586540222169e-08 0 0
841 6.251037120819092e-08 0 0
842 6.258487701416016e-08 0 0
843 6.26593828201294e-08 0 0
844 6.273388862609863e-08 0 0
845 6.280839443206787e-08 0 0
846 6.288290023803711e-08 0 0
847 6.295740604400636e-08 0 0
848 6.303191184997558e-08 0 0
849 6.310641765594483e-08 0 0
850 6.318092346191407e-08 0 0
851 6.32554292678833e-08 0 0
852 6.332993507385254e-08 0 0
853 6.340444087982178e-08 0 0
854 6.347894668579101e-08 0 0
855 6.355345249176025e-08 0 0
856 6.36279582977295e-08 0 0
857 6.370246410369874e-08 0 0
858 6.377696990966797e-08 0 0
859 6.385147571563721e-08 0 0
860 6.392598152160646e-08 0 0
861 6.400048732757568e-08 0 0
862 6.407499313354492e-08 0 0
863 6.414949893951417e-08 0 0
864 6.422400474548339e-08 0 0
865 6.429851055145264e-08 0 0
866 6.437301635742188e-08 0 0
867 6.444752216339112e-08 0 0
868 6.452202796936035e-08 0 0
869 6.45965337753296e-08 0 0
870 6.467103958129883e-08 0 0
871 6.474554538726806e-08 0 0
872 6.482005119323731e-08 0 0
873 6.489455699920654e-08 0 0
874 6.496906280517579e-08 0 0
875 6.504356861114502e-08 0 0
876 6.511807441711426e-08 0 0
877 6.51925802230835e-08 0 0
878 6.526708602905275e-08 0 0
879 6.534159183502197e-08 0 0
880 6.541609764099121e-08 0 0
881 6.549060344696046e-08 0 0
882 6.556510925292968e-08 0 0
883 6.563961505889893e-08 0 0
884 6.571412086486817e-08 0 0
885 6.578862667083742e-08 0 0
886 6.586313247680664e-08 0 0
887 6.593763828277589e-08 0 0
888 6.601214408874513e-08 0 0
889 6.608664989471435e-08 0 0
890 6.61611557006836e-08 0 0
891 6.623566150665284e-08 0 0
892 6.631016731262207e-08 0 0
893 6.638467311859131e-08 0 0
894 6.645917892456056e-08 0 0
895 6.653368473052978e-08 0 0
896 6.660819053649902e-08 0 0
897 6.668269634246827e-08 0 0
898 6.675720214843749e-08 0 0
899 6.683170795440674e-08 0 0
900 6.690621376037598e-08 0 0
901 6.698071956634522e-08 0 0
902 6.705522537231445e-08 0 0
903 6.71297311782837e-08 0 0
904 6.720423698425293e-08 0 0
905 6.727874279022216e-08 0 0
906 6.735324859619141e-08 0 0
907 6.742775440216064e-08 0 0
908 6.750226020812989e-08 0 0
909 6.757676601409912e-08 0 0
910 6.765127182006836e-08 0 0
911 6.77257776260376e-08 0 0
912 6.780028343200685e-08 0 0
913 6.787478923797607e-08 0 0
914 6.794929504394531e-08 0 0
915 6.802380084991456e-08 0 0
916 6.809830665588378e-08 0 0
917 6.817281246185303e-08 0 0
918 6.824731826782227e-08 0 0
919 6.832182407379152e-08 0 0
920 6.839632987976074e-08 0 0
921 6.847083568572999e-08 0 0
922 6.854534149169923e-08 0 0
923 6.861984729766845e-08 0 0
924 6.86943531036377e-08 0 0
925 6.876885890960694e-08 0 0
926 6.884336471557617e-08 0 0
927 6.891787052154541e-08 0 0
928 6.899237632751466e-08 0 0
929 6.906688213348388e-08 0 0
930 6.914138793945313e-08 0 0
931 6.921589374542237e-08 0 0
932 6.929039955139159e-08 0 0
933 6.936490535736084e-08 0 0
934 6.943941116333008e-08 0 0
935 6.951391696929932e-08 0 0
936 6.958842277526855e-08 0 0
937 6.96629285812378e-08 0 0
938 6.973743438720703e-08 0 0
939 6.981194019317628e-08 0 0
940 6.988644599914551e-08 0 0
941 6.996095180511474e-08 0 0
942 7.003545761108399e-08 0 0
943 7.010996341705322e-08 0 0
944 7.018446922302247e-08 0 0
945 7.02589750289917e-08 0 0
946 7.033348083496095e-08 0 0
947 7.040798664093018e-08 0 0
948 7.048249244689941e-08 0 0
949 7.055699825286866e-08 0 0
950 7.063150405883789e-08 0 0
951 7.070600986480713e-08 0 0
952 7.078051567077637e-08 0 0
953 7.085502147674562e-08 0 0
954 7.092952728271484e-08 0 0
955 7.100403308868409e-08 0 0
956 7.107853889465333e-08 0 0
957 7.115304470062255e-08 0 0
958 7.12275505065918e-08 0 0
959 7.130205631256104e-08 0 0
960 7.137656211853027e-08 0 0
961 7.145106792449951e-08 0 0
962 7.152557373046876e-08 0 0
963 7.160007953643798e-08 0 0
964 7.167458534240723e-08 0 0
965 7.174909114837647e-08 0 0
966 7.182359695434569e-08 0 0
967 7.189810276031494e-08 0 0
968 7.197260856628418e-08 0 0
969 7.204711437225342e-08 0 0
970 7.212162017822265e-08 0 0
971 7.21961259841919e-08 0 0
972 7.227063179016113e-08 0 0
973 7.234513759613038e-08 0 0
974 7.241964340209961e-08 0 0
975 7.249414920806884e-08 0 0
976 7.256865501403809e-08 0 0
977 7.264316082000732e-08 0 0
978 7.271766662597657e-08 0 0
979 7.27921724319458e-08 0 0
980 7.286667823791505e-08 0 0
981 7.294118404388428e-08 0 0
982 7.301568984985352e-08 0 0
983 7.309019565582276e-08 0 0
984 7.316470146179199e-08 0 0
985 7.323920726776123e-08 0 0
986 7.331371307373047e-08 0 0
987 7.338821887969972e-08 0 0
988 7.346272468566894e-08 0 0
989 7.353723049163819e-08 0 0
990 7.361173629760743e-08 0 0
991 7.368624210357666e-08 0 0
992 7.37607479095459e-08 0 0
993 7.383525371551514e-08 0 0
994 7.390975952148437e-08 0 0
995 7.398426532745361e-08 0 0
996 7.405877113342286e-08 0 0
997 7.413327693939208e-08 0 0
998 7.420778274536133e-08 0 0
999 7.428228855133057e-08 0 0
1000 7.435679435729979e-08 0 0
1001 7.443130016326904e-08 0 0
1002 7.450580596923828e-08 0 0
1003 7.458031177520752e-08 0 0
1004 7.465481758117675e-08 0 0
1005 7.4729323387146e-08 0 0
1006 7.480382919311524e-08 0 0
1007 7.487833499908448e-08 0 0
1008 7.495284080505371e-08 0 0
1009 7.502734661102295e-08 0 0
1010 7.510185241699219e-08 0 0
1011 7.517635822296142e-08 0 0
1012 7.525086402893067e-08 0 0
1013 7.53253698348999e-08 0 0
1014 7.539987564086915e-08 0 0
1015 7.547438144683838e-08 0 0
1016 7.554888725280762e-08 0 0
1017 7.562339305877686e-08 0 0
1018 7.569789886474609e-08 0 0
1019 7.577240467071533e-08 0 0
1020 7.584691047668457e-08 0 0
1021 7.592141628265382e-08 0 0
1022 7.599592208862304e-08 0 0
1023 7.607042789459229e-08 0 0
1024 7.614493370056153e-08 0 0
1025 7.621943950653076e-08 0 0
1026 7.62939453125e-08 0 0
1027 7.636845111846924e-08 0 0
1028 7.644295692443847e-08 0 0
1029 7.651746273040771e-08 0 0
1030 7.659196853637696e-08 0 0
1031 7.666647434234619e-08 0 0
1032 7.674098014831543e-08 0 0
1033 7.681548595428467e-08 0 0
1034 7.688999176025392e-08 0 0
1035 7.696449756622315e-08 0 0
1036 7.703900337219238e-08 0 0
1037 7.711350917816163e-08 0 0
1038 7.718801498413086e-08 0 0
1039 7.726252079010011e-08 0 0
1040 7.733702659606934e-08 0 0
1041 7.741153240203858e-08 0 0
1042 7.748603820800782e-08 0 0
1043 7.756054401397707e-08 0 0
1044 7.763504981994629e-08 0 0
1045 7.770955562591553e-08 0 0
1046 7.778406143188478e-08 0 0
1047 7.7858567237854e-08 0 0
1048 7.793307304382325e-08 0 0
1049 7.800757884979249e-08 0 0
1050 7.808208465576172e-08 0 0
1051 7.815659046173096e-08 0 0
1052 7.823109626770021e-08 0 0
1053 7.830560207366943e-08 0 0
1054 7.838010787963867e-08 0 0
1055 7.845461368560792e-08 0 0
1056 7.852911949157714e-08 0 0
1057 7.860362529754639e-08 0 0
1058 7.867813110351563e-08 0 0
1059 7.875263690948487e-08 0 0
1060 7.88271427154541e-08 0 0
1061 7.890164852142334e-08 0 0
1062 7.897615432739258e-08 0 0
1063 7.905066013336181e-08 0 0
1064 7.912516593933106e-08 0 0
1065 7.919967174530029e-08 0 0
1066 7.927417755126954e-08 0 0
1067 7.934868335723877e-08 0 0
1068 7.942318916320802e-08 0 0
1069 7.949769496917725e-08 0 0
1070 7.957220077514648e-08 0 0
1071 7.964670658111573e-08 0 0
1072 7.972121238708496e-08 0 0
1073 7.979571819305421e-08 0 0
1074 7.987022399902344e-08 0 0
1075 7.994472980499268e-08 0 0
1076 8.001923561096192e-08 0 0
1077 8.009374141693117e-08 0 0
1078 8.016824722290039e-08 0 0
1079 8.024275302886963e-08 0 0
1080 8.031725883483888e-08 0 0
1081 8.03917646408081e-08 0 0
1082 8.046627044677735e-08 0 0
1083 8.054077625274659e-08 0 0
1084 8.061528205871582e-08 0 0
1085 8.068978786468506e-08 0 0
1086 8.076429367065431e-08 0 0
1087 8.083879947662353e-08 0 0
1088 8.091330528259277e-08 0 0
1089 8.098781108856202e-08 0 0
1090 8.106231689453124e-08 0 0
1091 8.113682270050049e-08 0 0
1092 8.121132850646973e-08 0 0
1093 8.128583431243897e-08 0 0
1094 8.13603401184082e-08 0 0
1095 8.143484592437745e-08 0 0
1096 8.150935173034669e-08 0 0
1097 8.158385753631591e-08 0 0
1098 8.165836334228516e-08 0 0
1099 8.17328691482544e-08 0 0
1100 8.180737495422364e-08 0 0
1101 8.188188076019287e-08 0 0
1102 8.195638656616212e-08 0 0
1103 8.203089237213135e-08 0 0
1104 8.21053981781006e-08 0 0
1105 8.217990398406983e-08 0 0
1106 8.225440979003906e-08 0 0
1107 8.232891559600831e-08 0 0
1108 8.240342140197754e-08 0 0
1109 8.247792720794678e-08 0 0
1110 8.255243301391602e-08 0 0
1111 8.262693881988527e-08 0 0
1112 8.270144462585449e-08 0 0
1113 8.277595043182373e-08 0 0
1114 8.285045623779298e-08 0 0
1115 8.29249620437622e-08 0 0
1116 8.299946784973145e-08 0 0
1117 8.307397365570069e-08 0 0
1118 8.314847946166992e-08 0 0
1119 8.322298526763916e-08 0 0
1120 8.329749107360841e-08 0 0
1121 8.337199687957763e-08 0 0
1122 8.344650268554687e-08 0 0
1123 8.352100849151612e-08 0 0
1124 8.359551429748534e-08 0 0
1125 8.367002010345459e-08 0 0
1126 8.374452590942383e-08 0 0
1127 8.381903171539308e-08 0 0
1128 8.38935375213623e-08 0 0
1129 8.396804332733155e-08 0 0
1130 8.404254913330079e-08 0 0
1131 8.411705493927001e-08 0 0
1132 8.419156074523926e-08 0 0
1133 8.42660665512085e-08 0 0
1134 8.434057235717774e-08 0 0
1135 8.441507816314697e-08 0 0
1136 8.448958396911622e-08 0 0
1137 8.456408977508545e-08 0 0
1138 8.46385955810547e-08 0 0
1139 8.471310138702393e-08 0 0
1140 8.478760719299316e-08 0 0
1141 8.486211299896241e-08 0 0
1142 8.493661880493164e-08 0 0
1143 8.501112461090088e-08 0 0
1144 8.508563041687012e-08 0 0
1145 8.516013622283937e-08 0 0
1146 8.523464202880859e-08 0 0
1147 8.530914783477784e-08 0 0
1148 8.538365364074708e-08 0 0
1149 8.54581594467163e-08 0 0
1150 8.553266525268555e-08 0 0
1151 8.560717105865479e-08 0 0
1152 8.568167686462402e-08 0 0
1153 8.575618267059326e-08 0 0
1154 8.583068847656251e-08 0 0
1155 8.590519428253175e-08 0 0
1156 8.597970008850098e-08 0 0
1157 8.605420589447022e-08 0 0
1158 8.612871170043946e-08 0 0
1159 8.620321750640869e-08 0 0
1160 8.627772331237793e-08 0 0
1161 8.635222911834718e-08 0 0
1162 8.64267349243164e-08 0 0
1163 8.650124073028565e-08 0 0
1164 8.657574653625489e-08 0 0
1165 8.665025234222411e-08 0 0
1166 8.672475814819336e-08 0 0
1167 8.67992639541626e-08 0 0
1168 8.687376976013184e-08 0 0
1169 8.694827556610107e-08 0 0
1170 8.702278137207032e-08 0 0
1171 8.709728717803955e-08 0 0
1172 8.71717929840088e-08 0 0
1173 8.724629878997803e-08 0 0
1174 8.732080459594726e-08 0 0
1175 8.739531040191651e-08 0 0
1176 8.746981620788574e-08 0 0
1177 8.754432201385498e-08 0 0
1178 8.761882781982422e-08 0 0
1179 8.769333362579347e-08 0 0
1180 8.776783943176269e-08 0 0
1181 8.784234523773194e-08 0 0
1182 8.791685104370118e-08 0 0
1183 8.79913568496704e-08 0 0
1184 8.806586265563965e-08 0 0
1185 8.814036846160889e-08 0 0
1186 8.821487426757814e-08 0 0
1187 8.828938007354736e-08 0 0
1188 8.836388587951661e-08 0 0
1189 8.843839168548585e-08 0 0
1190 8.851289749145508e-08 0 0
1191 8.858740329742432e-08 0 0
1192 8.866190910339356e-08 0 0
1193 8.873641490936279e-08 0 0
1194 8.881092071533203e-08 0 0
1195 8.888542652130128e-08 0 0
1196 8.89599323272705e-08 0 0
1197 8.903443813323975e-08 0 0
1198 8.910894393920899e-08 0 0
1199 8.918344974517823e-08 0 0
1200 8.925795555114746e-08 0 0
1201 8.93324613571167e-08 0 0
1202 8.940696716308594e-08 0 0
1203 8.948147296905517e-08 0 0
1204 8.955597877502442e-08 0 0
1205 8.963048458099365e-08 0 0
1206 8.97049903869629e-08 0 0
1207 8.977949619293213e-08 0 0
1208 8.985400199890137e-08 0 0
1209 8.992850780487061e-08 0 0
1210 9.000301361083984e-08 0 0
1211 9.007751941680908e-08 0 0
1212 9.015202522277832e-08 0 0
1213 9.022653102874757e-08 0 0
1214 9.030103683471679e-08 0 0
1215 9.037554264068604e-08 0 0
1216 9.045004844665528e-08 0 0
1217 9.052455425262451e-08 0 0
1218 9.059906005859375e-08 0 0
1219 9.067356586456299e-08 0 0
1220 9.074807167053224e-08 0 0
1221 9.082257747650146e-08 0 0
1222 9.089708328247071e-08 0 0
1223 9.097158908843995e-08 0 0
1224 9.104609489440918e-08 0 0
1225 9.112060070037842e-08 0 0
1226 9.119510650634766e-08 0 0
1227 9.126961231231689e-08 0 0
1228 9.134411811828613e-08 0 0
1229 9.141862392425538e-08 0 0
1230 9.14931297302246e-08 0 0
1231 9.156763553619385e-08 0 0
1232 9.164214134216309e-08 0 0
1233 9.171664714813233e-08 0 0
1234 9.179115295410156e-08 0 0
1235 9.18656587600708e-08 0 0
1236 9.194016456604004e-08 0 0
1237 9.201467037200927e-08 0 0
1238 9.208917617797852e-08 0 0
1239 9.216368198394775e-08 0 0
1240 9.2238187789917e-08 0 0
1241 9.231269359588623e-08 0 0
1242 9.238719940185547e-08 0 0
1243 9.246170520782471e-08 0 0
1244 9.253621101379394e-08 0 0
1245 9.261071681976319e-08 0 0
1246 9.268522262573242e-08 0 0
1247 9.275972843170167e-08 0 0
1248 9.28342342376709e-08 0 0
1249 9.290874004364014e-08 0 0
1250 9.298324584960938e-08 0 0
1251 9.305775165557863e-08 0 0
1252 9.313225746154785e-08 0 0
1253 9.320676326751709e-08 0 0
1254 9.328126907348634e-08 0 0
1255 9.335577487945556e-08 0 0
1256 9.343028068542481e-08 0 0
1257 9.350478649139405e-08 0 0
1258 9.357929229736328e-08 0 0
1259 9.365379810333252e-08 0 0
1260 9.372830390930177e-08 0 0
1261 9.3802809715271e-08 0 0
1262 9.387731552124023e-08 0 0
1263 9.395182132720948e-08 0 0
1264 9.402632713317871e-08 0 0
1265 9.410083293914796e-08 0 0
1266 9.417533874511719e-08 0 0
1267 9.424984455108643e-08 0 0
1268 9.432435035705567e-08 0 0
1269 9.43988561630249e-08 0 0
1270 9.447336196899414e-08 0 0
1271 9.454786777496338e-08 0 0
1272 9.462237358093263e-08 0 0
1273 9.469687938690185e-08 0 0
1274 9.47713851928711e-08 0 0
1275 9.484589099884034e-08 0 0
1276 9.492039680480959e-08 0 0
1277 9.499490261077881e-08 0 0
1278 9.506940841674805e-08 0 0
1279 9.51439142227173e-08 0 0
1280 9.521842002868652e-08 0 0
1281 9.529292583465577e-08 0 0
1282 9.536743164062501e-08 0 0
1283 9.544193744659424e-08 0 0
1284 9.551644325256348e-08 0 0
1285 9.559094905853273e-08 0 0
1286 9.566545486450195e-08 0 0
1287 9.573996067047119e-08 0 0
1288 9.581446647644044e-08 0 0
1289 9.588897228240966e-08 0 0
1290 9.596347808837891e-08 0 0
1291 9.603798389434815e-08 0 0
1292 9.611248970031739e-08 0 0
1293 9.618699550628662e-08 0 0
1294 9.626150131225587e-08 0 0
1295 9.63360071182251e-08 0 0
1296 9.641051292419433e-08 0 0
1297 9.648501873016358e-08 0 0
1298 9.655952453613281e-08 0 0
1299 9.663403034210206e-08 0 0
1300 9.670853614807129e-08 0 0
1301 9.678304195404053e-08 0 0
1302 9.685754776000977e-08 0 0
1303 9.693205356597902e-08 0 0
1304 9.700655937194825e-08 0 0
1305 9.708106517791748e-08 0 0
1306 9.715557098388673e-08 0 0
1307 9.723007678985596e-08 0 0
1308 9.73045825958252e-08 0 0
1309 9.737908840179444e-08 0 0
1310 9.745359420776369e-08 0 0
1311 9.752810001373291e-08 0 0
1312 9.760260581970216e-08 0 0
1313 9.76771116256714e-08 0 0
1314 9.775161743164062e-08 0 0
1315 9.782612323760987e-08 0 0
1316 9.790062904357911e-08 0 0
1317 9.797513484954834e-08 0 0
1318 9.804964065551758e-08 0 0
1319 9.812414646148683e-08 0 0
1320 9.819865226745605e-08 0 0
1321 9.82731580734253e-08 0 0
1322 9.834766387939454e-08 0 0
1323 9.842216968536376e-08 0 0
1324 9.849667549133301e-08 0 0
1325 9.857118129730225e-08 0 0
1326 9.864568710327149e-08 0 0
1327 9.872019290924072e-08 0 0
1328 9.879469871520997e-08 0 0
1329 9.88692045211792e-08 0 0
1330 9.894371032714843e-08 0 0
1331 9.901821613311768e-08 0 0
1332 9.909272193908691e-08 0 0
1333 9.916722774505616e-08 0 0
1334 9.924173355102539e-08 0 0
1335 9.931623935699464e-08 0 0
1336 9.939074516296387e-08 0 0
1337 9.946525096893312e-08 0 0
1338 9.953975677490235e-08 0 0
1339 9.961426258087158e-08 0 0
1340 9.968876838684083e-08 0 0
1341 9.976327419281006e-08 0 0
1342 9.98377799987793e-08 0 0
1343 9.991228580474854e-08 0 0
1344 9.998679161071779e-08 0 0
1345 1.00061297416687e-07 0 0
1346 1.001358032226563e-07 0 0
1347 1.002103090286255e-07 0 0
1348 1.002848148345947e-07 0 0
1349 1.00359320640564e-07 0 0
1350 1.004338264465332e-07 0 0
1351 1.005083322525024e-07 0 0
1352 1.005828380584717e-07 0 0
1353 1.006573438644409e-07 0 0
1354 1.007318496704102e-07 0 0
1355 1.008063554763794e-07 0 0
1356 1.008808612823486e-07 0 0
1357 1.009553670883179e-07 0 0
1358 1.010298728942871e-07 0 0
1359 1.011043787002563e-07 0 0
1360 1.011788845062256e-07 0 0
1361 1.012533903121948e-07 0 0
1362 1.013278961181641e-07 0 0
1363 1.014024019241333e-07 0 0
1364 1.014769077301025e-07 0 0
1365 1.015514135360718e-07 0 0
1366 1.01625919342041e-07 0 0
1367 1.017004251480103e-07 0 0
1368 1.017749309539795e-07 0 0
1369 1.018494367599487e-07 0 0
1370 1.01923942565918e-07 0 0
1371 1.019984483718872e-07 0 0
1372 1.020729541778565e-07 0 0
1373 1.021474599838257e-07 0 0
1374 1.022219657897949e-07 0 0
1375 1.022964715957642e-07 0 0
1376 1.023709774017334e-07 0 0
1377 1.024454832077026e-07 0 0
1378 1.025199890136719e-07 0 0
1379 1.025944948196411e-07 0 0
1380 1.026690006256104e-07 0 0
1381 1.027435064315796e-07 0 0
1382 1.028180122375488e-07 0 0
1383 1.028925180435181e-07 0 0
1384 1.029670238494873e-07 0 0
1385 1.030415296554565e-07 0 0
1386 1.031160354614258e-07 0 0
1387 1.03190541267395e-07 0 0
1388 1.032650470733643e-07 0 0
1389 1.033395528793335e-07 0 0
1390 1.034140586853027e-07 0 0
1391 1.03488564491272e-07 0 0
1392 1.035630702972412e-07 0 0
1393 1.036375761032105e-07 0 0
1394 1.037120819091797e-07 0 0
1395 1.037865877151489e-07 0 0
1396 1.038610935211182e-07 0 0
1397 1.039355993270874e-07 0 0
1398 1.040101051330566e-07 0 0
1399 1.040846109390259e-07 0 0
1400 1.041591167449951e-07 0 0
1401 1.042336225509644e-07 0 0
1402 1.043081283569336e-07 0 0
1403 1.043826341629028e-07 0 0
1404 1.044571399688721e-07 0 0
1405 1.045316457748413e-07 0 0
1406 1.046061515808106e-07 0 0
1407 1.046806573867798e-07 0 0
1408 1.04755163192749e-07 0 0
1409 1.048296689987183e-07 0 0
1410 1.049041748046875e-07 0 0
1411 1.049786806106567e-07 0 0
1412 1.05053186416626e-07 0 0
1413 1.051276922225952e-07 0 0
1414 1.052021980285645e-07 0 0
1415 1.052767038345337e-07 0 0
1416 1.053512096405029e-07 0 0
1417 1.054257154464722e-07 0 0
1418 1.055002212524414e-07 0 0
1419 1.055747270584106e-07 0 0
1420 1.056492328643799e-07 0 0
1421 1.057237386703491e-07 0 0
1422 1.057982444763184e-07 0 0
1423 1.058727502822876e-07 0 0
1424 1.059472560882568e-07 0 0
1425 1.060217618942261e-07 0 0
1426 1.060962677001953e-07 0 0
1427 1.061707735061646e-07 0 0
1428 1.062452793121338e-07 0 0
1429 1.06319785118103e-07 0 0
1430 1.063942909240723e-07 0 0
1431 1.064687967300415e-07 0 0
1432 1.065433025360107e-07 0 0
1433 1.0661780834198e-07 0 0
1434 1.066923141479492e-07 0 0
1435 1.067668199539185e-07 0 0
1436 1.068413257598877e-07 0 0
1437 1.069158315658569e-07 0 0
1438 1.069903373718262e-07 0 0
1439 1.070648431777954e-07 0 0
1440 1.071393489837647e-07 0 0
1441 1.072138547897339e-07 0 0
1442 1.072883605957031e-07 0 0
1443 1.073628664016724e-07 0 0
1444 1.074373722076416e-07 0 0
1445 1.075118780136108e-07 0 0
1446 1.075863838195801e-07 0 0
1447 1.076608896255493e-07 0 0
1448 1.077353954315186e-07 0 0
1449 1.078099012374878e-07 0 0
1450 1.07884407043457e-07 0 0
1451 1.079589128494263e-07 0 0
1452 1.080334186553955e-07 0 0
1453 1.081079244613647e-07 0 0
1454 1.08182430267334e-07 0 0
1455 1.082569360733032e-07 0 0
1456 1.083314418792725e-07 0 0
1457 1.084059476852417e-07 0 0
1458 1.084804534912109e-07 0 0
1459 1.085549592971802e-07 0 0
1460 1.086294651031494e-07 0 0
1461 1.087039709091187e-07 0 0
1462 1.087784767150879e-07 0 0
1463 1.088529825210571e-07 0 0
1464 1.089274883270264e-07 0 0
1465 1.090019941329956e-07 0 0
1466 1.090764999389648e-07 0 0
1467 1.091510057449341e-07 0 0
1468 1.092255115509033e-07 0 0
1469 1.093000173568726e-07 0 0
1470 1.093745231628418e-07 0 0
1471 1.09449028968811e-07 0 0
1472 1.095235347747803e-07 0 0
1473 1.095980405807495e-07 0 0
1474 1.096725463867188e-07 0 0
1475 1.09747052192688e-07 0 0
1476 1.098215579986572e-07 0 0
1477 1.098960638046265e-07 0 0
1478 1.099705696105957e-07 0 0
1479 1.100450754165649e-07 0 0
1480 1.101195812225342e-07 0 0
1481 1.101940870285034e-07 0 0
1482 1.102685928344727e-07 0 0
1483 1.103430986404419e-07 0 0
1484 1.104176044464111e-07 0 0
1485 1.104921102523804e-07 0 0
1486 1.105666160583496e-07 0 0
1487 1.106411218643189e-07 0 0
1488 1.107156276702881e-07 0 0
1489 1.107901334762573e-07 0 0
1490 1.108646392822266e-07 0 0
1491 1.109391450881958e-07 0 0
1492 1.11013650894165e-07 0 0
1493 1.110881567001343e-07 0 0
1494 1.111626625061035e-07 0 0
1495 1.112371683120728e-07 0 0
1496 1.11311674118042e-07 0 0
1497 1.113861799240112e-07 0 0
1498 1.114606857299805e-07 0 0
1499 1.115351915359497e-07 0 0
1500 1.116096973419189e-07 0 0
1501 1.116842031478882e-07 0 0
1502 1.117587089538574e-07 0 0
1503 1.118332147598267e-07 0 0
1504 1.119077205657959e-07 0 0
1505 1.119822263717651e-07 0 0
1506 1.120567321777344e-07 0 0
1507 1.121312379837036e-07 0 0
1508 1.122057437896729e-07 0 0
1509 1.122802495956421e-07 0 0
1510 1.123547554016113e-07 0 0
1511 1.124292612075806e-07 0 0
1512 1.125037670135498e-07 0 0
1513 1.12578272819519e-07 0 0
1514 1.126527786254883e-07 0 0
1515 1.127272844314575e-07 0 0
1516 1.128017902374268e-07 0 0
1517 1.12876296043396e-07 0 0
1518 1.129508018493652e-07 0 0
1519 1.130253076553345e-07 0 0
1520 1.130998134613037e-07 0 0
1521 1.13174319267273e-07 0 0
1522 1.132488250732422e-07 0 0
1523 1.133233308792114e-07 0 0
1524 1.133978366851807e-07 0 0
1525 1.134723424911499e-07 0 0
1526 1.135468482971191e-07 0 0
1527 1.136213541030884e-07 0 0
1528 1.136958599090576e-07 0 0
1529 1.137703657150269e-07 0 0
1530 1.138448715209961e-07 0 0
1531 1.139193773269653e-07 0 0
1532 1.139938831329346e-07 0 0
1533 1.140683889389038e-07 0 0
1534 1.14142894744873e-07 0 0
1535 1.142174005508423e-07 0 0
1536 1.142919063568115e-07 0 0
1537 1.143664121627808e-07 0 0
1538 1.1444091796875e-07 0 0
1539 1.145154237747192e-07 0 0
1540 1.145899295806885e-07 0 0
1541 1.146644353866577e-07 0 0
1542 1.14738941192627e-07 0 0
1543 1.148134469985962e-07 0 0
1544 1.148879528045654e-07 0 0
1545 1.149624586105347e-07 0 0
1546 1.150369644165039e-07 0 0
1547 1.151114702224731e-07 0 0
1548 1.151859760284424e-07 0 0
1549 1.152604818344116e-07 0 0
1550 1.153349876403809e-07 0 0
1551 1.154094934463501e-07 0 0
1552 1.154839992523193e-07 0 0
1553 1.155585050582886e-07 0 0
1554 1.156330108642578e-07 0 0
1555 1.157075166702271e-07 0 0
1556 1.157820224761963e-07 0 0
1557 1.158565282821655e-07 0 0
1558 1.159310340881348e-07 0 0
1559 1.16005539894104e-07 0 0
1560 1.160800457000732e-07 0 0
1561 1.161545515060425e-07 0 0
1562 1.162290573120117e-07 0 0
1563 1.16303563117981e-07 0 0
1564 1.163780689239502e-07 0 0
1565 1.164525747299194e-07 0 0
1566 1.165270805358887e-07 0 0
1567 1.166015863418579e-07 0 0
1568 1.166760921478271e-07 0 0
1569 1.167505979537964e-07 0 0
1570 1.168251037597656e-07 0 0
1571 1.168996095657349e-07 0 0
1572 1.169741153717041e-07 0 0
1573 1.170486211776733e-07 0 0
1574 1.171231269836426e-07 0 0
1575 1.171976327896118e-07 0 0
1576 1.172721385955811e-07 0 0
1577 1.173466444015503e-07 0 0
1578 1.174211502075195e-07 0 0
1579 1.174956560134888e-07 0 0
1580 1.17570161819458e-07 0 0
1581 1.176446676254273e-07 0 0
1582 1.177191734313965e-07 0 0
1583 1.177936792373657e-07 0 0
1584 1.17868185043335e-07 0 0
1585 1.179426908493042e-07 0 0
1586 1.180171966552734e-07 0 0
1587 1.180917024612427e-07 0 0
1588 1.181662082672119e-07 0 0
1589 1.182407140731812e-07 0 0
1590 1.183152198791504e-07 0 0
1591 1.183897256851196e-07 0 0
1592 1.184642314910889e-07 0 0
1593 1.185387372970581e-07 0 0
1594 1.186132431030273e-07 0 0
1595 1.186877489089966e-07 0 0
1596 1.187622547149658e-07 0 0
1597 1.188367605209351e-07 0 0
1598 1.189112663269043e-07 0 0
1599 1.189857721328735e-07 0 0
1600 1.190602779388428e-07 0 0
1601 1.19134783744812e-07 0 0
$EndNodes
$Elements
1602
1 15 2 1 1 1
2 15 2 2 2 2
3 1 2 3 1 1 3
4 1 2 3 1 3 4
5 1 2 3 1 4 5
6 1 2 3 1 5 6
7 1 2 3 1 6 7
8 1 2 3 1 7 8
9 1 2 3 1 8 9
10 1 2 3 1 9 10
11 1 2 3 1 10 11
12 1 2 3 1 11 12
13 1 2 3 1 12 13
14 1 2 3 1 13 14
15 1 2 3 1 14 15
16 1 2 3 1 15 16
17 1 2 3 1 16 17
18 1 2 3 1 17 18
19 1 2 3 1 18 19
20 1 2 3 1 19 20
21 1 2 3 1 20 21
22 1 2 3 1 21 22
23 1 2 3 1 22 23
24 1 2 3 1 23 24
25 1 2 3 1 24 25
26 1 2 3 1 25 26
27 1 2 3 1 26 27
28 1 2 3 1 27 28
29 1 2 3 1 28 29
30 1 2 3 1 29 30
31 1 2 3 1 30 31
32 1 2 3 1 31 32
33 1 2 3 1 32 33
34 1 2 3 1 33 34
35 1 2 3 1 34 35
36 1 2 3 1 35 36
37 1 2 3 1 36 37
38 1 2 3 1 37 38
39 1 2 3 1 38 39
40 1 2 3 1 39 40
41 1 2 3 1 40 41
42 1 2 3 1 41 42
43 1 2 3 1 42 43
44 1 2 3 1 43 44
45 1 2 3 1 44 45
46 1 2 3 1 45 46
47 1 2 3 1 46 47
48 1 2 3 1 47 48
49 1 2 3 1 48 49
50 1 2 3 1 49 50
51 1 2 3 1 50 51
52 1 2 3 1 51 52
53 1 2 3 1 52 53
54 1 2 3 1 53 54
55 1 2 3 1 54 55
56 1 2 3 1 55 56
57 1 2 3 1 56 57
58 1 2 3 1 57 58
59 1 2 3 1 58 59
60 1 2 3 1 59 60
61 1 2 3 1 60 61
62 1 2 3 1 61 62
63 1 2 3 1 62 63
64 1 2 3 1 63 64
65 1 2 3 1 64 65
66 1 2 3 1 65 66
67 1 2 3 1 66 67
68 1 2 3 1 67 68
69 1 2 3 1 68 69
70 1 2 3 1 69 70
71 1 2 3 1 70 71
72 1 2 3 1 71 72
73 1 2 3 1 72 73
74 1 2 3 1 73 74
75 1 2 3 1 74 75
76 1 2 3 1 75 76
77 1 2 3 1 76 77
78 1 2 3 1 77 78
79 1 2 3 1 78 79
80 1 2 3 1 79 80
81 1 2 3 1 80 81
82 1 2 3 1 81 82
83 1 2 3 1 82 83
84 1 2 3 1 83 84
85 1 2 3 1 84 85
86 1 2 3 1 85 86
87 1 2 3 1 86 87
88 1 2 3 1 87 88
89 1 2 3 1 88 89
90 1 2 3 1 89 90
91 1 2 3 1 90 91
92 1 2 3 1 91 92
93 1 2 3 1 92 93
94 1 2 3 1 93 94
95 1 2 3 1 94 95
96 1 2 3 1 95 96
97 1 2 3 1 96 97
98 1 2 3 1 97 98
99 1 2 3 1 98 99
100 1 2 3 1 99 100
101 1 2 3 1 100 101
102 1 2 3 1 101 102
103 1 2 3 1 102 103
104 1 2 3 1 103 104
105 1 2 3 1 104 105
106 1 2 3 1 105 106
107 1 2 3 1 106 107
108 1 2 3 1 107 108
109 1 2 3 1 108 109
110 1 2 3 1 109 110
111 1 2 3 1 110 111
112 1 2 3 1 111 112
113 1 2 3 1 112 113
114 1 2 3 1 113 114
115 1 2 3 1 114 115
116 1 2 3 1 115 116
117 1 2 3 1 116 117
118 1 2 3 1 117 118
119 1 2 3 1 118 119
120 1 2 3 1 119 120
121 1 2 3 1 120 121
122 1 2 3 1 121 122
123 1 2 3 1 122 123
124 1 2 3 1 123 124
125 1 2 3 1 124 125
126 1 2 3 1 125 126
127 1 2 3 1 126 127
128 1 2 3 1 127 128
129 1 2 3 1 128 129
130 1 2 3 1 129 130
131 1 2 3 1 130 131
132 1 2 3 1 131 132
133 1 2 3 1 132 133
134 1 2 3 1 133 134
135 1 2 3 1 134 135
136 1 2 3 1 135 136
137 1 2 3 1 136 137
138 1 2 3 1 137 138
139 1 2 3 1 138 139
140 1 2 3 1 139 140
141 1 2 3 1 140 141
142 1 2 3 1 141 142
143 1 2 3 1 142 143
144 1 2 3 1 143 144
145 1 2 3 1 144 145
146 1 2 3 1 145 146
147 1 2 3 1 146 147
148 1 2 3 1 147 148
149 1 2 3 1 148 149
150 1 2 3 1 149 150
151 1 2 3 1 150 151
152 1 2 3 1 151 152
153 1 2 3 1 152 153
154 1 2 3 1 153 154
155 1 2 3 1 154 155
156 1 2 3 1 155 156
157 1 2 3 1 156 157
158 1 2 3 1 157 158
159 1 2 3 1 158 159
160 1 2 3 1 159 160
161 1 2 3 1 160 161
162 1 2 3 1 161 162
163 1 2 3 1 162 163
164 1 2 3 1 163 164
165 1 2 3 1 164 165
166 1 2 3 1 165 166
167 1 2 3 1 166 167
168 1 2 3 1 167 168
169 1 2 3 1 168 169
170 1 2 3 1 169 170
171 1 2 3 1 170 171
172 1 2 3 1 171 172
173 1 2 3 1 172 173
174 1 2 3 1 173 174
175 1 2 3 1 174 175
176 1 2 3 1 175 176
177 1 2 3 1 176 177
178 1 2 3 1 177 178
179 1 2 3 1 178 179
180 1 2 3 1 179 180
181 1 2 3 1 180 181
182 1 2 3 1 181 182
183 1 2 3 1 182 183
184 1 2 3 1 183 184
185 1 2 3 1 184 185
186 1 2 3 1 185 186
187 1 2 3 1 186 187
188 1 2 3 1 187 188
189 1 2 3 1 188 189
190 1 2 3 1 189 190
191 1 2 3 1 190 191
192 1 2 3 1 191 192
193 1 2 3 1 192 193
194 1 2 3 1 193 194
195 1 2 3 1 194 195
196 1 2 3 1 195 196
197 1 2 3 1 196 197
198 1 2 3 1 197 198
199 1 2 3 1 198 199
200 1 2 3 1 199 200
201 1 2 3 1 200 201
202 1 2 3 1 201 202
203 1 2 3 1 202 203
204 1 2 3 1 203 204
205 1 2 3 1 204 205
206 1 2 3 1 205 206
207 1 2 3 1 206 207
208 1 2 3 1 207 208
209 1 2 3 1 208 209
210 1 2 3 1 209 210
211 1 2 3 1 210 211
212 1 2 3 1 211 212
213 1 2 3 1 212 213
214 1 2 3 1 213 214
215 1 2 3 1 214 215
216 1 2 3 1 215 216
217 1 2 3 1 216 217
218 1 2 3 1 217 218
219 1 2 3 1 218 219
220 1 2 3 1 219 220
221 1 2 3 1 220 221
222 1 2 3 1 221 222
223 1 2 3 1 222 223
224 1 2 3 1 223 224
225 1 2 3 1 224 225
226 1 2 3 1 225 226
227 1 2 3 1 226 227
228 1 2 3 1 227 228
229 1 2 3 1 228 229
230 1 2 3 1 229 230
231 1 2 3 1 230 231
232 1 2 3 1 231 232
233 1 2 3 1 232 233
234 1 2 3 1 233 234
235 1 2 3 1 234 235
236 1 2 3 1 235 236
237 1 2 3 1 236 237
238 1 2 3 1 237 238
239 1 2 3 1 238 239
240 1 2 3 1 239 240
241 1 2 3 1 240 241
242 1 2 3 1 241 242
243 1 2 3 1 242 243
244 1 2 3 1 243 244
245 1 2 3 1 244 245
246 1 2 3 1 245 246
247 1 2 3 1 246 247
248 1 2 3 1 247 248
249 1 2 3 1 248 249
250 1 2 3 1 249 250
251 1 2 3 1 250 251
252 1 2 3 1 251 252
253 1 2 3 1 252 253
254 1 2 3 1 253 254
255 1 2 3 1 254 255
256 1 2 3 1 255 256
257 1 2 3 1 256 257
258 1 2 3 1 257 258
259 1 2 3 1 258 259
260 1 2 3 1 259 260
261 1 2 3 1 260 261
262 1 2 3 1 261 262
263 1 2 3 1 262 263
264 1 2 3 1 263 264
265 1 2 3 1 264 265
266 1 2 3 1 265 266
267 1 2 3 1 266 267
268 1 2 3 1 267 268
269 1 2 3 1 268 269
270 1 2 3 1 269 270
271 1 2 3 1 270 271
272 1 2 3 1 271 272
273 1 2 3 1 272 273
274 1 2 3 1 273 274
275 1 2 3 1 274 275
276 1 2 3 1 275 276
277 1 2 3 1 276 277
278 1 2 3 1 277 278
279 1 2 3 1 278 279
280 1 2 3 1 279 280
281 1 2 3 1 280 281
282 1 2 3 1 281 282
283 1 2 3 1 282 283
284 1 2 3 1 283 284
285 1 2 3 1 284 285
286 1 2 3 1 285 286
287 1 2 3 1 286 287
288 1 2 3 1 287 288
289 1 2 3 1 288 289
290 1 2 3 1 289 290
291 1 2 3 1 290 291
292 1 2 3 1 291 292
293 1 2 3 1 292 293
294 1 2 3 1 293 294
295 1 2 3 1 294 295
296 1 2 3 1 295 296
297 1 2 3 1 296 297
298 1 2 3 1 297 298
299 1 2 3 1 298 299
300 1 2 3 1 299 300
301 1 2 3 1 300 301
302 1 2 3 1 301 302
303 1 2 3 1 302 303
304 1 2 3 1 303 304
305 1 2 3 1 304 305
306 1 2 3 1 305 306
307 1 2 3 1 306 307
308 1 2 3 1 307 308
309 1 2 3 1 308 309
310 1 2 3 1 309 310
311 1 2 3 1 310 311
312 1 2 3 1 311 312
313 1 2 3 1 312 313
314 1 2 3 1 313 314
315 1 2 3 1 314 315
316 1 2 3 1 315 316
317 1 2 3 1 316 317
318 1 2 3 1 317 318
319 1 2 3 1 318 319
320 1 2 3 1 319 320
321 1 2 3 1 320 321
322 1 2 3 1 321 322
323 1 2 3 1 322 323
324 1 2 3 1 323 324
325 1 2 3 1 324 325
326 1 2 3 1 325 326
327 1 2 3 1 326 327
328 1 2 3 1 327 328
329 1 2 3 1 328 329
330 1 2 3 1 329 330
331 1 2 3 1 330 331
332 1 2 3 1 331 332
333 1 2 3 1 332 333
334 1 2 3 1 333 334
335 1 2 3 1 334 335
336 1 2 3 1 335 336
337 1 2 3 1 336 337
338 1 2 3 1 337 338
339 1 2 3 1 338 339
340 1 2 3 1 339 340
341 1 2 3 1 340 341
342 1 2 3 1 341 342
343 1 2 3 1 342 343
344 1 2 3 1 343 344
345 1 2 3 1 344 345
346 1 2 3 1 345 346
347 1 2 3 1 346 347
348 1 2 3 1 347 348
349 1 2 3 1 348 349
350 1 2 3 1 349 350
351 1 2 3 1 350 351
352 1 2 3 1 351 352
353 1 2 3 1 352 353
354 1 2 3 1 353 354
355 1 2 3 1 354 355
356 1 2 3 1 355 356
357 1 2 3 1 356 357
358 1 2 3 1 357 358
359 1 2 3 1 358 359
360 1 2 3 1 359 360
361 1 2 3 1 360 361
362 1 2 3 1 361 362
363 1 2 3 1 362 363
364 1 2 3 1 363 364
365 1 2 3 1 364 365
366 1 2 3 1 365 366
367 1 2 3 1 366 367
368 1 2 3 1 367 368
369 1 2 3 1 368 369
370 1 2 3 1 369 370
371 1 2 3 1 370 371
372 1 2 3 1 371 372
373 1 2 3 1 372 373
374 1 2 3 1 373 374
375 1 2 3 1 374 375
376 1 2 3 1 375 376
377 1 2 3 1 376 377
378 1 2 3 1 377 378
379 1 2 3 1 378 379
380 1 2 3 1 379 380
381 1 2 3 1 380 381
382 1 2 3 1 381 382
383 1 2 3 1 382 383
384 1 2 3 1 383 384
385 1 2 3 1 384 385
386 1 2 3 1 385 386
387 1 2 3 1 386 387
388 1 2 3 1 387 388
389 1 2 3 1 388 389
390 1 2 3 1 389 390
391 1 2 3 1 390 391
392 1 2 3 1 391 392
393 1 2 3 1 392 393
394 1 2 3 1 393 394
395 1 2 3 1 394 395
396 1 2 3 1 395 396
397 1 2 3 1 396 397
398 1 2 3 1 397 398
399 1 2 3 1 398 399
400 1 2 3 1 399 400
401 1 2 3 1 400 401
402 1 2 3 1 401 402
403 1 2 3 1 402 403
404 1 2 3 1 403 404
405 1 2 3 1 404 405
406 1 2 3 1 405 406
407 1 2 3 1 406 407
408 1 2 3 1 407 408
409 1 2 3 1 408 409
410 1 2 3 1 409 410
411 1 2 3 1 410 411
412 1 2 3 1 411 412
413 1 2 3 1 412 413
414 1 2 3 1 413 414
415 1 2 3 1 414 415
416 1 2 3 1 415 416
417 1 2 3 1 416 417
418 1 2 3 1 417 418
419 1 2 3 1 418 419
420 1 2 3 1 419 420
421 1 2 3 1 420 421
422 1 2 3 1 421 422
423 1 2 3 1 422 423
424 1 2 3 1 423 424
425 1 2 3 1 424 425
426 1 2 3 1 425 426
427 1 2 3 1 426 427
428 1 2 3 1 427 428
429 1 2 3 1 428 429
430 1 2 3 1 429 430
431 1 2 3 1 430 431
432 1 2 3 1 431 432
433 1 2 3 1 432 433
434 1 2 3 1 433 434
435 1 2 3 1 434 435
436 1 2 3 1 435 436
437 1 2 3 1 436 437
438 1 2 3 1 437 438
439 1 2 3 1 438 439
440 1 2 3 1 439 440
441 1 2 3 1 440 441
442 1 2 3 1 441 442
443 1 2 3 1 442 443
444 1 2 3 1 443 444
445 1 2 3 1 444 445
446 1 2 3 1 445 446
447 1 2 3 1 446 447
448 1 2 3 1 447 448
449 1 2 3 1 448 449
450 1 2 3 1 449 450
451 1 2 3 1 450 451
452 1 2 3 1 451 452
453 1 2 3 1 452 453
454 1 2 3 1 453 454
455 1 2 3 1 454 455
456 1 2 3 1 455 456
457 1 2 3 1 456 457
458 1 2 3 1 457 458
459 1 2 3 1 458 459
460 1 2 3 1 459 460
461 1 2 3 1 460 461
462 1 2 3 1 461 462
463 1 2 3 1 462 463
464 1 2 3 1 463 464
465 1 2 3 1 464 465
466 1 2 3 1 465 466
467 1 2 3 1 466 467
468 1 2 3 1 467 468
469 1 2 3 1 468 469
470 1 2 3 1 469 470
471 1 2 3 1 470 471
472 1 2 3 1 471 472
473 1 2 3 1 472 473
474 1 2 3 1 473 474
475 1 2 3 1 474 475
476 1 2 3 1 475 476
477 1 2 3 1 476 477
478 1 2 3 1 477 478
479 1 2 3 1 478 479
480 1 2 3 1 479 480
481 1 2 3 1 480 481
482 1 2 3 1 481 482
483 1 2 3 1 482 483
484 1 2 3 1 483 484
485 1 2 3 1 484 485
486 1 2 3 1 485 486
487 1 2 3 1 486 487
488 1 2 3 1 487 488
489 1 2 3 1 488 489
490 1 2 3 1 489 490
491 1 2 3 1 490 491
492 1 2 3 1 491 492
493 1 2 3 1 492 493
494 1 2 3 1 493 494
495 1 2 3 1 494 495
496 1 2 3 1 495 496
497 1 2 3 1 496 497
498 1 2 3 1 497 498
499 1 2 3 1 498 499
500 1 2 3 1 499 500
501 1 2 3 1 500 501
502 1 2 3 1 501 502
503 1 2 3 1 502 503
504 1 2 3 1 503 504
505 1 2 3 1 504 505
506 1 2 3 1 505 506
507 1 2 3 1 506 507
508 1 2 3 1 507 508
509 1 2 3 1 508 509
510 1 2 3 1 509 510
511 1 2 3 1 510 511
512 1 2 3 1 511 512
513 1 2 3 1 512 513
514 1 2 3 1 513 514
515 1 2 3 1 514 515
516 1 2 3 1 515 516
517 1 2 3 1 516 517
518 1 2 3 1 517 518
519 1 2 3 1 518 519
520 1 2 3 1 519 520
521 1 2 3 1 520 521
522 1 2 3 1 521 522
523 1 2 3 1 522 523
524 1 2 3 1 523 524
525 1 2 3 1 524 525
526 1 2 3 1 525 526
527 1 2 3 1 526 527
528 1 2 3 1 527 528
529 1 2 3 1 528 529
530 1 2 3 1 529 530
531 1 2 3 1 530 531
532 1 2 3 1 531 532
533 1 2 3 1 532 533
534 1 2 3 1 533 534
535 1 2 3 1 534 535
536 1 2 3 1 535 536
537 1 2 3 1 536 537
538 1 2 3 1 537 538
539 1 2 3 1 538 539
540 1 2 3 1 539 540
541 1 2 3 1 540 541
542 1 2 3 1 541 542
543 1 2 3 1 542 543
544 1 2 3 1 543 544
545 1 2 3 1 544 545
546 1 2 3 1 545 546
547 1 2 3 1 546 547
548 1 2 3 1 547 548
549 1 2 3 1 548 549
550 1 2 3 1 549 550
551 1 2 3 1 550 551
552 1 2 3 1 551 552
553 1 2 3 1 552 553
554 1 2 3 1 553 554
555 1 2 3 1 554 555
556 1 2 3 1 555 556
557 1 2 3 1 556 557
558 1 2 3 1 557 558
559 1 2 3 1 558 559
560 1 2 3 1 559 560
561 1 2 3 1 560 561
562 1 2 3 1 561 562
563 1 2 3 1 562 563
564 1 2 3 1 563 564
565 1 2 3 1 564 565
566 1 2 3 1 565 566
567 1 2 3 1 566 567
568 1 2 3 1 567 568
569 1 2 3 1 568 569
570 1 2 3 1 569 570
571 1 2 3 1 570 571
572 1 2 3 1 571 572
573 1 2 3 1 572 573
574 1 2 3 1 573 574
575 1 2 3 1 574 575
576 1 2 3 1 575 576
577 1 2 3 1 576 577
578 1 2 3 1 577 578
579 1 2 3 1 578 579
580 1 2 3 1 579 580
581 1 2 3 1 580 581
582 1 2 3 1 581 582
583 1 2 3 1 582 583
584 1 2 3 1 583 584
585 1 2 3 1 584 585
586 1 2 3 1 585 586
587 1 2 3 1 586 587
588 1 2 3 1 587 588
589 1 2 3 1 588 589
590 1 2 3 1 589 590
591 1 2 3 1 590 591
592 1 2 3 1 591 592
593 1 2 3 1 592 593
594 1 2 3 1 593 594
595 1 2 3 1 594 595
596 1 2 3 1 595 596
597 1 2 3 1 596 597
598 1 2 3 1 597 598
599 1 2 3 1 598 599
600 1 2 3 1 599 600
601 1 2 3 1 600 601
602 1 2 3 1 601 602
603 1 2 3 1 602 603
604 1 2 3 1 603 604
605 1 2 3 1 604 605
606 1 2 3 1 605 606
607 1 2 3 1 606 607
608 1 2 3 1 607 608
609 1 2 3 1 608 609
610 1 2 3 1 609 610
611 1 2 3 1 610 611
612 1 2 3 1 611 612
613 1 2 3 1 612 613
614 1 2 3 1 613 614
615 1 2 3 1 614 615
616 1 2 3 1 615 616
617 1 2 3 1 616 617
618 1 2 3 1 617 618
619 1 2 3 1 618 619
620 1 2 3 1 619 620
621 1 2 3 1 620 621
622 1 2 3 1 621 622
623 1 2 3 1 622 623
624 1 2 3 1 623 624
625 1 2 3 1 624 625
626 1 2 3 1 625 626
627 1 2 3 1 626 627
628 1 2 3 1 627 628
629 1 2 3 1 628 629
630 1 2 3 1 629 630
631 1 2 3 1 630 631
632 1 2 3 1 631 632
633 1 2 3 1 632 633
634 1 2 3 1 633 634
635 1 2 3 1 634 635
636 1 2 3 1 635 636
637 1 2 3 1 636 637
638 1 2 3 1 637 638
639 1 2 3 1 638 639
640 1 2 3 1 639 640
641 1 2 3 1 640 641
642 1 2 3 1 641 642
643 1 2 3 1 642 643
644 1 2 3 1 643 644
645 1 2 3 1 644 645
646 1 2 3 1 645 646
647 1 2 3 1 646 647
648 1 2 3 1 647 648
649 1 2 3 1 648 649
650 1 2 3 1 649 650
651 1 2 3 1 650 651
652 1 2 3 1 651 652
653 1 2 3 1 652 653
654 1 2 3 1 653 654
655 1 2 3 1 654 655
656 1 2 3 1 655 656
657 1 2 3 1 656 657
658 1 2 3 1 657 658
659 1 2 3 1 658 659
660 1 2 3 1 659 660
661 1 2 3 1 660 661
662 1 2 3 1 661 662
663 1 2 3 1 662 663
664 1 2 3 1 663 664
665 1 2 3 1 664 665
666 1 2 3 1 665 666
667 1 2 3 1 666 667
668 1 2 3 1 667 668
669 1 2 3 1 668 669
670 1 2 3 1 669 670
671 1 2 3 1 670 671
672 1 2 3 1 671 672
673 1 2 3 1 672 673
674 1 2 3 1 673 674
675 1 2 3 1 674 675
676 1 2 3 1 675 676
677 1 2 3 1 676 677
678 1 2 3 1 677 678
679 1 2 3 1 678 679
680 1 2 3 1 679 680
681 1 2 3 1 680 681
682 1 2 3 1 681 682
683 1 2 3 1 682 683
684 1 2 3 1 683 684
685 1 2 3 1 684 685
686 1 2 3 1 685 686
687 1 2 3 1 686 687
688 1 2 3 1 687 688
689 1 2 3 1 688 689
690 1 2 3 1 689 690
691 1 2 3 1 690 691
692 1 2 3 1 691 692
693 1 2 3 1 692 693
694 1 2 3 1 693 694
695 1 2 3 1 694 695
696 1 2 3 1 695 696
697 1 2 3 1 696 697
698 1 2 3 1 697 698
699 1 2 3 1 698 699
700 1 2 3 1 699 700
701 1 2 3 1 700 701
702 1 2 3 1 701 702
703 1 2 3 1 702 703
704 1 2 3 1 703 704
705 1 2 3 1 704 705
706 1 2 3 1 705 706
707 1 2 3 1 706 707
708 1 2 3 1 707 708
709 1 2 3 1 708 709
710 1 2 3 1 709 710
711 1 2 3 1 710 711
712 1 2 3 1 711 712
713 1 2 3 1 712 713
714 1 2 3 1 713 714
715 1 2 3 1 714 715
716 1 2 3 1 715 716
717 1 2 3 1 716 717
718 1 2 3 1 717 718
719 1 2 3 1 718 719
720 1 2 3 1 719 720
721 1 2 3 1 720 721
722 1 2 3 1 721 722
723 1 2 3 1 722 723
724 1 2 3 1 723 724
725 1 2 3 1 724 725
726 1 2 3 1 725 726
727 1 2 3 1 726 727
728 1 2 3 1 727 728
729 1 2 3 1 728 729
730 1 2 3 1 729 730
731 1 2 3 1 730 731
732 1 2 3 1 731 732
733 1 2 3 1 732 733
734 1 2 3 1 733 734
735 1 2 3 1 734 735
736 1 2 3 1 735 736
737 1 2 3 1 736 737
738 1 2 3 1 737 738
739 1 2 3 1 738 739
740 1 2 3 1 739 740
741 1 2 3 1 740 741
742 1 2 3 1 741 742
743 1 2 3 1 742 743
744 1 2 3 1 743 744
745 1 2 3 1 744 745
746 1 2 3 1 745 746
747 1 2 3 1 746 747
748 1 2 3 1 747 748
749 1 2 3 1 748 749
750 1 2 3 1 749 750
751 1 2 3 1 750 751
752 1 2 3 1 751 752
753 1 2 3 1 752 753
754 1 2 3 1 753 754
755 1 2 3 1 754 755
756 1 2 3 1 755 756
757 1 2 3 1 756 757
758 1 2 3 1 757 758
759 1 2 3 1 758 759
760 1 2 3 1 759 760
761 1 2 3 1 760 761
762 1 2 3 1 761 762
763 1 2 3 1 762 763
764 1 2 3 1 763 764
765 1 2 3 1 764 765
766 1 2 3 1 765 766
767 1 2 3 1 766 767
768 1 2 3 1 767 768
769 1 2 3 1 768 769
770 1 2 3 1 769 770
771 1 2 3 1 770 771
772 1 2 3 1 771 772
773 1 2 3 1 772 773
774 1 2 3 1 773 774
775 1 2 3 1 774 775
776 1 2 3 1 775 776
777 1 2 3 1 776 777
778 1 2 3 1 777 778
779 1 2 3 1 778 779
780 1 2 3 1 779 780
781 1 2 3 1 780 781
782 1 2 3 1 781 782
783 1 2 3 1 782 783
784 1 2 3 1 783 784
785 1 2 3 1 784 785
786 1 2 3 1 785 786
787 1 2 3 1 786 787
788 1 2 3 1 787 788
789 1 2 3 1 788 789
790 1 2 3 1 789 790
791 1 2 3 1 790 791
792 1 2 3 1 791 792
793 1 2 3 1 792 793
794 1 2 3 1 793 794
795 1 2 3 1 794 795
796 1 2 3 1 795 796
797 1 2 3 1 796 797
798 1 2 3 1 797 798
799 1 2 3 1 798 799
800 1 2 3 1 799 800
801 1 2 3 1 800 801
802 1 2 3 1 801 802
803 1 2 3 1 802 803
804 1 2 3 1 803 804
805 1 2 3 1 804 805
806 1 2 3 1 805 806
807 1 2 3 1 806 807
808 1 2 3 1 807 808
809 1 2 3 1 808 809
810 1 2 3 1 809 810
811 1 2 3 1 810 811
812 1 2 3 1 811 812
813 1 2 3 1 812 813
814 1 2 3 1 813 814
815 1 2 3 1 814 815
816 1 2 3 1 815 816
817 1 2 3 1 816 817
818 1 2 3 1 817 818
819 1 2 3 1 818 819
820 1 2 3 1 819 820
821 1 2 3 1 820 821
822 1 2 3 1 821 822
823 1 2 3 1 822 823
824 1 2 3 1 823 824
825 1 2 3 1 824 825
826 1 2 3 1 825 826
827 1 2 3 1 826 827
828 1 2 3 1 827 828
829 1 2 3 1 828 829
830 1 2 3 1 829 830
831 1 2 3 1 830 831
832 1 2 3 1 831 832
833 1 2 3 1 832 833
834 1 2 3 1 833 834
835 1 2 3 1 834 835
836 1 2 3 1 835 836
837 1 2 3 1 836 837
838 1 2 3 1 837 838
839 1 2 3 1 838 839
840 1 2 3 1 839 840
841 1 2 3 1 840 841
842 1 2 3 1 841 842
843 1 2 3 1 842 843
844 1 2 3 1 843 844
845 1 2 3 1 844 845
846 1 2 3 1 845 846
847 1 2 3 1 846 847
848 1 2 3 1 847 848
849 1 2 3 1 848 849
850 1 2 3 1 849 850
851 1 2 3 1 850 851
852 1 2 3 1 851 852
853 1 2 3 1 852 853
854 1 2 3 1 853 854
855 1 2 3 1 854 855
856 1 2 3 1 855 856
857 1 2 3 1 856 857
858 1 2 3 1 857 858
859 1 2 3 1 858 859
860 1 2 3 1 859 860
861 1 2 3 1 860 861
862 1 2 3 1 861 862
863 1 2 3 1 862 863
864 1 2 3 1 863 864
865 1 2 3 1 864 865
866 1 2 3 1 865 866
867 1 2 3 1 866 867
868 1 2 3 1 867 868
869 1 2 3 1 868 869
870 1 2 3 1 869 870
871 1 2 3 1 870 871
872 1 2 3 1 871 872
873 1 2 3 1 872 873
874 1 2 3 1 873 874
875 1 2 3 1 874 875
876 1 2 3 1 875 876
877 1 2 3 1 876 877
878 1 2 3 1 877 878
879 1 2 3 1 878 879
880 1 2 3 1 879 880
881 1 2 3 1 880 881
882 1 2 3 1 881 882
883 1 2 3 1 882 883
884 1 2 3 1 883 884
885 1 2 3 1 884 885
886 1 2 3 1 885 886
887 1 2 3 1 886 887
888 1 2 3 1 887 888
889 1 2 3 1 888 889
890 1 2 3 1 889 890
891 1 2 3 1 890 891
892 1 2 3 1 891 892
893 1 2 3 1 892 893
894 1 2 3 1 893 894
895 1 2 3 1 894 895
896 1 2 3 1 895 896
897 1 2 3 1 896 897
898 1 2 3 1 897 898
899 1 2 3 1 898 899
900 1 2 3 1 899 900
901 1 2 3 1 900 901
902 1 2 3 1 901 902
903 1 2 3 1 902 903
904 1 2 3 1 903 904
905 1 2 3 1 904 905
906 1 2 3 1 905 906
907 1 2 3 1 906 907
908 1 2 3 1 907 908
909 1 2 3 1 908 909
910 1 2 3 1 909 910
911 1 2 3 1 910 911
912 1 2 3 1 911 912
913 1 2 3 1 912 913
914 1 2 3 1 913 914
915 1 2 3 1 914 915
916 1 2 3 1 915 916
917 1 2 3 1 916 917
918 1 2 3 1 917 918
919 1 2 3 1 918 919
920 1 2 3 1 919 920
921 1 2 3 1 920 921
922 1 2 3 1 921 922
923 1 2 3 1 922 923
924 1 2 3 1 923 924
925 1 2 3 1 924 925
926 1 2 3 1 925 926
927 1 2 3 1 926 927
928 1 2 3 1 927 928
929 1 2 3 1 928 929
930 1 2 3 1 929 930
931 1 2 3 1 930 931
932 1 2 3 1 931 932
933 1 2 3 1 932 933
934 1 2 3 1 933 934
935 1 2 3 1 934 935
936 1 2 3 1 935 936
937 1 2 3 1 936 937
938 1 2 3 1 937 938
939 1 2 3 1 938 939
940 1 2 3 1 939 940
941 1 2 3 1 940 941
942 1 2 3 1 941 942
943 1 2 3 1 942 943
944 1 2 3 1 943 944
945 1 2 3 1 944 945
946 1 2 3 1 945 946
947 1 2 3 1 946 947
948 1 2 3 1 947 948
949 1 2 3 1 948 949
950 1 2 3 1 949 950
951 1 2 3 1 950 951
952 1 2 3 1 951 952
953 1 2 3 1 952 953
954 1 2 3 1 953 954
955 1 2 3 1 954 955
956 1 2 3 1 955 956
957 1 2 3 1 956 957
958 1 2 3 1 957 958
959 1 2 3 1 958 959
960 1 2 3 1 959 960
961 1 2 3 1 960 961
962 1 2 3 1 961 962
963 1 2 3 1 962 963
964 1 2 3 1 963 964
965 1 2 3 1 964 965
966 1 2 3 1 965 966
967 1 2 3 1 966 967
968 1 2 3 1 967 968
969 1 2 3 1 968 969
970 1 2 3 1 969 970
971 1 2 3 1 970 971
972 1 2 3 1 971 972
973 1 2 3 1 972 973
974 1 2 3 1 973 974
975 1 2 3 1 974 975
976 1 2 3 1 975 976
977 1 2 3 1 976 977
978 1 2 3 1 977 978
979 1 2 3 1 978 979
980 1 2 3 1 979 980
981 1 2 3 1 980 981
982 1 2 3 1 981 982
983 1 2 3 1 982 983
984 1 2 3 1 983 984
985 1 2 3 1 984 985
986 1 2 3 1 985 986
987 1 2 3 1 986 987
988 1 2 3 1 987 988
989 1 2 3 1 988 989
990 1 2 3 1 989 990
991 1 2 3 1 990 991
992 1 2 3 1 991 992
993 1 2 3 1 992 993
994 1 2 3 1 993 994
995 1 2 3 1 994 995
996 1 2 3 1 995 996
997 1 2 3 1 996 997
998 1 2 3 1 997 998
999 1 2 3 1 998 999
1000 1 2 3 1 999 1000
1001 1 2 3 1 1000 1001
1002 1 2 3 1 1001 1002
1003 1 2 3 1 1002 1003
1004 1 2 3 1 1003 1004
1005 1 2 3 1 1004 1005
1006 1 2 3 1 1005 1006
1007 1 2 3 1 1006 1007
1008 1 2 3 1 1007 1008
1009 1 2 3 1 1008 1009
1010 1 2 3 1 1009 1010
1011 1 2 3 1 1010 1011
1012 1 2 3 1 1011 1012
1013 1 2 3 1 1012 1013
1014 1 2 3 1 1013 1014
1015 1 2 3 1 1014 1015
1016 1 2 3 1 1015 1016
1017 1 2 3 1 1016 1017
1018 1 2 3 1 1017 1018
1019 1 2 3 1 1018 1019
1020 1 2 3 1 1019 1020
1021 1 2 3 1 1020 1021
1022 1 2 3 1 1021 1022
1023 1 2 3 1 1022 1023
1024 1 2 3 1 1023 1024
1025 1 2 3 1 1024 1025
1026 1 2 3 1 1025 1026
1027 1 2 3 1 1026 1027
1028 1 2 3 1 1027 1028
1029 1 2 3 1 1028 1029
1030 1 2 3 1 1029 1030
1031 1 2 3 1 1030 1031
1032 1 2 3 1 1031 1032
1033 1 2 3 1 1032 1033
1034 1 2 3 1 1033 1034
1035 1 2 3 1 1034 1035
1036 1 2 3 1 1035 1036
1037 1 2 3 1 1036 1037
1038 1 2 3 1 1037 1038
1039 1 2 3 1 1038 1039
1040 1 2 3 1 1039 1040
1041 1 2 3 1 1040 1041
1042 1 2 3 1 1041 1042
1043 1 2 3 1 1042 1043
1044 1 2 3 1 1043 1044
1045 1 2 3 1 1044 1045
1046 1 2 3 1 1045 1046
1047 1 2 3 1 1046 1047
1048 1 2 3 1 1047 1048
1049 1 2 3 1 1048 1049
1050 1 2 3 1 1049 1050
1051 1 2 3 1 1050 1051
1052 1 2 3 1 1051 1052
1053 1 2 3 1 1052 1053
1054 1 2 3 1 1053 1054
1055 1 2 3 1 1054 1055
1056 1 2 3 1 1055 1056
1057 1 2 3 1 1056 1057
1058 1 2 3 1 1057 1058
1059 1 2 3 1 1058 1059
1060 1 2 3 1 1059 1060
1061 1 2 3 1 1060 1061
1062 1 2 3 1 1061 1062
1063 1 2 3 1 1062 1063
1064 1 2 3 1 1063 1064
1065 1 2 3 1 1064 1065
1066 1 2 3 1 1065 1066
1067 1 2 3 1 1066 1067
1068 1 2 3 1 1067 1068
1069 1 2 3 1 1068 1069
1070 1 2 3 1 1069 1070
1071 1 2 3 1 1070 1071
1072 1 2 3 1 1071 1072
1073 1 2 3 1 1072 1073
1074 1 2 3 1 1073 1074
1075 1 2 3 1 1074 1075
1076 1 2 3 1 1075 1076
1077 1 2 3 1 1076 1077
1078 1 2 3 1 1077 1078
1079 1 2 3 1 1078 1079
1080 1 2 3 1 1079 1080
1081 1 2 3 1 1080 1081
1082 1 2 3 1 1081 1082
1083 1 2 3 1 1082 1083
1084 1 2 3 1 1083 1084
1085 1 2 3 1 1084 1085
1086 1 2 3 1 1085 1086
1087 1 2 3 1 1086 1087
1088 1 2 3 1 1087 1088
1089 1 2 3 1 1088 1089
1090 1 2 3 1 1089 1090
1091 1 2 3 1 1090 1091
1092 1 2 3 1 1091 1092
1093 1 2 3 1 1092 1093
1094 1 2 3 1 1093 1094
1095 1 2 3 1 1094 1095
1096 1 2 3 1 1095 1096
1097 1 2 3 1 1096 1097
1098 1 2 3 1 1097 1098
1099 1 2 3 1 1098 1099
1100 1 2 3 1 1099 1100
1101 1 2 3 1 1100 1101
1102 1 2 3 1 1101 1102
1103 1 2 3 1 1102 1103
1104 1 2 3 1 1103 1104
1105 1 2 3 1 1104 1105
1106 1 2 3 1 1105 1106
1107 1 2 3 1 1106 1107
1108 1 2 3 1 1107 1108
1109 1 2 3 1 1108 1109
1110 1 2 3 1 1109 1110
1111 1 2 3 1 1110 1111
1112 1 2 3 1 1111 1112
1113 1 2 3 1 1112 1113
1114 1 2 3 1 1113 1114
1115 1 2 3 1 1114 1115
1116 1 2 3 1 1115 1116
1117 1 2 3 1 1116 1117
1118 1 2 3 1 1117 1118
1119 1 2 3 1 1118 1119
1120 1 2 3 1 1119 1120
1121 1 2 3 1 1120 1121
1122 1 2 3 1 1121 1122
1123 1 2 3 1 1122 1123
1124 1 2 3 1 1123 1124
1125 1 2 3 1 1124 1125
1126 1 2 3 1 1125 1126
1127 1 2 3 1 1126 1127
1128 1 2 3 1 1127 1128
1129 1 2 3 1 1128 1129
1130 1 2 3 1 1129 1130
1131 1 2 3 1 1130 1131
1132 1 2 3 1 1131 1132
1133 1 2 3 1 1132 1133
1134 1 2 3 1 1133 1134
1135 1 2 3 1 1134 1135
1136 1 2 3 1 1135 1136
1137 1 2 3 1 1136 1137
1138 1 2 3 1 1137 1138
1139 1 2 3 1 1138 1139
1140 1 2 3 1 1139 1140
1141 1 2 3 1 1140 1141
1142 1 2 3 1 1141 1142
1143 1 2 3 1 1142 1143
1144 1 2 3 1 1143 1144
1145 1 2 3 1 1144 1145
1146 1 2 3 1 1145 1146
1147 1 2 3 1 1146 1147
1148 1 2 3 1 1147 1148
1149 1 2 3 1 1148 1149
1150 1 2 3 1 1149 1150
1151 1 2 3 1 1150 1151
1152 1 2 3 1 1151 1152
1153 1 2 3 1 1152 1153
1154 1 2 3 1 1153 1154
1155 1 2 3 1 1154 1155
1156 1 2 3 1 1155 1156
1157 1 2 3 1 1156 1157
1158 1 2 3 1 1157 1158
1159 1 2 3 1 1158 1159
1160 1 2 3 1 1159 1160
1161 1 2 3 1 1160 1161
1162 1 2 3 1 1161 1162
1163 1 2 3 1 1162 1163
1164 1 2 3 1 1163 1164
1165 1 2 3 1 1164 1165
1166 1 2 3 1 1165 1166
1167 1 2 3 1 1166 1167
1168 1 2 3 1 1167 1168
1169 1 2 3 1 1168 1169
1170 1 2 3 1 1169 1170
1171 1 2 3 1 1170 1171
1172 1 2 3 1 1171 1172
1173 1 2 3 1 1172 1173
1174 1 2 3 1 1173 1174
1175 1 2 3 1 1174 1175
1176 1 2 3 1 1175 1176
1177 1 2 3 1 1176 1177
1178 1 2 3 1 1177 1178
1179 1 2 3 1 1178 1179
1180 1 2 3 1 1179 1180
1181 1 2 3 1 1180 1181
1182 1 2 3 1 1181 1182
1183 1 2 3 1 1182 1183
1184 1 2 3 1 1183 1184
1185 1 2 3 1 1184 1185
1186 1 2 3 1 1185 1186
1187 1 2 3 1 1186 1187
1188 1 2 3 1 1187 1188
1189 1 2 3 1 1188 1189
1190 1 2 3 1 1189 1190
1191 1 2 3 1 1190 1191
1192 1 2 3 1 1191 1192
1193 1 2 3 1 1192 1193
1194 1 2 3 1 1193 1194
1195 1 2 3 1 1194 1195
1196 1 2 3 1 1195 1196
1197 1 2 3 1 1196 1197
1198 1 2 3 1 1197 1198
1199 1 2 3 1 1198 1199
1200 1 2 3 1 1199 1200
1201 1 2 3 1 1200 1201
1202 1 2 3 1 1201 1202
1203 1 2 3 1 1202 1203
1204 1 2 3 1 1203 1204
1205 1 2 3 1 1204 1205
1206 1 2 3 1 1205 1206
1207 1 2 3 1 1206 1207
1208 1 2 3 1 1207 1208
1209 1 2 3 1 1208 1209
1210 1 2 3 1 1209 1210
1211 1 2 3 1 1210 1211
1212 1 2 3 1 1211 1212
1213 1 2 3 1 1212 1213
1214 1 2 3 1 1213 1214
1215 1 2 3 1 1214 1215
1216 1 2 3 1 1215 1216
1217 1 2 3 1 1216 1217
1218 1 2 3 1 1217 1218
1219 1 2 3 1 1218 1219
1220 1 2 3 1 1219 1220
1221 1 2 3 1 1220 1221
1222 1 2 3 1 1221 1222
1223 1 2 3 1 1222 1223
1224 1 2 3 1 1223 1224
1225 1 2 3 1 1224 1225
1226 1 2 3 1 1225 1226
1227 1 2 3 1 1226 1227
1228 1 2 3 1 1227 1228
1229 1 2 3 1 1228 1229
1230 1 2 3 1 1229 1230
1231 1 2 3 1 1230 1231
1232 1 2 3 1 1231 1232
1233 1 2 3 1 1232 1233
1234 1 2 3 1 1233 1234
1235 1 2 3 1 1234 1235
1236 1 2 3 1 1235 1236
1237 1 2 3 1 1236 1237
1238 1 2 3 1 1237 1238
1239 1 2 3 1 1238 1239
1240 1 2 3 1 1239 1240
1241 1 2 3 1 1240 1241
1242 1 2 3 1 1241 1242
1243 1 2 3 1 1242 1243
1244 1 2 3 1 1243 1244
1245 1 2 3 1 1244 1245
1246 1 2 3 1 1245 1246
1247 1 2 3 1 1246 1247
1248 1 2 3 1 1247 1248
1249 1 2 3 1 1248 1249
1250 1 2 3 1 1249 1250
1251 1 2 3 1 1250 1251
1252 1 2 3 1 1251 1252
1253 1 2 3 1 1252 1253
1254 1 2 3 1 1253 1254
1255 1 2 3 1 1254 1255
1256 1 2 3 1 1255 1256
1257 1 2 3 1 1256 1257
1258 1 2 3 1 1257 1258
1259 1 2 3 1 1258 1259
1260 1 2 3 1 1259 1260
1261 1 2 3 1 1260 1261
1262 1 2 3 1 1261 1262
1263 1 2 3 1 1262 1263
1264 1 2 3 1 1263 1264
1265 1 2 3 1 1264 1265
1266 1 2 3 1 1265 1266
1267 1 2 3 1 1266 1267
1268 1 2 3 1 1267 1268
1269 1 2 3 1 1268 1269
1270 1 2 3 1 1269 1270
1271 1 2 3 1 1270 1271
1272 1 2 3 1 1271 1272
1273 1 2 3 1 1272 1273
1274 1 2 3 1 1273 1274
1275 1 2 3 1 1274 1275
1276 1 2 3 1 1275 1276
1277 1 2 3 1 1276 1277
1278 1 2 3 1 1277 1278
1279 1 2 3 1 1278 1279
1280 1 2 3 1 1279 1280
1281 1 2 3 1 1280 1281
1282 1 2 3 1 1281 1282
1283 1 2 3 1 1282 1283
1284 1 2 3 1 1283 1284
1285 1 2 3 1 1284 1285
1286 1 2 3 1 1285 1286
1287 1 2 3 1 1286 1287
1288 1 2 3 1 1287 1288
1289 1 2 3 1 1288 1289
1290 1 2 3 1 1289 1290
1291 1 2 3 1 1290 1291
1292 1 2 3 1 1291 1292
1293 1 2 3 1 1292 1293
1294 1 2 3 1 1293 1294
1295 1 2 3 1 1294 1295
1296 1 2 3 1 1295 1296
1297 1 2 3 1 1296 1297
1298 1 2 3 1 1297 1298
1299 1 2 3 1 1298 1299
1300 1 2 3 1 1299 1300
1301 1 2 3 1 1300 1301
1302 1 2 3 1 1301 1302
1303 1 2 3 1 1302 1303
1304 1 2 3 1 1303 1304
1305 1 2 3 1 1304 1305
1306 1 2 3 1 1305 1306
1307 1 2 3 1 1306 1307
1308 1 2 3 1 1307 1308
1309 1 2 3 1 1308 1309
1310 1 2 3 1 1309 1310
1311 1 2 3 1 1310 1311
1312 1 2 3 1 1311 1312
1313 1 2 3 1 1312 1313
1314 1 2 3 1 1313 1314
1315 1 2 3 1 1314 1315
1316 1 2 3 1 1315 1316
1317 1 2 3 1 1316 1317
1318 1 2 3 1 1317 1318
1319 1 2 3 1 1318 1319
1320 1 2 3 1 1319 1320
1321 1 2 3 1 1320 1321
1322 1 2 3 1 1321 1322
1323 1 2 3 1 1322 1323
1324 1 2 3 1 1323 1324
1325 1 2 3 1 1324 1325
1326 1 2 3 1 1325 1326
1327 1 2 3 1 1326 1327
1328 1 2 3 1 1327 1328
1329 1 2 3 1 1328 1329
1330 1 2 3 1 1329 1330
1331 1 2 3 1 1330 1331
1332 1 2 3 1 1331 1332
1333 1 2 3 1 1332 1333
1334 1 2 3 1 1333 1334
1335 1 2 3 1 1334 1335
1336 1 2 3 1 1335 1336
1337 1 2 3 1 1336 1337
1338 1 2 3 1 1337 1338
1339 1 2 3 1 1338 1339
1340 1 2 3 1 1339 1340
1341 1 2 3 1 1340 1341
1342 1 2 3 1 1341 1342
1343 1 2 3 1 1342 1343
1344 1 2 3 1 1343 1344
1345 1 2 3 1 1344 1345
1346 1 2 3 1 1345 1346
1347 1 2 3 1 1346 1347
1348 1 2 3 1 1347 1348
1349 1 2 3 1 1348 1349
1350 1 2 3 1 1349 1350
1351 1 2 3 1 1350 1351
1352 1 2 3 1 1351 1352
1353 1 2 3 1 1352 1353
1354 1 2 3 1 1353 1354
1355 1 2 3 1 1354 1355
1356 1 2 3 1 1355 1356
1357 1 2 3 1 1356 1357
1358 1 2 3 1 1357 1358
1359 1 2 3 1 1358 1359
1360 1 2 3 1 1359 1360
1361 1 2 3 1 1360 1361
1362 1 2 3 1 1361 1362
1363 1 2 3 1 1362 1363
1364 1 2 3 1 1363 1364
1365 1 2 3 1 1364 1365
1366 1 2 3 1 1365 1366
1367 1 2 3 1 1366 1367
1368 1 2 3 1 1367 1368
1369 1 2 3 1 1368 1369
1370 1 2 3 1 1369 1370
1371 1 2 3 1 1370 1371
1372 1 2 3 1 1371 1372
1373 1 2 3 1 1372 1373
1374 1 2 3 1 1373 1374
1375 1 2 3 1 1374 1375
1376 1 2 3 1 1375 1376
1377 1 2 3 1 1376 1377
1378 1 2 3 1 1377 1378
1379 1 2 3 1 1378 1379
1380 1 2 3 1 1379 1380
1381 1 2 3 1 1380 1381
1382 1 2 3 1 1381 1382
1383 1 2 3 1 1382 1383
1384 1 2 3 1 1383 1384
1385 1 2 3 1 1384 1385
1386 1 2 3 1 1385 1386
1387 1 2 3 1 1386 1387
1388 1 2 3 1 1387 1388
1389 1 2 3 1 1388 1389
1390 1 2 3 1 1389 1390
1391 1 2 3 1 1390 1391
1392 1 2 3 1 1391 1392
1393 1 2 3 1 1392 1393
1394 1 2 3 1 1393 1394
1395 1 2 3 1 1394 1395
1396 1 2 3 1 1395 1396
1397 1 2 3 1 1396 1397
1398 1 2 3 1 1397 1398
1399 1 2 3 1 1398 1399
1400 1 2 3 1 1399 1400
1401 1 2 3 1 1400 1401
1402 1 2 3 1 1401 1402
1403 1 2 3 1 1402 1403
1404 1 2 3 1 1403 1404
1405 1 2 3 1 1404 1405
1406 1 2 3 1 1405 1406
1407 1 2 3 1 1406 1407
1408 1 2 3 1 1407 1408
1409 1 2 3 1 1408 1409
1410 1 2 3 1 1409 1410
1411 1 2 3 1 1410 1411
1412 1 2 3 1 1411 1412
1413 1 2 3 1 1412 1413
1414 1 2 3 1 1413 1414
1415 1 2 3 1 1414 1415
1416 1 2 3 1 1415 1416
1417 1 2 3 1 1416 1417
1418 1 2 3 1 1417 1418
1419 1 2 3 1 1418 1419
1420 1 2 3 1 1419 1420
1421 1 2 3 1 1420 1421
1422 1 2 3 1 1421 1422
1423 1 2 3 1 1422 1423
1424 1 2 3 1 1423 1424
1425 1 2 3 1 1424 1425
1426 1 2 3 1 1425 1426
1427 1 2 3 1 1426 1427
1428 1 2 3 1 1427 1428
1429 1 2 3 1 1428 1429
1430 1 2 3 1 1429 1430
1431 1 2 3 1 1430 1431
1432 1 2 3 1 1431 1432
1433 1 2 3 1 1432 1433
1434 1 2 3 1 1433 1434
1435 1 2 3 1 1434 1435
1436 1 2 3 1 1435 1436
1437 1 2 3 1 1436 1437
1438 1 2 3 1 1437 1438
1439 1 2 3 1 1438 1439
1440 1 2 3 1 1439 1440
1441 1 2 3 1 1440 1441
1442 1 2 3 1 1441 1442
1443 1 2 3 1 1442 1443
1444 1 2 3 1 1443 1444
1445 1 2 3 1 1444 1445
1446 1 2 3 1 1445 1446
1447 1 2 3 1 1446 1447
1448 1 2 3 1 1447 1448
1449 1 2 3 1 1448 1449
1450 1 2 3 1 1449 1450
1451 1 2 3 1 1450 1451
1452 1 2 3 1 1451 1452
1453 1 2 3 1 1452 1453
1454 1 2 3 1 1453 1454
1455 1 2 3 1 1454 1455
1456 1 2 3 1 1455 1456
1457 1 2 3 1 1456 1457
1458 1 2 3 1 1457 1458
1459 1 2 3 1 1458 1459
1460 1 2 3 1 1459 1460
1461 1 2 3 1 1460 1461
1462 1 2 3 1 1461 1462
1463 1 2 3 1 1462 1463
1464 1 2 3 1 1463 1464
1465 1 2 3 1 1464 1465
1466 1 2 3 1 1465 1466
1467 1 2 3 1 1466 1467
1468 1 2 3 1 1467 1468
1469 1 2 3 1 1468 1469
1470 1 2 3 1 1469 1470
1471 1 2 3 1 1470 1471
1472 1 2 3 1 1471 1472
1473 1 2 3 1 1472 1473
1474 1 2 3 1 1473 1474
1475 1 2 3 1 1474 1475
1476 1 2 3 1 1475 1476
1477 1 2 3 1 1476 1477
1478 1 2 3 1 1477 1478
1479 1 2 3 1 1478 1479
1480 1 2 3 1 1479 1480
1481 1 2 3 1 1480 1481
1482 1 2 3 1 1481 1482
1483 1 2 3 1 1482 1483
1484 1 2 3 1 1483 1484
1485 1 2 3 1 1484 1485
1486 1 2 3 1 1485 1486
1487 1 2 3 1 1486 1487
1488 1 2 3 1 1487 1488
1489 1 2 3 1 1488 1489
1490 1 2 3 1 1489 1490
1491 1 2 3 1 1490 1491
1492 1 2 3 1 1491 1492
1493 1 2 3 1 1492 1493
1494 1 2 3 1 1493 1494
1495 1 2 3 1 1494 1495
1496 1 2 3 1 1495 1496
1497 1 2 3 1 1496 1497
1498 1 2 3 1 1497 1498
1499 1 2 3 1 1498 1499
1500 1 2 3 1 1499 1500
1501 1 2 3 1 1500 1501
1502 1 2 3 1 1501 1502
1503 1 2 3 1 1502 1503
1504 1 2 3 1 1503 1504
1505 1 2 3 1 1504 1505
1506 1 2 3 1 1505 1506
1507 1 2 3 1 1506 1507
1508 1 2 3 1 1507 1508
1509 1 2 3 1 1508 1509
1510 1 2 3 1 1509 1510
1511 1 2 3 1 1510 1511
1512 1 2 3 1 1511 1512
1513 1 2 3 1 1512 1513
1514 1 2 3 1 1513 1514
1515 1 2 3 1 1514 1515
1516 1 2 3 1 1515 1516
1517 1 2 3 1 1516 1517
1518 1 2 3 1 1517 1518
1519 1 2 3 1 1518 1519
1520 1 2 3 1 1519 1520
1521 1 2 3 1 1520 1521
1522 1 2 3 1 1521 1522
1523 1 2 3 1 1522 1523
1524 1 2 3 1 1523 1524
1525 1 2 3 1 1524 1525
1526 1 2 3 1 1525 1526
1527 1 2 3 1 1526 1527
1528 1 2 3 1 1527 1528
1529 1 2 3 1 1528 1529
1530 1 2 3 1 1529 1530
1531 1 2 3 1 1530 1531
1532 1 2 3 1 1531 1532
1533 1 2 3 1 1532 1533
1534 1 2 3 1 1533 1534
1535 1 2 3 1 1534 1535
1536 1 2 3 1 1535 1536
1537 1 2 3 1 1536 1537
1538 1 2 3 1 1537 1538
1539 1 2 3 1 1538 1539
1540 1 2 3 1 1539 1540
1541 1 2 3 1 1540 1541
1542 1 2 3 1 1541 1542
1543 1 2 3 1 1542 1543
1544 1 2 3 1 1543 1544
1545 1 2 3 1 1544 1545
1546 1 2 3 1 1545 1546
1547 1 2 3 1 1546 1547
1548 1 2 3 1 1547 1548
1549 1 2 3 1 1548 1549
1550 1 2 3 1 1549 1550
1551 1 2 3 1 1550 1551
1552 1 2 3 1 1551 1552
1553 1 2 3 1 1552 1553
1554 1 2 3 1 1553 1554
1555 1 2 3 1 1554 1555
1556 1 2 3 1 1555 1556
1557 1 2 3 1 1556 1557
1558 1 2 3 1 1557 1558
1559 1 2 3 1 1558 1559
1560 1 2 3 1 1559 1560
1561 1 2 3 1 1560 1561
1562 1 2 3 1 1561 1562
1563 1 2 3 1 1562 1563
1564 1 2 3 1 1563 1564
1565 1 2 3 1 1564 1565
1566 1 2 3 1 1565 1566
1567 1 2 3 1 1566 1567
1568 1 2 3 1 1567 1568
1569 1 2 3 1 1568 1569
1570 1 2 3 1 1569 1570
1571 1 2 3 1 1570 1571
1572 1 2 3 1 1571 1572
1573 1 2 3 1 1572 1573
1574 1 2 3 1 1573 1574
1575 1 2 3 1 1574 1575
1576 1 2 3 1 1575 1576
1577 1 2 3 1 1576 1577
1578 1 2 3 1 1577 1578
1579 1 2 3 1 1578 1579
1580 1 2 3 1 1579 1580
1581 1 2 3 1 1580 1581
1582 1 2 3 1 1581 1582
1583 1 2 3 1 1582 1583
1584 1 2 3 1 1583 1584
1585 1 2 3 1 1584 1585
1586 1 2 3 1 1585 1586
1587 1 2 3 1 1586 1587
1588 1 2 3 1 1587 1588
1589 1 2 3 1 1588 1589
1590 1 2 3 1 1589 1590
1591 1 2 3 1 1590 1591
1592 1 2 3 1 1591 1592
1593 1 2 3 1 1592 1593
1594 1 2 3 1 1593 1594
1595 1 2 3 1 1594 1595
1596 1 2 3 1 1595 1596
1597 1 2 3 1 1596 1597
1598 1 2 3 1 1597 1598
1599 1 2 3 1 1598 1599
1600 1 2 3 1 1599 1600
1601 1 2 3 1 1600 1601
1602 1 2 3 1 1601 2
$EndElements
