$MeshFormat
2.2 0 8
$EndMeshFormat
$PhysicalNames
3
0 1 "Γ¹"
0 2 "Γ²"
1 3 "Ω"
$EndPhysicalNames
$Nodes
321
1 0 0 0
2 8 0 0
3 6.790738809529328e-08 0 0
4 1.370596940653068e-07 0 0
5 2.100581176176848e-07 0 0
6 2.864887649608175e-07 0 0
7 3.656602469664824e-07 0 0
8 4.50165047031304e-07 0 0
9 5.391166166506423e-07 0 0
10 6.318226395858482e-07 0 0
11 7.282837500660449e-07 0 0
12 8.309998626998359e-07 0 0
13 9.413474049696609e-07 0 0
14 1.056875737964091e-06 0 0
15 1.178027257059016e-06 0 0
16 1.305373483255877e-06 0 0
17 1.436621488043427e-06 0 0
18 1.572141106939119e-06 0 0
19 1.715534971437134e-06 0 0
20 1.867549730274341e-06 0 0
21 2.02904773867439e-06 0 0
22 2.197799509868761e-06 0 0
23 2.374619177284551e-06 0 0
24 2.56042074579579e-06 0 0
25 2.75305083591978e-06 0 0
26 2.956231385991856e-06 0 0
27 3.171131913229267e-06 0 0
28 3.395806943549664e-06 0 0
29 3.631292722391007e-06 0 0
30 3.878704683477342e-06 0 0
31 4.139242777033818e-06 0 0
32 4.41428346833933e-06 0 0
33 4.702046534725859e-06 0 0
34 5.003989147817601e-06 0 0
35 5.321608739416504e-06 0 0
36 5.653406653640721e-06 0 0
37 6.000900743445425e-06 0 0
38 6.365725201274734e-06 0 0
39 6.749638398378223e-06 0 0
40 7.154580563314459e-06 0 0
41 7.579528362975335e-06 0 0
42 8.023614562343372e-06 0 0
43 8.488828320705875e-06 0 0
44 8.977364271359386e-06 0 0
45 9.491583692032609e-06 0 0
46 1.00311181390988e-05 0 0
47 1.059840565954109e-05 0 0
48 1.11963628406988e-05 0 0
49 1.182201543544271e-05 0 0
50 1.247812820829794e-05 0 0
51 1.316797118493203e-05 0 0
52 1.389185967626252e-05 0 0
53 1.465326176566075e-05 0 0
54 1.545299968740081e-05 0 0
55 1.629188411518909e-05 0 0
56 1.717411098794524e-05 0 0
57 1.810049309930485e-05 0 0
58 1.907304181680877e-05 0 0
59 2.009332008415287e-05 0 0
60 2.116314612667086e-05 0 0
61 2.228760623522667e-05 0 0
62 2.346926391668505e-05 0 0
63 2.470789489978466e-05 0 0
64 2.600976253974105e-05 0 0
65 2.737679083184656e-05 0 0
66 2.881113546545466e-05 0 0
67 3.031618395846377e-05 0 0
68 3.189608957026893e-05 0 0
69 3.355554214978006e-05 0 0
70 3.52998524800252e-05 0 0
71 3.713066375719307e-05 0 0
72 3.905170848019699e-05 0 0
73 4.106891994440543e-05 0 0
74 4.318985329563287e-05 0 0
75 4.541636020917345e-05 0 0
76 4.775285849019716e-05 0 0
77 5.020705178709011e-05 0 0
78 5.278350600737633e-05 0 0
79 5.548710717144609e-05 0 0
80 5.832808906510529e-05 0 0
81 6.131279973786558e-05 0 0
82 6.444348222534706e-05 0 0
83 6.773154094420862e-05 0 0
84 7.118491502965296e-05 0 0
85 7.480866338679757e-05 0 0
86 7.861618401757911e-05 0 0
87 8.261253716421665e-05 0 0
88 8.680974999129509e-05 0 0
89 9.121642746787216e-05 0 0
90 9.584218114841926e-05 0 0
91 0.0001006982813514838 0 0
92 0.000105800022430612 0 0
93 0.0001111570938275424 0 0
94 0.0001167828391106863 0 0
95 0.0001226868586882623 0 0
96 0.0001288858958587447 0 0
97 0.0001353982686111666 0 0
98 0.000142232064306975 0 0
99 0.0001494085087266573 0 0
100 0.0001569447822533612 0 0
101 0.0001648598207564111 0 0
102 0.0001731684877244913 0 0
103 0.0001818933386400853 0 0
104 0.0001910531340679579 0 0
105 0.0002006686622623754 0 0
106 0.0002107688554991244 0 0
107 0.00022137337309037 0 0
108 0.0002325100791974851 0 0
109 0.000244203595215511 0 0
110 0.0002564811643238233 0 0
111 0.0002693728521110776 0 0
112 0.0002829058002437107 0 0
113 0.0002971160778619264 0 0
114 0.0003120372875207279 0 0
115 0.0003277064868462468 0 0
116 0.0003441584895719934 0 0
117 0.0003614318069932286 0 0
118 0.0003795689306888066 0 0
119 0.000398610673806818 0 0
120 0.0004186081159447453 0 0
121 0.0004396053483448723 0 0
122 0.0004616511643351801 0 0
123 0.0004847994193098063 0 0
124 0.0005091034544878637 0 0
125 0.0005346221693451531 0 0
126 0.0005614144836223096 0 0
127 0.0005895514110547746 0 0
128 0.0006190929815917895 0 0
129 0.0006501117014110171 0 0
130 0.0006826814315143373 0 0
131 0.0007168776399680462 0 0
132 0.0007527836364444874 0 0
133 0.0007904852072480267 0 0
134 0.0008300709527272866 0 0
135 0.0008716386127015166 0 0
136 0.0009152838379778272 0 0
137 0.0009611122540758377 0 0
138 0.001009228298642941 0 0
139 0.001059753316043175 0 0
140 0.001112802847053634 0 0
141 0.001168504520607955 0 0
142 0.001226993013295575 0 0
143 0.001288404772613688 0 0
144 0.001352884413877501 0 0
145 0.001420591454371001 0 0
146 0.001491683560612083 0 0
147 0.001566328779481377 0 0
148 0.001644706480115446 0 0
149 0.001727002403573917 0 0
150 0.001813409447655412 0 0
151 0.001904140435194174 0 0
152 0.001999405782461253 0 0
153 0.002099431799937416 0 0
154 0.002204462053716656 0 0
155 0.002314740941921107 0 0
156 0.002430532242474973 0 0
157 0.002552114777648137 0 0
158 0.002679777894627929 0 0
159 0.002813822715024825 0 0
160 0.002954569443480984 0 0
161 0.003102353158751361 0 0
162 0.003257525394673002 0 0
163 0.003420455842046064 0 0
164 0.003591534179565244 0 0
165 0.003771160121522896 0 0
166 0.003959768779146117 0 0
167 0.004157809657169785 0 0
168 0.004365748495525432 0 0
169 0.004584087140608541 0 0
170 0.004813336785299249 0 0
171 0.005054049537479795 0 0
172 0.005306797987740949 0 0
173 0.005572183625987168 0 0
174 0.005850839790007346 0 0
175 0.006143422915725922 0 0
176 0.006450633231227808 0 0
177 0.006773206766048658 0 0
178 0.007111907047959964 0 0
179 0.007467540317833772 0 0
180 0.007840953719807968 0 0
181 0.008233039462173417 0 0
182 0.008644727371162359 0 0
183 0.009076995064895446 0 0
184 0.009530872792190724 0 0
185 0.01000744267530945 0 0
186 0.01050784400388728 0 0
187 0.0110332610471818 0 0
188 0.01158494616148253 0 0
189 0.0121642143994212 0 0
190 0.01277244396650618 0 0
191 0.01341108282505726 0 0
192 0.01408164984018715 0 0
193 0.01478574212447703 0 0
194 0.01552503697939819 0 0
195 0.01630129413327961 0 0
196 0.01711635830062455 0 0
197 0.01797217401024316 0 0
198 0.01887077756385138 0 0
199 0.01981430671645803 0 0
200 0.0208050110953576 0 0
201 0.0218452455259961 0 0
202 0.02293748714666972 0 0
203 0.02408433579228221 0 0
204 0.02528852066720607 0 0
205 0.02655291363717648 0 0
206 0.02788051968509266 0 0
207 0.02927450301062615 0 0
208 0.03073817904816358 0 0
209 0.03227503032245221 0 0
210 0.03388871755125898 0 0
211 0.03558308577812868 0 0
212 0.03736216530851696 0 0
213 0.03923019105418529 0 0
214 0.04119161142795159 0 0
215 0.04325109225198297 0 0
216 0.04541353929862717 0 0
217 0.04768410466041034 0 0
218 0.05006818809076515 0 0
219 0.05257146289698195 0 0
220 0.05519989188237272 0 0
221 0.05795973287388573 0 0
222 0.06085755719176284 0 0
223 0.06390025790372042 0 0
224 0.06709508315476702 0 0
225 0.07044963626284577 0 0
226 0.07397190652681028 0 0
227 0.07767027272296791 0 0
228 0.08155354353725038 0 0
229 0.08563096530411891 0 0
230 0.08991224315365706 0 0
231 0.09440756437134261 0 0
232 0.0991276360598323 0 0
233 0.1040836901947893 0 0
234 0.1092875260337318 0 0
235 0.114751538168233 0 0
236 0.1204887295718561 0 0
237 0.126512756651061 0 0
238 0.1328379602929199 0 0
239 0.1394794001721638 0 0
240 0.1464528866054014 0 0
241 0.153775015879963 0 0
242 0.1614632212461072 0 0
243 0.1695358106522483 0 0
244 0.1780119966245516 0 0
245 0.1869119597303024 0 0
246 0.1962568818534992 0 0
247 0.206069013458469 0 0
248 0.2163717170623833 0 0
249 0.2271895097013565 0 0
250 0.2385481521625582 0 0
251 0.2504746801782453 0 0
252 0.2629974880818924 0 0
253 0.2761463902244727 0 0
254 0.2899526830496522 0 0
255 0.3044492378406825 0 0
256 0.3196705602937174 0 0
257 0.3356528869800691 0 0
258 0.3524342671031026 0 0
259 0.3700546528719746 0 0
260 0.388555987228643 0 0
261 0.4079823128753666 0 0
262 0.4283798800756086 0 0
263 0.4497972415081646 0 0
264 0.4722853874466358 0 0
265 0.4958978520439657 0 0
266 0.5206908491853931 0 0
267 0.5467233979835862 0 0
268 0.5740574675350892 0 0
269 0.6027581362918423 0 0
270 0.632893719463747 0 0
271 0.6645359645690352 0 0
272 0.6977601997371858 0 0
273 0.7326455103150823 0 0
274 0.7692749516004418 0 0
275 0.8077357165330212 0 0
276 0.8481193698347945 0 0
277 0.8905220451521076 0 0
278 0.9350446873413901 0 0
279 0.9817932831232939 0 0
280 1.030879127808066 0 0
281 1.082419064961798 0 0
282 1.136535799650514 0 0
283 1.193358152546097 0 0
284 1.253021401679155 0 0
285 1.315667573936648 0 0
286 1.381445809766686 0 0
287 1.450512698307727 0 0
288 1.523032653876881 0 0
289 1.599178318935857 0 0
290 1.67913096603481 0 0
291 1.763080929513133 0 0
292 1.851228057602865 0 0
293 1.94378219304854 0 0
294 2.040963672937859 0 0
295 2.143003838031897 0 0
296 2.250145607025751 0 0
297 2.362644042876872 0 0
298 2.480766953974208 0 0
299 2.604795545329013 0 0
300 2.735025070238733 0 0
301 2.871765555646853 0 0
302 3.015342523194896 0 0
303 3.166097773161577 0 0
304 3.324390188687687 0 0
305 3.490596599098383 0 0
306 3.665112671651145 0 0
307 3.848353853255887 0 0
308 4.040756367020939 0 0
309 4.242778244997024 0 0
310 4.454900419406155 0 0
311 4.677627860130247 0 0
312 4.911490793431228 0 0
313 5.157045943408445 0 0
314 5.41487787797253 0 0
315 5.685600390389465 0 0
316 5.969857957416022 0 0
317 6.268327275549833 0 0
318 6.581718877176254 0 0
319 6.910778816753191 0 0
320 7.256290452647755 0 0
321 7.619076298086314 0 0
$EndNodes
$Elements
322
1 15 2 1 1 1
2 15 2 2 2 2
3 1 2 3 1 1 3
4 1 2 3 1 3 4
5 1 2 3 1 4 5
6 1 2 3 1 5 6
7 1 2 3 1 6 7
8 1 2 3 1 7 8
9 1 2 3 1 8 9
10 1 2 3 1 9 10
11 1 2 3 1 10 11
12 1 2 3 1 11 12
13 1 2 3 1 12 13
14 1 2 3 1 13 14
15 1 2 3 1 14 15
16 1 2 3 1 15 16
17 1 2 3 1 16 17
18 1 2 3 1 17 18
19 1 2 3 1 18 19
20 1 2 3 1 19 20
21 1 2 3 1 20 21
22 1 2 3 1 21 22
23 1 2 3 1 22 23
24 1 2 3 1 23 24
25 1 2 3 1 24 25
26 1 2 3 1 25 26
27 1 2 3 1 26 27
28 1 2 3 1 27 28
29 1 2 3 1 28 29
30 1 2 3 1 29 30
31 1 2 3 1 30 31
32 1 2 3 1 31 32
33 1 2 3 1 32 33
34 1 2 3 1 33 34
35 1 2 3 1 34 35
36 1 2 3 1 35 36
37 1 2 3 1 36 37
38 1 2 3 1 37 38
39 1 2 3 1 38 39
40 1 2 3 1 39 40
41 1 2 3 1 40 41
42 1 2 3 1 41 42
43 1 2 3 1 42 43
44 1 2 3 1 43 44
45 1 2 3 1 44 45
46 1 2 3 1 45 46
47 1 2 3 1 46 47
48 1 2 3 1 47 48
49 1 2 3 1 48 49
50 1 2 3 1 49 50
51 1 2 3 1 50 51
52 1 2 3 1 51 52
53 1 2 3 1 52 53
54 1 2 3 1 53 54
55 1 2 3 1 54 55
56 1 2 3 1 55 56
57 1 2 3 1 56 57
58 1 2 3 1 57 58
59 1 2 3 1 58 59
60 1 2 3 1 59 60
61 1 2 3 1 60 61
62 1 2 3 1 61 62
63 1 2 3 1 62 63
64 1 2 3 1 63 64
65 1 2 3 1 64 65
66 1 2 3 1 65 66
67 1 2 3 1 66 67
68 1 2 3 1 67 68
69 1 2 3 1 68 69
70 1 2 3 1 69 70
71 1 2 3 1 70 71
72 1 2 3 1 71 72
73 1 2 3 1 72 73
74 1 2 3 1 73 74
75 1 2 3 1 74 75
76 1 2 3 1 75 76
77 1 2 3 1 76 77
78 1 2 3 1 77 78
79 1 2 3 1 78 79
80 1 2 3 1 79 80
81 1 2 3 1 80 81
82 1 2 3 1 81 82
83 1 2 3 1 82 83
84 1 2 3 1 83 84
85 1 2 3 1 84 85
86 1 2 3 1 85 86
87 1 2 3 1 86 87
88 1 2 3 1 87 88
89 1 2 3 1 88 89
90 1 2 3 1 89 90
91 1 2 3 1 90 91
92 1 2 3 1 91 92
93 1 2 3 1 92 93
94 1 2 3 1 93 94
95 1 2 3 1 94 95
96 1 2 3 1 95 96
97 1 2 3 1 96 97
98 1 2 3 1 97 98
99 1 2 3 1 98 99
100 1 2 3 1 99 100
101 1 2 3 1 100 101
102 1 2 3 1 101 102
103 1 2 3 1 102 103
104 1 2 3 1 103 104
105 1 2 3 1 104 105
106 1 2 3 1 105 106
107 1 2 3 1 106 107
108 1 2 3 1 107 108
109 1 2 3 1 108 109
110 1 2 3 1 109 110
111 1 2 3 1 110 111
112 1 2 3 1 111 112
113 1 2 3 1 112 113
114 1 2 3 1 113 114
115 1 2 3 1 114 115
116 1 2 3 1 115 116
117 1 2 3 1 116 117
118 1 2 3 1 117 118
119 1 2 3 1 118 119
120 1 2 3 1 119 120
121 1 2 3 1 120 121
122 1 2 3 1 121 122
123 1 2 3 1 122 123
124 1 2 3 1 123 124
125 1 2 3 1 124 125
126 1 2 3 1 125 126
127 1 2 3 1 126 127
128 1 2 3 1 127 128
129 1 2 3 1 128 129
130 1 2 3 1 129 130
131 1 2 3 1 130 131
132 1 2 3 1 131 132
133 1 2 3 1 132 133
134 1 2 3 1 133 134
135 1 2 3 1 134 135
136 1 2 3 1 135 136
137 1 2 3 1 136 137
138 1 2 3 1 137 138
139 1 2 3 1 138 139
140 1 2 3 1 139 140
141 1 2 3 1 140 141
142 1 2 3 1 141 142
143 1 2 3 1 142 143
144 1 2 3 1 143 144
145 1 2 3 1 144 145
146 1 2 3 1 145 146
147 1 2 3 1 146 147
148 1 2 3 1 147 148
149 1 2 3 1 148 149
150 1 2 3 1 149 150
151 1 2 3 1 150 151
152 1 2 3 1 151 152
153 1 2 3 1 152 153
154 1 2 3 1 153 154
155 1 2 3 1 154 155
156 1 2 3 1 155 156
157 1 2 3 1 156 157
158 1 2 3 1 157 158
159 1 2 3 1 158 159
160 1 2 3 1 159 160
161 1 2 3 1 160 161
162 1 2 3 1 161 162
163 1 2 3 1 162 163
164 1 2 3 1 163 164
165 1 2 3 1 164 165
166 1 2 3 1 165 166
167 1 2 3 1 166 167
168 1 2 3 1 167 168
169 1 2 3 1 168 169
170 1 2 3 1 169 170
171 1 2 3 1 170 171
172 1 2 3 1 171 172
173 1 2 3 1 172 173
174 1 2 3 1 173 174
175 1 2 3 1 174 175
176 1 2 3 1 175 176
177 1 2 3 1 176 177
178 1 2 3 1 177 178
179 1 2 3 1 178 179
180 1 2 3 1 179 180
181 1 2 3 1 180 181
182 1 2 3 1 181 182
183 1 2 3 1 182 183
184 1 2 3 1 183 184
185 1 2 3 1 184 185
186 1 2 3 1 185 186
187 1 2 3 1 186 187
188 1 2 3 1 187 188
189 1 2 3 1 188 189
190 1 2 3 1 189 190
191 1 2 3 1 190 191
192 1 2 3 1 191 192
193 1 2 3 1 192 193
194 1 2 3 1 193 194
195 1 2 3 1 194 195
196 1 2 3 1 195 196
197 1 2 3 1 196 197
198 1 2 3 1 197 198
199 1 2 3 1 198 199
200 1 2 3 1 199 200
201 1 2 3 1 200 201
202 1 2 3 1 201 202
203 1 2 3 1 202 203
204 1 2 3 1 203 204
205 1 2 3 1 204 205
206 1 2 3 1 205 206
207 1 2 3 1 206 207
208 1 2 3 1 207 208
209 1 2 3 1 208 209
210 1 2 3 1 209 210
211 1 2 3 1 210 211
212 1 2 3 1 211 212
213 1 2 3 1 212 213
214 1 2 3 1 213 214
215 1 2 3 1 214 215
216 1 2 3 1 215 216
217 1 2 3 1 216 217
218 1 2 3 1 217 218
219 1 2 3 1 218 219
220 1 2 3 1 219 220
221 1 2 3 1 220 221
222 1 2 3 1 221 222
223 1 2 3 1 222 223
224 1 2 3 1 223 224
225 1 2 3 1 224 225
226 1 2 3 1 225 226
227 1 2 3 1 226 227
228 1 2 3 1 227 228
229 1 2 3 1 228 229
230 1 2 3 1 229 230
231 1 2 3 1 230 231
232 1 2 3 1 231 232
233 1 2 3 1 232 233
234 1 2 3 1 233 234
235 1 2 3 1 234 235
236 1 2 3 1 235 236
237 1 2 3 1 236 237
238 1 2 3 1 237 238
239 1 2 3 1 238 239
240 1 2 3 1 239 240
241 1 2 3 1 240 241
242 1 2 3 1 241 242
243 1 2 3 1 242 243
244 1 2 3 1 243 244
245 1 2 3 1 244 245
246 1 2 3 1 245 246
247 1 2 3 1 246 247
248 1 2 3 1 247 248
249 1 2 3 1 248 249
250 1 2 3 1 249 250
251 1 2 3 1 250 251
252 1 2 3 1 251 252
253 1 2 3 1 252 253
254 1 2 3 1 253 254
255 1 2 3 1 254 255
256 1 2 3 1 255 256
257 1 2 3 1 256 257
258 1 2 3 1 257 258
259 1 2 3 1 258 259
260 1 2 3 1 259 260
261 1 2 3 1 260 261
262 1 2 3 1 261 262
263 1 2 3 1 262 263
264 1 2 3 1 263 264
265 1 2 3 1 264 265
266 1 2 3 1 265 266
267 1 2 3 1 266 267
268 1 2 3 1 267 268
269 1 2 3 1 268 269
270 1 2 3 1 269 270
271 1 2 3 1 270 271
272 1 2 3 1 271 272
273 1 2 3 1 272 273
274 1 2 3 1 273 274
275 1 2 3 1 274 275
276 1 2 3 1 275 276
277 1 2 3 1 276 277
278 1 2 3 1 277 278
279 1 2 3 1 278 279
280 1 2 3 1 279 280
281 1 2 3 1 280 281
282 1 2 3 1 281 282
283 1 2 3 1 282 283
284 1 2 3 1 283 284
285 1 2 3 1 284 285
286 1 2 3 1 285 286
287 1 2 3 1 286 287
288 1 2 3 1 287 288
289 1 2 3 1 288 289
290 1 2 3 1 289 290
291 1 2 3 1 290 291
292 1 2 3 1 291 292
293 1 2 3 1 292 293
294 1 2 3 1 293 294
295 1 2 3 1 294 295
296 1 2 3 1 295 296
297 1 2 3 1 296 297
298 1 2 3 1 297 298
299 1 2 3 1 298 299
300 1 2 3 1 299 300
301 1 2 3 1 300 301
302 1 2 3 1 301 302
303 1 2 3 1 302 303
304 1 2 3 1 303 304
305 1 2 3 1 304 305
306 1 2 3 1 305 306
307 1 2 3 1 306 307
308 1 2 3 1 307 308
309 1 2 3 1 308 309
310 1 2 3 1 309 310
311 1 2 3 1 310 311
312 1 2 3 1 311 312
313 1 2 3 1 312 313
314 1 2 3 1 313 314
315 1 2 3 1 314 315
316 1 2 3 1 315 316
317 1 2 3 1 316 317
318 1 2 3 1 317 318
319 1 2 3 1 318 319
320 1 2 3 1 319 320
321 1 2 3 1 320 321
322 1 2 3 1 321 2
$EndElements
