$MeshFormat
2.2 0 8
$EndMeshFormat
$PhysicalNames
3
0 1 "Γ¹"
0 2 "Γ²"
1 3 "Ω"
$EndPhysicalNames
$Nodes
41
1 0 0 0
2 8 0 0
3 0.1999999999996219 0 0
4 0.3999999999991952 0 0
5 0.5999999999988195 0 0
6 0.7999999999985131 0 0
7 0.9999999999981851 0 0
8 1.199999999997623 0 0
9 1.399999999997039 0 0
10 1.599999999996455 0 0
11 1.799999999995872 0 0
12 1.999999999995288 0 0
13 2.199999999994704 0 0
14 2.39999999999412 0 0
15 2.599999999993536 0 0
16 2.799999999992953 0 0
17 2.999999999992369 0 0
18 3.199999999991785 0 0
19 3.399999999991201 0 0
20 3.599999999990617 0 0
21 3.799999999990034 0 0
22 3.999999999989537 0 0
23 4.199999999989977 0 0
24 4.399999999990505 0 0
25 4.599999999991033 0 0
26 4.79999999999156 0 0
27 4.999999999992087 0 0
28 5.199999999992615 0 0
29 5.399999999993142 0 0
30 5.59999999999367 0 0
31 5.799999999994197 0 0
32 5.999999999994725 0 0
33 6.199999999995252 0 0
34 6.39999999999578 0 0
35 6.599999999996308 0 0
36 6.799999999996835 0 0
37 6.999999999997363 0 0
38 7.19999999999789 0 0
39 7.399999999998418 0 0
40 7.599999999998945 0 0
41 7.799999999999473 0 0
$EndNodes
$Elements
42
1 15 2 1 1 1
2 15 2 2 2 2
3 1 2 3 1 1 3
4 1 2 3 1 3 4
5 1 2 3 1 4 5
6 1 2 3 1 5 6
7 1 2 3 1 6 7
8 1 2 3 1 7 8
9 1 2 3 1 8 9
10 1 2 3 1 9 10
11 1 2 3 1 10 11
12 1 2 3 1 11 12
13 1 2 3 1 12 13
14 1 2 3 1 13 14
15 1 2 3 1 14 15
16 1 2 3 1 15 16
17 1 2 3 1 16 17
18 1 2 3 1 17 18
19 1 2 3 1 18 19
20 1 2 3 1 19 20
21 1 2 3 1 20 21
22 1 2 3 1 21 22
23 1 2 3 1 22 23
24 1 2 3 1 23 24
25 1 2 3 1 24 25
26 1 2 3 1 25 26
27 1 2 3 1 26 27
28 1 2 3 1 27 28
29 1 2 3 1 28 29
30 1 2 3 1 29 30
31 1 2 3 1 30 31
32 1 2 3 1 31 32
33 1 2 3 1 32 33
34 1 2 3 1 33 34
35 1 2 3 1 34 35
36 1 2 3 1 35 36
37 1 2 3 1 36 37
38 1 2 3 1 37 38
39 1 2 3 1 38 39
40 1 2 3 1 39 40
41 1 2 3 1 40 41
42 1 2 3 1 41 2
$EndElements
