$MeshFormat
2.2 0 8
$EndMeshFormat
$PhysicalNames
3
0 1 "Γ¹"
0 2 "Γ²"
1 3 "Ω"
$EndPhysicalNames
$Nodes
11
1 0 0 0
2 8 0 0
3 0.7999999999985131 0 0
4 1.599999999996455 0 0
5 2.39999999999412 0 0
6 3.199999999991785 0 0
7 3.999999999989537 0 0
8 4.79999999999156 0 0
9 5.59999999999367 0 0
10 6.39999999999578 0 0
11 7.19999999999789 0 0
$EndNodes
$Elements
12
1 15 2 1 1 1
2 15 2 2 2 2
3 1 2 3 1 1 3
4 1 2 3 1 3 4
5 1 2 3 1 4 5
6 1 2 3 1 5 6
7 1 2 3 1 6 7
8 1 2 3 1 7 8
9 1 2 3 1 8 9
10 1 2 3 1 9 10
11 1 2 3 1 10 11
12 1 2 3 1 11 2
$EndElements
