$MeshFormat
2.2 0 8
$EndMeshFormat
$PhysicalNames
3
0 1 "Γ¹"
0 2 "Γ²"
1 3 "Ω"
$EndPhysicalNames
$Nodes
21
1 0 0 0
2 8 0 0
3 0.2419406991911678 0 0
4 0.495978432189726 0 0
5 0.7627180519806916 0 0
6 1.042794652496254 0 0
7 1.336875083799918 0 0
8 1.645659537066295 0 0
9 1.969883210174523 0 0
10 2.310318066460642 0 0
11 2.667774668156208 0 0
12 3.043104099274162 0 0
13 3.437200000402045 0 0
14 3.851000696213298 0 0
15 4.285491427559002 0 0
16 4.741706696921078 0 0
17 5.220732728742347 0 0
18 5.723710062989814 0 0
19 6.251836264914814 0 0
20 6.80636877554963 0 0
21 7.388627910212318 0 0
$EndNodes
$Elements
22
1 15 2 1 1 1
2 15 2 2 2 2
3 1 2 3 1 1 3
4 1 2 3 1 3 4
5 1 2 3 1 4 5
6 1 2 3 1 5 6
7 1 2 3 1 6 7
8 1 2 3 1 7 8
9 1 2 3 1 8 9
10 1 2 3 1 9 10
11 1 2 3 1 10 11
12 1 2 3 1 11 12
13 1 2 3 1 12 13
14 1 2 3 1 13 14
15 1 2 3 1 14 15
16 1 2 3 1 15 16
17 1 2 3 1 16 17
18 1 2 3 1 17 18
19 1 2 3 1 18 19
20 1 2 3 1 19 20
21 1 2 3 1 20 21
22 1 2 3 1 21 2
$EndElements
