$MeshFormat
2.2 0 8
$EndMeshFormat
$PhysicalNames
3
0 1 "Γ¹"
0 2 "Γ²"
1 3 "Ω"
$EndPhysicalNames
$Nodes
801
1 0 0 0
2 8 0 0
3 1.490116160874101e-10 0 0
4 2.980232321748202e-10 0 0
5 4.470348482622303e-10 0 0
6 5.960464643496403e-10 0 0
7 7.450580804370504e-10 0 0
8 8.940696965244606e-10 0 0
9 1.043081312611871e-09 0 0
10 1.192092928699281e-09 0 0
11 1.341104544786691e-09 0 0
12 1.490116160874101e-09 0 0
13 1.639127776961511e-09 0 0
14 1.788139393048921e-09 0 0
15 1.937151009136331e-09 0 0
16 2.086162625223741e-09 0 0
17 2.235174241311151e-09 0 0
18 2.384185857398561e-09 0 0
19 2.533197473485972e-09 0 0
20 2.682209089573381e-09 0 0
21 2.831220705660792e-09 0 0
22 2.980232321748202e-09 0 0
23 3.129243937835612e-09 0 0
24 3.278255553923022e-09 0 0
25 3.427267170010432e-09 0 0
26 3.576278786097842e-09 0 0
27 3.725290402185252e-09 0 0
28 3.874302018272662e-09 0 0
29 4.023313634360072e-09 0 0
30 4.172325250447483e-09 0 0
31 4.321336866534892e-09 0 0
32 4.470348482622303e-09 0 0
33 4.619360098709712e-09 0 0
34 4.768371714797122e-09 0 0
35 4.917383330884533e-09 0 0
36 5.066394946971943e-09 0 0
37 5.215406563059353e-09 0 0
38 5.364418179146763e-09 0 0
39 5.513429795234173e-09 0 0
40 5.662441411321584e-09 0 0
41 5.811453027408993e-09 0 0
42 5.960464643496403e-09 0 0
43 6.109476259583814e-09 0 0
44 6.258487875671224e-09 0 0
45 6.407499491758634e-09 0 0
46 6.556511107846043e-09 0 0
47 6.705522723933453e-09 0 0
48 6.854534340020864e-09 0 0
49 7.003545956108274e-09 0 0
50 7.152557572195684e-09 0 0
51 7.301569188283094e-09 0 0
52 7.450580804370503e-09 0 0
53 7.599592420457915e-09 0 0
54 7.748604036545324e-09 0 0
55 7.897615652632734e-09 0 0
56 8.046627268720145e-09 0 0
57 8.195638884807554e-09 0 0
58 8.344650500894965e-09 0 0
59 8.493662116982375e-09 0 0
60 8.642673733069784e-09 0 0
61 8.791685349157196e-09 0 0
62 8.940696965244605e-09 0 0
63 9.089708581332016e-09 0 0
64 9.238720197419424e-09 0 0
65 9.387731813506835e-09 0 0
66 9.536743429594245e-09 0 0
67 9.685755045681654e-09 0 0
68 9.834766661769065e-09 0 0
69 9.983778277856475e-09 0 0
70 1.013278989394389e-08 0 0
71 1.02818015100313e-08 0 0
72 1.043081312611871e-08 0 0
73 1.057982474220612e-08 0 0
74 1.072883635829353e-08 0 0
75 1.087784797438094e-08 0 0
76 1.102685959046835e-08 0 0
77 1.117587120655576e-08 0 0
78 1.132488282264317e-08 0 0
79 1.147389443873058e-08 0 0
80 1.162290605481799e-08 0 0
81 1.17719176709054e-08 0 0
82 1.192092928699281e-08 0 0
83 1.206994090308022e-08 0 0
84 1.221895251916763e-08 0 0
85 1.236796413525504e-08 0 0
86 1.251697575134245e-08 0 0
87 1.266598736742986e-08 0 0
88 1.281499898351727e-08 0 0
89 1.296401059960468e-08 0 0
90 1.311302221569209e-08 0 0
91 1.32620338317795e-08 0 0
92 1.341104544786691e-08 0 0
93 1.356005706395432e-08 0 0
94 1.370906868004173e-08 0 0
95 1.385808029612914e-08 0 0
96 1.400709191221655e-08 0 0
97 1.415610352830396e-08 0 0
98 1.430511514439137e-08 0 0
99 1.445412676047878e-08 0 0
100 1.460313837656619e-08 0 0
101 1.47521499926536e-08 0 0
102 1.490116160874101e-08 0 0
103 1.505017322482842e-08 0 0
104 1.519918484091583e-08 0 0
105 1.534819645700324e-08 0 0
106 1.549720807309065e-08 0 0
107 1.564621968917806e-08 0 0
108 1.579523130526547e-08 0 0
109 1.594424292135288e-08 0 0
110 1.609325453744029e-08 0 0
111 1.62422661535277e-08 0 0
112 1.639127776961511e-08 0 0
113 1.654028938570252e-08 0 0
114 1.668930100178993e-08 0 0
115 1.683831261787734e-08 0 0
116 1.698732423396475e-08 0 0
117 1.713633585005216e-08 0 0
118 1.728534746613957e-08 0 0
119 1.743435908222698e-08 0 0
120 1.758337069831439e-08 0 0
121 1.77323823144018e-08 0 0
122 1.788139393048921e-08 0 0
123 1.803040554657662e-08 0 0
124 1.817941716266403e-08 0 0
125 1.832842877875144e-08 0 0
126 1.847744039483885e-08 0 0
127 1.862645201092626e-08 0 0
128 1.877546362701367e-08 0 0
129 1.892447524310108e-08 0 0
130 1.907348685918849e-08 0 0
131 1.92224984752759e-08 0 0
132 1.937151009136331e-08 0 0
133 1.952052170745072e-08 0 0
134 1.966953332353813e-08 0 0
135 1.981854493962554e-08 0 0
136 1.996755655571295e-08 0 0
137 2.011656817180036e-08 0 0
138 2.026557978788777e-08 0 0
139 2.041459140397518e-08 0 0
140 2.056360302006259e-08 0 0
141 2.071261463615e-08 0 0
142 2.086162625223741e-08 0 0
143 2.101063786832482e-08 0 0
144 2.115964948441223e-08 0 0
145 2.130866110049964e-08 0 0
146 2.145767271658705e-08 0 0
147 2.160668433267446e-08 0 0
148 2.175569594876187e-08 0 0
149 2.190470756484928e-08 0 0
150 2.205371918093669e-08 0 0
151 2.220273079702411e-08 0 0
152 2.235174241311151e-08 0 0
153 2.250075402919892e-08 0 0
154 2.264976564528633e-08 0 0
155 2.279877726137374e-08 0 0
156 2.294778887746115e-08 0 0
157 2.309680049354856e-08 0 0
158 2.324581210963597e-08 0 0
159 2.339482372572338e-08 0 0
160 2.354383534181079e-08 0 0
161 2.36928469578982e-08 0 0
162 2.384185857398561e-08 0 0
163 2.399087019007302e-08 0 0
164 2.413988180616044e-08 0 0
165 2.428889342224784e-08 0 0
166 2.443790503833526e-08 0 0
167 2.458691665442266e-08 0 0
168 2.473592827051007e-08 0 0
169 2.488493988659748e-08 0 0
170 2.50339515026849e-08 0 0
171 2.518296311877231e-08 0 0
172 2.533197473485972e-08 0 0
173 2.548098635094712e-08 0 0
174 2.562999796703454e-08 0 0
175 2.577900958312194e-08 0 0
176 2.592802119920935e-08 0 0
177 2.607703281529677e-08 0 0
178 2.622604443138417e-08 0 0
179 2.637505604747159e-08 0 0
180 2.652406766355899e-08 0 0
181 2.66730792796464e-08 0 0
182 2.682209089573381e-08 0 0
183 2.697110251182123e-08 0 0
184 2.712011412790864e-08 0 0
185 2.726912574399605e-08 0 0
186 2.741813736008346e-08 0 0
187 2.756714897617087e-08 0 0
188 2.771616059225827e-08 0 0
189 2.786517220834569e-08 0 0
190 2.80141838244331e-08 0 0
191 2.816319544052051e-08 0 0
192 2.831220705660792e-08 0 0
193 2.846121867269533e-08 0 0
194 2.861023028878274e-08 0 0
195 2.875924190487015e-08 0 0
196 2.890825352095756e-08 0 0
197 2.905726513704497e-08 0 0
198 2.920627675313238e-08 0 0
199 2.935528836921979e-08 0 0
200 2.95042999853072e-08 0 0
201 2.96533116013946e-08 0 0
202 2.980232321748201e-08 0 0
203 2.995133483356943e-08 0 0
204 3.010034644965683e-08 0 0
205 3.024935806574425e-08 0 0
206 3.039836968183166e-08 0 0
207 3.054738129791907e-08 0 0
208 3.069639291400648e-08 0 0
209 3.084540453009389e-08 0 0
210 3.09944161461813e-08 0 0
211 3.114342776226871e-08 0 0
212 3.129243937835612e-08 0 0
213 3.144145099444353e-08 0 0
214 3.159046261053093e-08 0 0
215 3.173947422661835e-08 0 0
216 3.188848584270576e-08 0 0
217 3.203749745879317e-08 0 0
218 3.218650907488058e-08 0 0
219 3.233552069096799e-08 0 0
220 3.24845323070554e-08 0 0
221 3.263354392314281e-08 0 0
222 3.278255553923022e-08 0 0
223 3.293156715531763e-08 0 0
224 3.308057877140504e-08 0 0
225 3.322959038749245e-08 0 0
226 3.337860200357986e-08 0 0
227 3.352761361966727e-08 0 0
228 3.367662523575468e-08 0 0
229 3.382563685184209e-08 0 0
230 3.39746484679295e-08 0 0
231 3.412366008401691e-08 0 0
232 3.427267170010432e-08 0 0
233 3.442168331619173e-08 0 0
234 3.457069493227914e-08 0 0
235 3.471970654836655e-08 0 0
236 3.486871816445396e-08 0 0
237 3.501772978054137e-08 0 0
238 3.516674139662878e-08 0 0
239 3.531575301271619e-08 0 0
240 3.54647646288036e-08 0 0
241 3.561377624489101e-08 0 0
242 3.576278786097842e-08 0 0
243 3.591179947706583e-08 0 0
244 3.606081109315324e-08 0 0
245 3.620982270924065e-08 0 0
246 3.635883432532807e-08 0 0
247 3.650784594141547e-08 0 0
248 3.665685755750288e-08 0 0
249 3.680586917359029e-08 0 0
250 3.69548807896777e-08 0 0
251 3.710389240576511e-08 0 0
252 3.725290402185252e-08 0 0
253 3.740191563793994e-08 0 0
254 3.755092725402734e-08 0 0
255 3.769993887011475e-08 0 0
256 3.784895048620216e-08 0 0
257 3.799796210228957e-08 0 0
258 3.814697371837698e-08 0 0
259 3.829598533446439e-08 0 0
260 3.84449969505518e-08 0 0
261 3.859400856663921e-08 0 0
262 3.874302018272662e-08 0 0
263 3.889203179881404e-08 0 0
264 3.904104341490144e-08 0 0
265 3.919005503098885e-08 0 0
266 3.933906664707626e-08 0 0
267 3.948807826316367e-08 0 0
268 3.963708987925108e-08 0 0
269 3.978610149533849e-08 0 0
270 3.99351131114259e-08 0 0
271 4.008412472751332e-08 0 0
272 4.023313634360073e-08 0 0
273 4.038214795968813e-08 0 0
274 4.053115957577554e-08 0 0
275 4.068017119186296e-08 0 0
276 4.082918280795036e-08 0 0
277 4.097819442403778e-08 0 0
278 4.112720604012518e-08 0 0
279 4.127621765621259e-08 0 0
280 4.142522927230001e-08 0 0
281 4.157424088838741e-08 0 0
282 4.172325250447482e-08 0 0
283 4.187226412056224e-08 0 0
284 4.202127573664965e-08 0 0
285 4.217028735273705e-08 0 0
286 4.231929896882447e-08 0 0
287 4.246831058491187e-08 0 0
288 4.261732220099928e-08 0 0
289 4.27663338170867e-08 0 0
290 4.29153454331741e-08 0 0
291 4.306435704926151e-08 0 0
292 4.321336866534893e-08 0 0
293 4.336238028143634e-08 0 0
294 4.351139189752375e-08 0 0
295 4.366040351361115e-08 0 0
296 4.380941512969856e-08 0 0
297 4.395842674578598e-08 0 0
298 4.410743836187339e-08 0 0
299 4.425644997796079e-08 0 0
300 4.440546159404821e-08 0 0
301 4.455447321013562e-08 0 0
302 4.470348482622302e-08 0 0
303 4.485249644231044e-08 0 0
304 4.500150805839784e-08 0 0
305 4.515051967448526e-08 0 0
306 4.529953129057267e-08 0 0
307 4.544854290666007e-08 0 0
308 4.559755452274748e-08 0 0
309 4.57465661388349e-08 0 0
310 4.589557775492231e-08 0 0
311 4.604458937100971e-08 0 0
312 4.619360098709713e-08 0 0
313 4.634261260318454e-08 0 0
314 4.649162421927194e-08 0 0
315 4.664063583535936e-08 0 0
316 4.678964745144676e-08 0 0
317 4.693865906753418e-08 0 0
318 4.708767068362159e-08 0 0
319 4.7236682299709e-08 0 0
320 4.738569391579641e-08 0 0
321 4.753470553188382e-08 0 0
322 4.768371714797123e-08 0 0
323 4.783272876405864e-08 0 0
324 4.798174038014605e-08 0 0
325 4.813075199623345e-08 0 0
326 4.827976361232087e-08 0 0
327 4.842877522840828e-08 0 0
328 4.857778684449568e-08 0 0
329 4.87267984605831e-08 0 0
330 4.887581007667051e-08 0 0
331 4.902482169275792e-08 0 0
332 4.917383330884533e-08 0 0
333 4.932284492493274e-08 0 0
334 4.947185654102015e-08 0 0
335 4.962086815710756e-08 0 0
336 4.976987977319497e-08 0 0
337 4.991889138928237e-08 0 0
338 5.006790300536979e-08 0 0
339 5.02169146214572e-08 0 0
340 5.036592623754461e-08 0 0
341 5.051493785363202e-08 0 0
342 5.066394946971943e-08 0 0
343 5.081296108580684e-08 0 0
344 5.096197270189425e-08 0 0
345 5.111098431798166e-08 0 0
346 5.125999593406908e-08 0 0
347 5.140900755015648e-08 0 0
348 5.155801916624389e-08 0 0
349 5.17070307823313e-08 0 0
350 5.185604239841871e-08 0 0
351 5.200505401450612e-08 0 0
352 5.215406563059353e-08 0 0
353 5.230307724668094e-08 0 0
354 5.245208886276834e-08 0 0
355 5.260110047885576e-08 0 0
356 5.275011209494317e-08 0 0
357 5.289912371103058e-08 0 0
358 5.304813532711799e-08 0 0
359 5.31971469432054e-08 0 0
360 5.334615855929281e-08 0 0
361 5.349517017538022e-08 0 0
362 5.364418179146763e-08 0 0
363 5.379319340755505e-08 0 0
364 5.394220502364245e-08 0 0
365 5.409121663972986e-08 0 0
366 5.424022825581727e-08 0 0
367 5.438923987190468e-08 0 0
368 5.453825148799209e-08 0 0
369 5.46872631040795e-08 0 0
370 5.483627472016691e-08 0 0
371 5.498528633625432e-08 0 0
372 5.513429795234174e-08 0 0
373 5.528330956842914e-08 0 0
374 5.543232118451655e-08 0 0
375 5.558133280060397e-08 0 0
376 5.573034441669137e-08 0 0
377 5.587935603277878e-08 0 0
378 5.602836764886619e-08 0 0
379 5.61773792649536e-08 0 0
380 5.632639088104101e-08 0 0
381 5.647540249712842e-08 0 0
382 5.662441411321583e-08 0 0
383 5.677342572930324e-08 0 0
384 5.692243734539066e-08 0 0
385 5.707144896147806e-08 0 0
386 5.722046057756548e-08 0 0
387 5.736947219365288e-08 0 0
388 5.751848380974029e-08 0 0
389 5.766749542582771e-08 0 0
390 5.781650704191511e-08 0 0
391 5.796551865800252e-08 0 0
392 5.811453027408994e-08 0 0
393 5.826354189017735e-08 0 0
394 5.841255350626475e-08 0 0
395 5.856156512235216e-08 0 0
396 5.871057673843958e-08 0 0
397 5.885958835452698e-08 0 0
398 5.90085999706144e-08 0 0
399 5.91576115867018e-08 0 0
400 5.930662320278921e-08 0 0
401 5.945563481887663e-08 0 0
402 5.960464643496403e-08 0 0
403 5.975365805105144e-08 0 0
404 5.990266966713885e-08 0 0
405 6.005168128322627e-08 0 0
406 6.020069289931367e-08 0 0
407 6.034970451540109e-08 0 0
408 6.049871613148849e-08 0 0
409 6.06477277475759e-08 0 0
410 6.079673936366332e-08 0 0
411 6.094575097975073e-08 0 0
412 6.109476259583814e-08 0 0
413 6.124377421192554e-08 0 0
414 6.139278582801295e-08 0 0
415 6.154179744410037e-08 0 0
416 6.169080906018778e-08 0 0
417 6.183982067627518e-08 0 0
418 6.198883229236259e-08 0 0
419 6.213784390845001e-08 0 0
420 6.228685552453742e-08 0 0
421 6.243586714062483e-08 0 0
422 6.258487875671223e-08 0 0
423 6.273389037279964e-08 0 0
424 6.288290198888706e-08 0 0
425 6.303191360497447e-08 0 0
426 6.318092522106187e-08 0 0
427 6.33299368371493e-08 0 0
428 6.347894845323669e-08 0 0
429 6.362796006932411e-08 0 0
430 6.377697168541152e-08 0 0
431 6.392598330149892e-08 0 0
432 6.407499491758633e-08 0 0
433 6.422400653367375e-08 0 0
434 6.437301814976116e-08 0 0
435 6.452202976584857e-08 0 0
436 6.467104138193598e-08 0 0
437 6.482005299802338e-08 0 0
438 6.49690646141108e-08 0 0
439 6.511807623019821e-08 0 0
440 6.526708784628562e-08 0 0
441 6.541609946237303e-08 0 0
442 6.556511107846043e-08 0 0
443 6.571412269454785e-08 0 0
444 6.586313431063526e-08 0 0
445 6.601214592672267e-08 0 0
446 6.616115754281007e-08 0 0
447 6.631016915889749e-08 0 0
448 6.64591807749849e-08 0 0
449 6.660819239107231e-08 0 0
450 6.675720400715972e-08 0 0
451 6.690621562324712e-08 0 0
452 6.705522723933454e-08 0 0
453 6.720423885542195e-08 0 0
454 6.735325047150936e-08 0 0
455 6.750226208759676e-08 0 0
456 6.765127370368417e-08 0 0
457 6.780028531977159e-08 0 0
458 6.7949296935859e-08 0 0
459 6.809830855194641e-08 0 0
460 6.824732016803381e-08 0 0
461 6.839633178412124e-08 0 0
462 6.854534340020864e-08 0 0
463 6.869435501629605e-08 0 0
464 6.884336663238346e-08 0 0
465 6.899237824847088e-08 0 0
466 6.914138986455828e-08 0 0
467 6.929040148064569e-08 0 0
468 6.94394130967331e-08 0 0
469 6.95884247128205e-08 0 0
470 6.973743632890793e-08 0 0
471 6.988644794499533e-08 0 0
472 7.003545956108274e-08 0 0
473 7.018447117717015e-08 0 0
474 7.033348279325757e-08 0 0
475 7.048249440934496e-08 0 0
476 7.063150602543238e-08 0 0
477 7.078051764151979e-08 0 0
478 7.09295292576072e-08 0 0
479 7.107854087369462e-08 0 0
480 7.122755248978202e-08 0 0
481 7.137656410586944e-08 0 0
482 7.152557572195684e-08 0 0
483 7.167458733804425e-08 0 0
484 7.182359895413167e-08 0 0
485 7.197261057021907e-08 0 0
486 7.212162218630648e-08 0 0
487 7.227063380239389e-08 0 0
488 7.24196454184813e-08 0 0
489 7.25686570345687e-08 0 0
490 7.271766865065613e-08 0 0
491 7.286668026674353e-08 0 0
492 7.301569188283094e-08 0 0
493 7.316470349891836e-08 0 0
494 7.331371511500577e-08 0 0
495 7.346272673109317e-08 0 0
496 7.361173834718058e-08 0 0
497 7.376074996326799e-08 0 0
498 7.390976157935539e-08 0 0
499 7.405877319544282e-08 0 0
500 7.420778481153022e-08 0 0
501 7.435679642761763e-08 0 0
502 7.450580804370504e-08 0 0
503 7.465481965979246e-08 0 0
504 7.480383127587987e-08 0 0
505 7.495284289196727e-08 0 0
506 7.510185450805468e-08 0 0
507 7.52508661241421e-08 0 0
508 7.539987774022951e-08 0 0
509 7.554888935631691e-08 0 0
510 7.569790097240432e-08 0 0
511 7.584691258849173e-08 0 0
512 7.599592420457915e-08 0 0
513 7.614493582066656e-08 0 0
514 7.629394743675396e-08 0 0
515 7.644295905284137e-08 0 0
516 7.659197066892878e-08 0 0
517 7.67409822850162e-08 0 0
518 7.688999390110361e-08 0 0
519 7.703900551719101e-08 0 0
520 7.718801713327842e-08 0 0
521 7.733702874936584e-08 0 0
522 7.748604036545323e-08 0 0
523 7.763505198154065e-08 0 0
524 7.778406359762807e-08 0 0
525 7.793307521371547e-08 0 0
526 7.808208682980289e-08 0 0
527 7.82310984458903e-08 0 0
528 7.83801100619777e-08 0 0
529 7.852912167806511e-08 0 0
530 7.867813329415252e-08 0 0
531 7.882714491023992e-08 0 0
532 7.897615652632735e-08 0 0
533 7.912516814241476e-08 0 0
534 7.927417975850216e-08 0 0
535 7.942319137458957e-08 0 0
536 7.957220299067699e-08 0 0
537 7.972121460676439e-08 0 0
538 7.98702262228518e-08 0 0
539 8.001923783893921e-08 0 0
540 8.016824945502664e-08 0 0
541 8.031726107111404e-08 0 0
542 8.046627268720145e-08 0 0
543 8.061528430328886e-08 0 0
544 8.076429591937626e-08 0 0
545 8.091330753546368e-08 0 0
546 8.106231915155109e-08 0 0
547 8.121133076763849e-08 0 0
548 8.136034238372591e-08 0 0
549 8.150935399981333e-08 0 0
550 8.165836561590073e-08 0 0
551 8.180737723198814e-08 0 0
552 8.195638884807555e-08 0 0
553 8.210540046416295e-08 0 0
554 8.225441208025037e-08 0 0
555 8.240342369633778e-08 0 0
556 8.255243531242518e-08 0 0
557 8.27014469285126e-08 0 0
558 8.285045854460002e-08 0 0
559 8.299947016068742e-08 0 0
560 8.314848177677483e-08 0 0
561 8.329749339286224e-08 0 0
562 8.344650500894964e-08 0 0
563 8.359551662503705e-08 0 0
564 8.374452824112448e-08 0 0
565 8.389353985721187e-08 0 0
566 8.404255147329929e-08 0 0
567 8.419156308938671e-08 0 0
568 8.434057470547411e-08 0 0
569 8.448958632156152e-08 0 0
570 8.463859793764893e-08 0 0
571 8.478760955373633e-08 0 0
572 8.493662116982374e-08 0 0
573 8.508563278591117e-08 0 0
574 8.523464440199856e-08 0 0
575 8.538365601808598e-08 0 0
576 8.553266763417339e-08 0 0
577 8.568167925026079e-08 0 0
578 8.583069086634821e-08 0 0
579 8.597970248243562e-08 0 0
580 8.612871409852302e-08 0 0
581 8.627772571461043e-08 0 0
582 8.642673733069786e-08 0 0
583 8.657574894678526e-08 0 0
584 8.672476056287267e-08 0 0
585 8.687377217896008e-08 0 0
586 8.70227837950475e-08 0 0
587 8.71717954111349e-08 0 0
588 8.732080702722231e-08 0 0
589 8.746981864330973e-08 0 0
590 8.761883025939712e-08 0 0
591 8.776784187548455e-08 0 0
592 8.791685349157196e-08 0 0
593 8.806586510765936e-08 0 0
594 8.821487672374677e-08 0 0
595 8.836388833983418e-08 0 0
596 8.851289995592158e-08 0 0
597 8.8661911572009e-08 0 0
598 8.881092318809642e-08 0 0
599 8.895993480418382e-08 0 0
600 8.910894642027124e-08 0 0
601 8.925795803635865e-08 0 0
602 8.940696965244605e-08 0 0
603 8.955598126853346e-08 0 0
604 8.970499288462087e-08 0 0
605 8.985400450070827e-08 0 0
606 9.000301611679569e-08 0 0
607 9.015202773288311e-08 0 0
608 9.030103934897051e-08 0 0
609 9.045005096505792e-08 0 0
610 9.059906258114534e-08 0 0
611 9.074807419723274e-08 0 0
612 9.089708581332015e-08 0 0
613 9.104609742940756e-08 0 0
614 9.119510904549496e-08 0 0
615 9.134412066158239e-08 0 0
616 9.14931322776698e-08 0 0
617 9.16421438937572e-08 0 0
618 9.179115550984461e-08 0 0
619 9.194016712593203e-08 0 0
620 9.208917874201943e-08 0 0
621 9.223819035810684e-08 0 0
622 9.238720197419425e-08 0 0
623 9.253621359028165e-08 0 0
624 9.268522520636908e-08 0 0
625 9.283423682245649e-08 0 0
626 9.298324843854389e-08 0 0
627 9.31322600546313e-08 0 0
628 9.328127167071872e-08 0 0
629 9.343028328680611e-08 0 0
630 9.357929490289353e-08 0 0
631 9.372830651898095e-08 0 0
632 9.387731813506837e-08 0 0
633 9.402632975115577e-08 0 0
634 9.417534136724318e-08 0 0
635 9.432435298333059e-08 0 0
636 9.447336459941799e-08 0 0
637 9.46223762155054e-08 0 0
638 9.477138783159282e-08 0 0
639 9.492039944768022e-08 0 0
640 9.506941106376764e-08 0 0
641 9.521842267985506e-08 0 0
642 9.536743429594245e-08 0 0
643 9.551644591202987e-08 0 0
644 9.566545752811728e-08 0 0
645 9.581446914420468e-08 0 0
646 9.596348076029209e-08 0 0
647 9.611249237637951e-08 0 0
648 9.626150399246691e-08 0 0
649 9.641051560855433e-08 0 0
650 9.655952722464174e-08 0 0
651 9.670853884072914e-08 0 0
652 9.685755045681656e-08 0 0
653 9.700656207290397e-08 0 0
654 9.715557368899137e-08 0 0
655 9.730458530507878e-08 0 0
656 9.745359692116621e-08 0 0
657 9.760260853725359e-08 0 0
658 9.775162015334102e-08 0 0
659 9.790063176942843e-08 0 0
660 9.804964338551583e-08 0 0
661 9.819865500160325e-08 0 0
662 9.834766661769066e-08 0 0
663 9.849667823377806e-08 0 0
664 9.864568984986547e-08 0 0
665 9.87947014659529e-08 0 0
666 9.89437130820403e-08 0 0
667 9.909272469812771e-08 0 0
668 9.924173631421512e-08 0 0
669 9.939074793030252e-08 0 0
670 9.953975954638993e-08 0 0
671 9.968877116247735e-08 0 0
672 9.983778277856475e-08 0 0
673 9.998679439465216e-08 0 0
674 1.001358060107396e-07 0 0
675 1.00284817626827e-07 0 0
676 1.004338292429144e-07 0 0
677 1.005828408590018e-07 0 0
678 1.007318524750892e-07 0 0
679 1.008808640911766e-07 0 0
680 1.01029875707264e-07 0 0
681 1.011788873233515e-07 0 0
682 1.013278989394389e-07 0 0
683 1.014769105555263e-07 0 0
684 1.016259221716137e-07 0 0
685 1.017749337877011e-07 0 0
686 1.019239454037885e-07 0 0
687 1.020729570198759e-07 0 0
688 1.022219686359633e-07 0 0
689 1.023709802520507e-07 0 0
690 1.025199918681382e-07 0 0
691 1.026690034842256e-07 0 0
692 1.02818015100313e-07 0 0
693 1.029670267164004e-07 0 0
694 1.031160383324878e-07 0 0
695 1.032650499485752e-07 0 0
696 1.034140615646626e-07 0 0
697 1.0356307318075e-07 0 0
698 1.037120847968374e-07 0 0
699 1.038610964129248e-07 0 0
700 1.040101080290122e-07 0 0
701 1.041591196450997e-07 0 0
702 1.043081312611871e-07 0 0
703 1.044571428772745e-07 0 0
704 1.046061544933619e-07 0 0
705 1.047551661094493e-07 0 0
706 1.049041777255367e-07 0 0
707 1.050531893416241e-07 0 0
708 1.052022009577115e-07 0 0
709 1.053512125737989e-07 0 0
710 1.055002241898863e-07 0 0
711 1.056492358059738e-07 0 0
712 1.057982474220612e-07 0 0
713 1.059472590381486e-07 0 0
714 1.06096270654236e-07 0 0
715 1.062452822703234e-07 0 0
716 1.063942938864108e-07 0 0
717 1.065433055024982e-07 0 0
718 1.066923171185856e-07 0 0
719 1.06841328734673e-07 0 0
720 1.069903403507604e-07 0 0
721 1.071393519668478e-07 0 0
722 1.072883635829353e-07 0 0
723 1.074373751990227e-07 0 0
724 1.075863868151101e-07 0 0
725 1.077353984311975e-07 0 0
726 1.078844100472849e-07 0 0
727 1.080334216633723e-07 0 0
728 1.081824332794597e-07 0 0
729 1.083314448955471e-07 0 0
730 1.084804565116345e-07 0 0
731 1.086294681277219e-07 0 0
732 1.087784797438094e-07 0 0
733 1.089274913598968e-07 0 0
734 1.090765029759842e-07 0 0
735 1.092255145920716e-07 0 0
736 1.09374526208159e-07 0 0
737 1.095235378242464e-07 0 0
738 1.096725494403338e-07 0 0
739 1.098215610564212e-07 0 0
740 1.099705726725086e-07 0 0
741 1.101195842885961e-07 0 0
742 1.102685959046835e-07 0 0
743 1.104176075207709e-07 0 0
744 1.105666191368583e-07 0 0
745 1.107156307529457e-07 0 0
746 1.108646423690331e-07 0 0
747 1.110136539851205e-07 0 0
748 1.111626656012079e-07 0 0
749 1.113116772172953e-07 0 0
750 1.114606888333827e-07 0 0
751 1.116097004494702e-07 0 0
752 1.117587120655576e-07 0 0
753 1.11907723681645e-07 0 0
754 1.120567352977324e-07 0 0
755 1.122057469138198e-07 0 0
756 1.123547585299072e-07 0 0
757 1.125037701459946e-07 0 0
758 1.12652781762082e-07 0 0
759 1.128017933781694e-07 0 0
760 1.129508049942568e-07 0 0
761 1.130998166103442e-07 0 0
762 1.132488282264317e-07 0 0
763 1.133978398425191e-07 0 0
764 1.135468514586065e-07 0 0
765 1.136958630746939e-07 0 0
766 1.138448746907813e-07 0 0
767 1.139938863068687e-07 0 0
768 1.141428979229561e-07 0 0
769 1.142919095390435e-07 0 0
770 1.14440921155131e-07 0 0
771 1.145899327712184e-07 0 0
772 1.147389443873058e-07 0 0
773 1.148879560033932e-07 0 0
774 1.150369676194806e-07 0 0
775 1.15185979235568e-07 0 0
776 1.153349908516554e-07 0 0
777 1.154840024677428e-07 0 0
778 1.156330140838302e-07 0 0
779 1.157820256999176e-07 0 0
780 1.15931037316005e-07 0 0
781 1.160800489320925e-07 0 0
782 1.162290605481799e-07 0 0
783 1.163780721642673e-07 0 0
784 1.165270837803547e-07 0 0
785 1.166760953964421e-07 0 0
786 1.168251070125295e-07 0 0
787 1.169741186286169e-07 0 0
788 1.171231302447043e-07 0 0
789 1.172721418607917e-07 0 0
790 1.174211534768792e-07 0 0
791 1.175701650929666e-07 0 0
792 1.17719176709054e-07 0 0
793 1.178681883251414e-07 0 0
794 1.180171999412288e-07 0 0
795 1.181662115573162e-07 0 0
796 1.183152231734036e-07 0 0
797 1.18464234789491e-07 0 0
798 1.186132464055784e-07 0 0
799 1.187622580216658e-07 0 0
800 1.189112696377533e-07 0 0
801 1.190602812538407e-07 0 0
$EndNodes
$Elements
802
1 15 2 1 1 1
2 15 2 2 2 2
3 1 2 3 1 1 3
4 1 2 3 1 3 4
5 1 2 3 1 4 5
6 1 2 3 1 5 6
7 1 2 3 1 6 7
8 1 2 3 1 7 8
9 1 2 3 1 8 9
10 1 2 3 1 9 10
11 1 2 3 1 10 11
12 1 2 3 1 11 12
13 1 2 3 1 12 13
14 1 2 3 1 13 14
15 1 2 3 1 14 15
16 1 2 3 1 15 16
17 1 2 3 1 16 17
18 1 2 3 1 17 18
19 1 2 3 1 18 19
20 1 2 3 1 19 20
21 1 2 3 1 20 21
22 1 2 3 1 21 22
23 1 2 3 1 22 23
24 1 2 3 1 23 24
25 1 2 3 1 24 25
26 1 2 3 1 25 26
27 1 2 3 1 26 27
28 1 2 3 1 27 28
29 1 2 3 1 28 29
30 1 2 3 1 29 30
31 1 2 3 1 30 31
32 1 2 3 1 31 32
33 1 2 3 1 32 33
34 1 2 3 1 33 34
35 1 2 3 1 34 35
36 1 2 3 1 35 36
37 1 2 3 1 36 37
38 1 2 3 1 37 38
39 1 2 3 1 38 39
40 1 2 3 1 39 40
41 1 2 3 1 40 41
42 1 2 3 1 41 42
43 1 2 3 1 42 43
44 1 2 3 1 43 44
45 1 2 3 1 44 45
46 1 2 3 1 45 46
47 1 2 3 1 46 47
48 1 2 3 1 47 48
49 1 2 3 1 48 49
50 1 2 3 1 49 50
51 1 2 3 1 50 51
52 1 2 3 1 51 52
53 1 2 3 1 52 53
54 1 2 3 1 53 54
55 1 2 3 1 54 55
56 1 2 3 1 55 56
57 1 2 3 1 56 57
58 1 2 3 1 57 58
59 1 2 3 1 58 59
60 1 2 3 1 59 60
61 1 2 3 1 60 61
62 1 2 3 1 61 62
63 1 2 3 1 62 63
64 1 2 3 1 63 64
65 1 2 3 1 64 65
66 1 2 3 1 65 66
67 1 2 3 1 66 67
68 1 2 3 1 67 68
69 1 2 3 1 68 69
70 1 2 3 1 69 70
71 1 2 3 1 70 71
72 1 2 3 1 71 72
73 1 2 3 1 72 73
74 1 2 3 1 73 74
75 1 2 3 1 74 75
76 1 2 3 1 75 76
77 1 2 3 1 76 77
78 1 2 3 1 77 78
79 1 2 3 1 78 79
80 1 2 3 1 79 80
81 1 2 3 1 80 81
82 1 2 3 1 81 82
83 1 2 3 1 82 83
84 1 2 3 1 83 84
85 1 2 3 1 84 85
86 1 2 3 1 85 86
87 1 2 3 1 86 87
88 1 2 3 1 87 88
89 1 2 3 1 88 89
90 1 2 3 1 89 90
91 1 2 3 1 90 91
92 1 2 3 1 91 92
93 1 2 3 1 92 93
94 1 2 3 1 93 94
95 1 2 3 1 94 95
96 1 2 3 1 95 96
97 1 2 3 1 96 97
98 1 2 3 1 97 98
99 1 2 3 1 98 99
100 1 2 3 1 99 100
101 1 2 3 1 100 101
102 1 2 3 1 101 102
103 1 2 3 1 102 103
104 1 2 3 1 103 104
105 1 2 3 1 104 105
106 1 2 3 1 105 106
107 1 2 3 1 106 107
108 1 2 3 1 107 108
109 1 2 3 1 108 109
110 1 2 3 1 109 110
111 1 2 3 1 110 111
112 1 2 3 1 111 112
113 1 2 3 1 112 113
114 1 2 3 1 113 114
115 1 2 3 1 114 115
116 1 2 3 1 115 116
117 1 2 3 1 116 117
118 1 2 3 1 117 118
119 1 2 3 1 118 119
120 1 2 3 1 119 120
121 1 2 3 1 120 121
122 1 2 3 1 121 122
123 1 2 3 1 122 123
124 1 2 3 1 123 124
125 1 2 3 1 124 125
126 1 2 3 1 125 126
127 1 2 3 1 126 127
128 1 2 3 1 127 128
129 1 2 3 1 128 129
130 1 2 3 1 129 130
131 1 2 3 1 130 131
132 1 2 3 1 131 132
133 1 2 3 1 132 133
134 1 2 3 1 133 134
135 1 2 3 1 134 135
136 1 2 3 1 135 136
137 1 2 3 1 136 137
138 1 2 3 1 137 138
139 1 2 3 1 138 139
140 1 2 3 1 139 140
141 1 2 3 1 140 141
142 1 2 3 1 141 142
143 1 2 3 1 142 143
144 1 2 3 1 143 144
145 1 2 3 1 144 145
146 1 2 3 1 145 146
147 1 2 3 1 146 147
148 1 2 3 1 147 148
149 1 2 3 1 148 149
150 1 2 3 1 149 150
151 1 2 3 1 150 151
152 1 2 3 1 151 152
153 1 2 3 1 152 153
154 1 2 3 1 153 154
155 1 2 3 1 154 155
156 1 2 3 1 155 156
157 1 2 3 1 156 157
158 1 2 3 1 157 158
159 1 2 3 1 158 159
160 1 2 3 1 159 160
161 1 2 3 1 160 161
162 1 2 3 1 161 162
163 1 2 3 1 162 163
164 1 2 3 1 163 164
165 1 2 3 1 164 165
166 1 2 3 1 165 166
167 1 2 3 1 166 167
168 1 2 3 1 167 168
169 1 2 3 1 168 169
170 1 2 3 1 169 170
171 1 2 3 1 170 171
172 1 2 3 1 171 172
173 1 2 3 1 172 173
174 1 2 3 1 173 174
175 1 2 3 1 174 175
176 1 2 3 1 175 176
177 1 2 3 1 176 177
178 1 2 3 1 177 178
179 1 2 3 1 178 179
180 1 2 3 1 179 180
181 1 2 3 1 180 181
182 1 2 3 1 181 182
183 1 2 3 1 182 183
184 1 2 3 1 183 184
185 1 2 3 1 184 185
186 1 2 3 1 185 186
187 1 2 3 1 186 187
188 1 2 3 1 187 188
189 1 2 3 1 188 189
190 1 2 3 1 189 190
191 1 2 3 1 190 191
192 1 2 3 1 191 192
193 1 2 3 1 192 193
194 1 2 3 1 193 194
195 1 2 3 1 194 195
196 1 2 3 1 195 196
197 1 2 3 1 196 197
198 1 2 3 1 197 198
199 1 2 3 1 198 199
200 1 2 3 1 199 200
201 1 2 3 1 200 201
202 1 2 3 1 201 202
203 1 2 3 1 202 203
204 1 2 3 1 203 204
205 1 2 3 1 204 205
206 1 2 3 1 205 206
207 1 2 3 1 206 207
208 1 2 3 1 207 208
209 1 2 3 1 208 209
210 1 2 3 1 209 210
211 1 2 3 1 210 211
212 1 2 3 1 211 212
213 1 2 3 1 212 213
214 1 2 3 1 213 214
215 1 2 3 1 214 215
216 1 2 3 1 215 216
217 1 2 3 1 216 217
218 1 2 3 1 217 218
219 1 2 3 1 218 219
220 1 2 3 1 219 220
221 1 2 3 1 220 221
222 1 2 3 1 221 222
223 1 2 3 1 222 223
224 1 2 3 1 223 224
225 1 2 3 1 224 225
226 1 2 3 1 225 226
227 1 2 3 1 226 227
228 1 2 3 1 227 228
229 1 2 3 1 228 229
230 1 2 3 1 229 230
231 1 2 3 1 230 231
232 1 2 3 1 231 232
233 1 2 3 1 232 233
234 1 2 3 1 233 234
235 1 2 3 1 234 235
236 1 2 3 1 235 236
237 1 2 3 1 236 237
238 1 2 3 1 237 238
239 1 2 3 1 238 239
240 1 2 3 1 239 240
241 1 2 3 1 240 241
242 1 2 3 1 241 242
243 1 2 3 1 242 243
244 1 2 3 1 243 244
245 1 2 3 1 244 245
246 1 2 3 1 245 246
247 1 2 3 1 246 247
248 1 2 3 1 247 248
249 1 2 3 1 248 249
250 1 2 3 1 249 250
251 1 2 3 1 250 251
252 1 2 3 1 251 252
253 1 2 3 1 252 253
254 1 2 3 1 253 254
255 1 2 3 1 254 255
256 1 2 3 1 255 256
257 1 2 3 1 256 257
258 1 2 3 1 257 258
259 1 2 3 1 258 259
260 1 2 3 1 259 260
261 1 2 3 1 260 261
262 1 2 3 1 261 262
263 1 2 3 1 262 263
264 1 2 3 1 263 264
265 1 2 3 1 264 265
266 1 2 3 1 265 266
267 1 2 3 1 266 267
268 1 2 3 1 267 268
269 1 2 3 1 268 269
270 1 2 3 1 269 270
271 1 2 3 1 270 271
272 1 2 3 1 271 272
273 1 2 3 1 272 273
274 1 2 3 1 273 274
275 1 2 3 1 274 275
276 1 2 3 1 275 276
277 1 2 3 1 276 277
278 1 2 3 1 277 278
279 1 2 3 1 278 279
280 1 2 3 1 279 280
281 1 2 3 1 280 281
282 1 2 3 1 281 282
283 1 2 3 1 282 283
284 1 2 3 1 283 284
285 1 2 3 1 284 285
286 1 2 3 1 285 286
287 1 2 3 1 286 287
288 1 2 3 1 287 288
289 1 2 3 1 288 289
290 1 2 3 1 289 290
291 1 2 3 1 290 291
292 1 2 3 1 291 292
293 1 2 3 1 292 293
294 1 2 3 1 293 294
295 1 2 3 1 294 295
296 1 2 3 1 295 296
297 1 2 3 1 296 297
298 1 2 3 1 297 298
299 1 2 3 1 298 299
300 1 2 3 1 299 300
301 1 2 3 1 300 301
302 1 2 3 1 301 302
303 1 2 3 1 302 303
304 1 2 3 1 303 304
305 1 2 3 1 304 305
306 1 2 3 1 305 306
307 1 2 3 1 306 307
308 1 2 3 1 307 308
309 1 2 3 1 308 309
310 1 2 3 1 309 310
311 1 2 3 1 310 311
312 1 2 3 1 311 312
313 1 2 3 1 312 313
314 1 2 3 1 313 314
315 1 2 3 1 314 315
316 1 2 3 1 315 316
317 1 2 3 1 316 317
318 1 2 3 1 317 318
319 1 2 3 1 318 319
320 1 2 3 1 319 320
321 1 2 3 1 320 321
322 1 2 3 1 321 322
323 1 2 3 1 322 323
324 1 2 3 1 323 324
325 1 2 3 1 324 325
326 1 2 3 1 325 326
327 1 2 3 1 326 327
328 1 2 3 1 327 328
329 1 2 3 1 328 329
330 1 2 3 1 329 330
331 1 2 3 1 330 331
332 1 2 3 1 331 332
333 1 2 3 1 332 333
334 1 2 3 1 333 334
335 1 2 3 1 334 335
336 1 2 3 1 335 336
337 1 2 3 1 336 337
338 1 2 3 1 337 338
339 1 2 3 1 338 339
340 1 2 3 1 339 340
341 1 2 3 1 340 341
342 1 2 3 1 341 342
343 1 2 3 1 342 343
344 1 2 3 1 343 344
345 1 2 3 1 344 345
346 1 2 3 1 345 346
347 1 2 3 1 346 347
348 1 2 3 1 347 348
349 1 2 3 1 348 349
350 1 2 3 1 349 350
351 1 2 3 1 350 351
352 1 2 3 1 351 352
353 1 2 3 1 352 353
354 1 2 3 1 353 354
355 1 2 3 1 354 355
356 1 2 3 1 355 356
357 1 2 3 1 356 357
358 1 2 3 1 357 358
359 1 2 3 1 358 359
360 1 2 3 1 359 360
361 1 2 3 1 360 361
362 1 2 3 1 361 362
363 1 2 3 1 362 363
364 1 2 3 1 363 364
365 1 2 3 1 364 365
366 1 2 3 1 365 366
367 1 2 3 1 366 367
368 1 2 3 1 367 368
369 1 2 3 1 368 369
370 1 2 3 1 369 370
371 1 2 3 1 370 371
372 1 2 3 1 371 372
373 1 2 3 1 372 373
374 1 2 3 1 373 374
375 1 2 3 1 374 375
376 1 2 3 1 375 376
377 1 2 3 1 376 377
378 1 2 3 1 377 378
379 1 2 3 1 378 379
380 1 2 3 1 379 380
381 1 2 3 1 380 381
382 1 2 3 1 381 382
383 1 2 3 1 382 383
384 1 2 3 1 383 384
385 1 2 3 1 384 385
386 1 2 3 1 385 386
387 1 2 3 1 386 387
388 1 2 3 1 387 388
389 1 2 3 1 388 389
390 1 2 3 1 389 390
391 1 2 3 1 390 391
392 1 2 3 1 391 392
393 1 2 3 1 392 393
394 1 2 3 1 393 394
395 1 2 3 1 394 395
396 1 2 3 1 395 396
397 1 2 3 1 396 397
398 1 2 3 1 397 398
399 1 2 3 1 398 399
400 1 2 3 1 399 400
401 1 2 3 1 400 401
402 1 2 3 1 401 402
403 1 2 3 1 402 403
404 1 2 3 1 403 404
405 1 2 3 1 404 405
406 1 2 3 1 405 406
407 1 2 3 1 406 407
408 1 2 3 1 407 408
409 1 2 3 1 408 409
410 1 2 3 1 409 410
411 1 2 3 1 410 411
412 1 2 3 1 411 412
413 1 2 3 1 412 413
414 1 2 3 1 413 414
415 1 2 3 1 414 415
416 1 2 3 1 415 416
417 1 2 3 1 416 417
418 1 2 3 1 417 418
419 1 2 3 1 418 419
420 1 2 3 1 419 420
421 1 2 3 1 420 421
422 1 2 3 1 421 422
423 1 2 3 1 422 423
424 1 2 3 1 423 424
425 1 2 3 1 424 425
426 1 2 3 1 425 426
427 1 2 3 1 426 427
428 1 2 3 1 427 428
429 1 2 3 1 428 429
430 1 2 3 1 429 430
431 1 2 3 1 430 431
432 1 2 3 1 431 432
433 1 2 3 1 432 433
434 1 2 3 1 433 434
435 1 2 3 1 434 435
436 1 2 3 1 435 436
437 1 2 3 1 436 437
438 1 2 3 1 437 438
439 1 2 3 1 438 439
440 1 2 3 1 439 440
441 1 2 3 1 440 441
442 1 2 3 1 441 442
443 1 2 3 1 442 443
444 1 2 3 1 443 444
445 1 2 3 1 444 445
446 1 2 3 1 445 446
447 1 2 3 1 446 447
448 1 2 3 1 447 448
449 1 2 3 1 448 449
450 1 2 3 1 449 450
451 1 2 3 1 450 451
452 1 2 3 1 451 452
453 1 2 3 1 452 453
454 1 2 3 1 453 454
455 1 2 3 1 454 455
456 1 2 3 1 455 456
457 1 2 3 1 456 457
458 1 2 3 1 457 458
459 1 2 3 1 458 459
460 1 2 3 1 459 460
461 1 2 3 1 460 461
462 1 2 3 1 461 462
463 1 2 3 1 462 463
464 1 2 3 1 463 464
465 1 2 3 1 464 465
466 1 2 3 1 465 466
467 1 2 3 1 466 467
468 1 2 3 1 467 468
469 1 2 3 1 468 469
470 1 2 3 1 469 470
471 1 2 3 1 470 471
472 1 2 3 1 471 472
473 1 2 3 1 472 473
474 1 2 3 1 473 474
475 1 2 3 1 474 475
476 1 2 3 1 475 476
477 1 2 3 1 476 477
478 1 2 3 1 477 478
479 1 2 3 1 478 479
480 1 2 3 1 479 480
481 1 2 3 1 480 481
482 1 2 3 1 481 482
483 1 2 3 1 482 483
484 1 2 3 1 483 484
485 1 2 3 1 484 485
486 1 2 3 1 485 486
487 1 2 3 1 486 487
488 1 2 3 1 487 488
489 1 2 3 1 488 489
490 1 2 3 1 489 490
491 1 2 3 1 490 491
492 1 2 3 1 491 492
493 1 2 3 1 492 493
494 1 2 3 1 493 494
495 1 2 3 1 494 495
496 1 2 3 1 495 496
497 1 2 3 1 496 497
498 1 2 3 1 497 498
499 1 2 3 1 498 499
500 1 2 3 1 499 500
501 1 2 3 1 500 501
502 1 2 3 1 501 502
503 1 2 3 1 502 503
504 1 2 3 1 503 504
505 1 2 3 1 504 505
506 1 2 3 1 505 506
507 1 2 3 1 506 507
508 1 2 3 1 507 508
509 1 2 3 1 508 509
510 1 2 3 1 509 510
511 1 2 3 1 510 511
512 1 2 3 1 511 512
513 1 2 3 1 512 513
514 1 2 3 1 513 514
515 1 2 3 1 514 515
516 1 2 3 1 515 516
517 1 2 3 1 516 517
518 1 2 3 1 517 518
519 1 2 3 1 518 519
520 1 2 3 1 519 520
521 1 2 3 1 520 521
522 1 2 3 1 521 522
523 1 2 3 1 522 523
524 1 2 3 1 523 524
525 1 2 3 1 524 525
526 1 2 3 1 525 526
527 1 2 3 1 526 527
528 1 2 3 1 527 528
529 1 2 3 1 528 529
530 1 2 3 1 529 530
531 1 2 3 1 530 531
532 1 2 3 1 531 532
533 1 2 3 1 532 533
534 1 2 3 1 533 534
535 1 2 3 1 534 535
536 1 2 3 1 535 536
537 1 2 3 1 536 537
538 1 2 3 1 537 538
539 1 2 3 1 538 539
540 1 2 3 1 539 540
541 1 2 3 1 540 541
542 1 2 3 1 541 542
543 1 2 3 1 542 543
544 1 2 3 1 543 544
545 1 2 3 1 544 545
546 1 2 3 1 545 546
547 1 2 3 1 546 547
548 1 2 3 1 547 548
549 1 2 3 1 548 549
550 1 2 3 1 549 550
551 1 2 3 1 550 551
552 1 2 3 1 551 552
553 1 2 3 1 552 553
554 1 2 3 1 553 554
555 1 2 3 1 554 555
556 1 2 3 1 555 556
557 1 2 3 1 556 557
558 1 2 3 1 557 558
559 1 2 3 1 558 559
560 1 2 3 1 559 560
561 1 2 3 1 560 561
562 1 2 3 1 561 562
563 1 2 3 1 562 563
564 1 2 3 1 563 564
565 1 2 3 1 564 565
566 1 2 3 1 565 566
567 1 2 3 1 566 567
568 1 2 3 1 567 568
569 1 2 3 1 568 569
570 1 2 3 1 569 570
571 1 2 3 1 570 571
572 1 2 3 1 571 572
573 1 2 3 1 572 573
574 1 2 3 1 573 574
575 1 2 3 1 574 575
576 1 2 3 1 575 576
577 1 2 3 1 576 577
578 1 2 3 1 577 578
579 1 2 3 1 578 579
580 1 2 3 1 579 580
581 1 2 3 1 580 581
582 1 2 3 1 581 582
583 1 2 3 1 582 583
584 1 2 3 1 583 584
585 1 2 3 1 584 585
586 1 2 3 1 585 586
587 1 2 3 1 586 587
588 1 2 3 1 587 588
589 1 2 3 1 588 589
590 1 2 3 1 589 590
591 1 2 3 1 590 591
592 1 2 3 1 591 592
593 1 2 3 1 592 593
594 1 2 3 1 593 594
595 1 2 3 1 594 595
596 1 2 3 1 595 596
597 1 2 3 1 596 597
598 1 2 3 1 597 598
599 1 2 3 1 598 599
600 1 2 3 1 599 600
601 1 2 3 1 600 601
602 1 2 3 1 601 602
603 1 2 3 1 602 603
604 1 2 3 1 603 604
605 1 2 3 1 604 605
606 1 2 3 1 605 606
607 1 2 3 1 606 607
608 1 2 3 1 607 608
609 1 2 3 1 608 609
610 1 2 3 1 609 610
611 1 2 3 1 610 611
612 1 2 3 1 611 612
613 1 2 3 1 612 613
614 1 2 3 1 613 614
615 1 2 3 1 614 615
616 1 2 3 1 615 616
617 1 2 3 1 616 617
618 1 2 3 1 617 618
619 1 2 3 1 618 619
620 1 2 3 1 619 620
621 1 2 3 1 620 621
622 1 2 3 1 621 622
623 1 2 3 1 622 623
624 1 2 3 1 623 624
625 1 2 3 1 624 625
626 1 2 3 1 625 626
627 1 2 3 1 626 627
628 1 2 3 1 627 628
629 1 2 3 1 628 629
630 1 2 3 1 629 630
631 1 2 3 1 630 631
632 1 2 3 1 631 632
633 1 2 3 1 632 633
634 1 2 3 1 633 634
635 1 2 3 1 634 635
636 1 2 3 1 635 636
637 1 2 3 1 636 637
638 1 2 3 1 637 638
639 1 2 3 1 638 639
640 1 2 3 1 639 640
641 1 2 3 1 640 641
642 1 2 3 1 641 642
643 1 2 3 1 642 643
644 1 2 3 1 643 644
645 1 2 3 1 644 645
646 1 2 3 1 645 646
647 1 2 3 1 646 647
648 1 2 3 1 647 648
649 1 2 3 1 648 649
650 1 2 3 1 649 650
651 1 2 3 1 650 651
652 1 2 3 1 651 652
653 1 2 3 1 652 653
654 1 2 3 1 653 654
655 1 2 3 1 654 655
656 1 2 3 1 655 656
657 1 2 3 1 656 657
658 1 2 3 1 657 658
659 1 2 3 1 658 659
660 1 2 3 1 659 660
661 1 2 3 1 660 661
662 1 2 3 1 661 662
663 1 2 3 1 662 663
664 1 2 3 1 663 664
665 1 2 3 1 664 665
666 1 2 3 1 665 666
667 1 2 3 1 666 667
668 1 2 3 1 667 668
669 1 2 3 1 668 669
670 1 2 3 1 669 670
671 1 2 3 1 670 671
672 1 2 3 1 671 672
673 1 2 3 1 672 673
674 1 2 3 1 673 674
675 1 2 3 1 674 675
676 1 2 3 1 675 676
677 1 2 3 1 676 677
678 1 2 3 1 677 678
679 1 2 3 1 678 679
680 1 2 3 1 679 680
681 1 2 3 1 680 681
682 1 2 3 1 681 682
683 1 2 3 1 682 683
684 1 2 3 1 683 684
685 1 2 3 1 684 685
686 1 2 3 1 685 686
687 1 2 3 1 686 687
688 1 2 3 1 687 688
689 1 2 3 1 688 689
690 1 2 3 1 689 690
691 1 2 3 1 690 691
692 1 2 3 1 691 692
693 1 2 3 1 692 693
694 1 2 3 1 693 694
695 1 2 3 1 694 695
696 1 2 3 1 695 696
697 1 2 3 1 696 697
698 1 2 3 1 697 698
699 1 2 3 1 698 699
700 1 2 3 1 699 700
701 1 2 3 1 700 701
702 1 2 3 1 701 702
703 1 2 3 1 702 703
704 1 2 3 1 703 704
705 1 2 3 1 704 705
706 1 2 3 1 705 706
707 1 2 3 1 706 707
708 1 2 3 1 707 708
709 1 2 3 1 708 709
710 1 2 3 1 709 710
711 1 2 3 1 710 711
712 1 2 3 1 711 712
713 1 2 3 1 712 713
714 1 2 3 1 713 714
715 1 2 3 1 714 715
716 1 2 3 1 715 716
717 1 2 3 1 716 717
718 1 2 3 1 717 718
719 1 2 3 1 718 719
720 1 2 3 1 719 720
721 1 2 3 1 720 721
722 1 2 3 1 721 722
723 1 2 3 1 722 723
724 1 2 3 1 723 724
725 1 2 3 1 724 725
726 1 2 3 1 725 726
727 1 2 3 1 726 727
728 1 2 3 1 727 728
729 1 2 3 1 728 729
730 1 2 3 1 729 730
731 1 2 3 1 730 731
732 1 2 3 1 731 732
733 1 2 3 1 732 733
734 1 2 3 1 733 734
735 1 2 3 1 734 735
736 1 2 3 1 735 736
737 1 2 3 1 736 737
738 1 2 3 1 737 738
739 1 2 3 1 738 739
740 1 2 3 1 739 740
741 1 2 3 1 740 741
742 1 2 3 1 741 742
743 1 2 3 1 742 743
744 1 2 3 1 743 744
745 1 2 3 1 744 745
746 1 2 3 1 745 746
747 1 2 3 1 746 747
748 1 2 3 1 747 748
749 1 2 3 1 748 749
750 1 2 3 1 749 750
751 1 2 3 1 750 751
752 1 2 3 1 751 752
753 1 2 3 1 752 753
754 1 2 3 1 753 754
755 1 2 3 1 754 755
756 1 2 3 1 755 756
757 1 2 3 1 756 757
758 1 2 3 1 757 758
759 1 2 3 1 758 759
760 1 2 3 1 759 760
761 1 2 3 1 760 761
762 1 2 3 1 761 762
763 1 2 3 1 762 763
764 1 2 3 1 763 764
765 1 2 3 1 764 765
766 1 2 3 1 765 766
767 1 2 3 1 766 767
768 1 2 3 1 767 768
769 1 2 3 1 768 769
770 1 2 3 1 769 770
771 1 2 3 1 770 771
772 1 2 3 1 771 772
773 1 2 3 1 772 773
774 1 2 3 1 773 774
775 1 2 3 1 774 775
776 1 2 3 1 775 776
777 1 2 3 1 776 777
778 1 2 3 1 777 778
779 1 2 3 1 778 779
780 1 2 3 1 779 780
781 1 2 3 1 780 781
782 1 2 3 1 781 782
783 1 2 3 1 782 783
784 1 2 3 1 783 784
785 1 2 3 1 784 785
786 1 2 3 1 785 786
787 1 2 3 1 786 787
788 1 2 3 1 787 788
789 1 2 3 1 788 789
790 1 2 3 1 789 790
791 1 2 3 1 790 791
792 1 2 3 1 791 792
793 1 2 3 1 792 793
794 1 2 3 1 793 794
795 1 2 3 1 794 795
796 1 2 3 1 795 796
797 1 2 3 1 796 797
798 1 2 3 1 797 798
799 1 2 3 1 798 799
800 1 2 3 1 799 800
801 1 2 3 1 800 801
802 1 2 3 1 801 2
$EndElements
