$MeshFormat
2.2 0 8
$EndMeshFormat
$PhysicalNames
3
0 1 "Γ¹"
0 2 "Γ²"
1 3 "Ω"
$EndPhysicalNames
$Nodes
81
1 0 0 0
2 8 0 0
3 0.008236990268349342 0 0
4 0.01688582876802037 0 0
5 0.02596710913306247 0 0
6 0.03550245223259537 0 0
7 0.04551456214952707 0 0
8 0.05602727974468013 0 0
9 0.06706563163678254 0 0
10 0.07865589994855489 0 0
11 0.09082568408426597 0 0
12 0.1036039584396656 0 0
13 0.1170211449887205 0 0
14 0.1311091895955637 0 0
15 0.1459016367859766 0 0
16 0.1614337079914293 0 0
17 0.177742380795855 0 0
18 0.1948664858559228 0 0
19 0.2128467967970013 0 0
20 0.2317261234139147 0 0
21 0.2515494167149582 0 0
22 0.2723638751319556 0 0
23 0.2942190561436809 0 0
24 0.3171669956018854 0 0
25 0.3412623338337554 0 0
26 0.3665624389853779 0 0
27 0.3931275491560069 0 0
28 0.4210209142430277 0 0
29 0.4503089455379569 0 0
30 0.4810613781896531 0 0
31 0.5133514346252134 0 0
32 0.5472559959991808 0 0
33 0.5828557844343946 0 0
34 0.6202355621451829 0 0
35 0.6594843281627557 0 0
36 0.7006955332272524 0 0
37 0.7439672992211551 0 0
38 0.7894026514350645 0 0
39 0.8371097703120032 0 0
40 0.8872022464873909 0 0
41 0.9397993452480151 0 0
42 0.9950262979963278 0 0
43 1.053014599542976 0 0
44 1.113902317073421 0 0
45 1.177834419113423 0 0
46 1.244963125423424 0 0
47 1.315448268952031 0 0
48 1.389457669881726 0 0
49 1.46716753929112 0 0
50 1.548762902532064 0 0
51 1.634438035753425 0 0
52 1.72439692544444 0 0
53 1.818853760714205 0 0
54 1.918033435786267 0 0
55 2.022172094523947 0 0
56 2.131517685208496 0 0
57 2.246330553734797 0 0
58 2.366884066627489 0 0
59 2.493465255570388 0 0
60 2.626375503775692 0 0
61 2.765931266373738 0 0
62 2.91246481647778 0 0
63 3.06632504334685 0 0
64 3.227878281272746 0 0
65 3.397509180743103 0 0
66 3.575621627453319 0 0
67 3.762639694609013 0 0
68 3.95900866428022 0 0
69 4.165196085181023 0 0
70 4.381692876316077 0 0
71 4.609014506762494 0 0
72 4.847702217732468 0 0
73 5.098324314991321 0 0
74 5.361477518557717 0 0
75 5.63778838011509 0 0
76 5.927914782821684 0 0
77 6.232547506066608 0 0
78 6.552411866165888 0 0
79 6.888269442118356 0 0
80 7.240919896767969 0 0
81 7.611202874756876 0 0
$EndNodes
$Elements
82
1 15 2 1 1 1
2 15 2 2 2 2
3 1 2 3 1 1 3
4 1 2 3 1 3 4
5 1 2 3 1 4 5
6 1 2 3 1 5 6
7 1 2 3 1 6 7
8 1 2 3 1 7 8
9 1 2 3 1 8 9
10 1 2 3 1 9 10
11 1 2 3 1 10 11
12 1 2 3 1 11 12
13 1 2 3 1 12 13
14 1 2 3 1 13 14
15 1 2 3 1 14 15
16 1 2 3 1 15 16
17 1 2 3 1 16 17
18 1 2 3 1 17 18
19 1 2 3 1 18 19
20 1 2 3 1 19 20
21 1 2 3 1 20 21
22 1 2 3 1 21 22
23 1 2 3 1 22 23
24 1 2 3 1 23 24
25 1 2 3 1 24 25
26 1 2 3 1 25 26
27 1 2 3 1 26 27
28 1 2 3 1 27 28
29 1 2 3 1 28 29
30 1 2 3 1 29 30
31 1 2 3 1 30 31
32 1 2 3 1 31 32
33 1 2 3 1 32 33
34 1 2 3 1 33 34
35 1 2 3 1 34 35
36 1 2 3 1 35 36
37 1 2 3 1 36 37
38 1 2 3 1 37 38
39 1 2 3 1 38 39
40 1 2 3 1 39 40
41 1 2 3 1 40 41
42 1 2 3 1 41 42
43 1 2 3 1 42 43
44 1 2 3 1 43 44
45 1 2 3 1 44 45
46 1 2 3 1 45 46
47 1 2 3 1 46 47
48 1 2 3 1 47 48
49 1 2 3 1 48 49
50 1 2 3 1 49 50
51 1 2 3 1 50 51
52 1 2 3 1 51 52
53 1 2 3 1 52 53
54 1 2 3 1 53 54
55 1 2 3 1 54 55
56 1 2 3 1 55 56
57 1 2 3 1 56 57
58 1 2 3 1 57 58
59 1 2 3 1 58 59
60 1 2 3 1 59 60
61 1 2 3 1 60 61
62 1 2 3 1 61 62
63 1 2 3 1 62 63
64 1 2 3 1 63 64
65 1 2 3 1 64 65
66 1 2 3 1 65 66
67 1 2 3 1 66 67
68 1 2 3 1 67 68
69 1 2 3 1 68 69
70 1 2 3 1 69 70
71 1 2 3 1 70 71
72 1 2 3 1 71 72
73 1 2 3 1 72 73
74 1 2 3 1 73 74
75 1 2 3 1 74 75
76 1 2 3 1 75 76
77 1 2 3 1 76 77
78 1 2 3 1 77 78
79 1 2 3 1 78 79
80 1 2 3 1 79 80
81 1 2 3 1 80 81
82 1 2 3 1 81 2
$EndElements
