$MeshFormat
2.2 0 8
$EndMeshFormat
$PhysicalNames
3
0 1 "Γ¹"
0 2 "Γ²"
1 3 "Ω"
$EndPhysicalNames
$Nodes
81
1 0 0 0
2 8 0 0
3 0.09999999999981085 0 0
4 0.1999999999996219 0 0
5 0.2999999999994167 0 0
6 0.3999999999991952 0 0
7 0.4999999999989834 0 0
8 0.5999999999988195 0 0
9 0.6999999999986662 0 0
10 0.7999999999985131 0 0
11 0.8999999999983599 0 0
12 0.9999999999981851 0 0
13 1.099999999997915 0 0
14 1.199999999997623 0 0
15 1.299999999997331 0 0
16 1.399999999997039 0 0
17 1.499999999996747 0 0
18 1.599999999996455 0 0
19 1.699999999996163 0 0
20 1.799999999995872 0 0
21 1.89999999999558 0 0
22 1.999999999995288 0 0
23 2.099999999994996 0 0
24 2.199999999994704 0 0
25 2.299999999994412 0 0
26 2.39999999999412 0 0
27 2.499999999993828 0 0
28 2.599999999993536 0 0
29 2.699999999993244 0 0
30 2.799999999992953 0 0
31 2.89999999999266 0 0
32 2.999999999992369 0 0
33 3.099999999992077 0 0
34 3.199999999991785 0 0
35 3.299999999991493 0 0
36 3.399999999991201 0 0
37 3.499999999990909 0 0
38 3.599999999990617 0 0
39 3.699999999990326 0 0
40 3.799999999990034 0 0
41 3.899999999989742 0 0
42 3.999999999989537 0 0
43 4.099999999989714 0 0
44 4.199999999989977 0 0
45 4.299999999990241 0 0
46 4.399999999990505 0 0
47 4.499999999990768 0 0
48 4.599999999991033 0 0
49 4.699999999991296 0 0
50 4.79999999999156 0 0
51 4.899999999991824 0 0
52 4.999999999992087 0 0
53 5.099999999992352 0 0
54 5.199999999992615 0 0
55 5.299999999992879 0 0
56 5.399999999993142 0 0
57 5.499999999993406 0 0
58 5.59999999999367 0 0
59 5.699999999993934 0 0
60 5.799999999994197 0 0
61 5.899999999994461 0 0
62 5.999999999994725 0 0
63 6.099999999994989 0 0
64 6.199999999995252 0 0
65 6.299999999995516 0 0
66 6.39999999999578 0 0
67 6.499999999996044 0 0
68 6.599999999996308 0 0
69 6.699999999996571 0 0
70 6.799999999996835 0 0
71 6.899999999997099 0 0
72 6.999999999997363 0 0
73 7.099999999997626 0 0
74 7.19999999999789 0 0
75 7.299999999998154 0 0
76 7.399999999998418 0 0
77 7.499999999998681 0 0
78 7.599999999998945 0 0
79 7.699999999999209 0 0
80 7.799999999999473 0 0
81 7.899999999999736 0 0
$EndNodes
$Elements
82
1 15 2 1 1 1
2 15 2 2 2 2
3 1 2 3 1 1 3
4 1 2 3 1 3 4
5 1 2 3 1 4 5
6 1 2 3 1 5 6
7 1 2 3 1 6 7
8 1 2 3 1 7 8
9 1 2 3 1 8 9
10 1 2 3 1 9 10
11 1 2 3 1 10 11
12 1 2 3 1 11 12
13 1 2 3 1 12 13
14 1 2 3 1 13 14
15 1 2 3 1 14 15
16 1 2 3 1 15 16
17 1 2 3 1 16 17
18 1 2 3 1 17 18
19 1 2 3 1 18 19
20 1 2 3 1 19 20
21 1 2 3 1 20 21
22 1 2 3 1 21 22
23 1 2 3 1 22 23
24 1 2 3 1 23 24
25 1 2 3 1 24 25
26 1 2 3 1 25 26
27 1 2 3 1 26 27
28 1 2 3 1 27 28
29 1 2 3 1 28 29
30 1 2 3 1 29 30
31 1 2 3 1 30 31
32 1 2 3 1 31 32
33 1 2 3 1 32 33
34 1 2 3 1 33 34
35 1 2 3 1 34 35
36 1 2 3 1 35 36
37 1 2 3 1 36 37
38 1 2 3 1 37 38
39 1 2 3 1 38 39
40 1 2 3 1 39 40
41 1 2 3 1 40 41
42 1 2 3 1 41 42
43 1 2 3 1 42 43
44 1 2 3 1 43 44
45 1 2 3 1 44 45
46 1 2 3 1 45 46
47 1 2 3 1 46 47
48 1 2 3 1 47 48
49 1 2 3 1 48 49
50 1 2 3 1 49 50
51 1 2 3 1 50 51
52 1 2 3 1 51 52
53 1 2 3 1 52 53
54 1 2 3 1 53 54
55 1 2 3 1 54 55
56 1 2 3 1 55 56
57 1 2 3 1 56 57
58 1 2 3 1 57 58
59 1 2 3 1 58 59
60 1 2 3 1 59 60
61 1 2 3 1 60 61
62 1 2 3 1 61 62
63 1 2 3 1 62 63
64 1 2 3 1 63 64
65 1 2 3 1 64 65
66 1 2 3 1 65 66
67 1 2 3 1 66 67
68 1 2 3 1 67 68
69 1 2 3 1 68 69
70 1 2 3 1 69 70
71 1 2 3 1 70 71
72 1 2 3 1 71 72
73 1 2 3 1 72 73
74 1 2 3 1 73 74
75 1 2 3 1 74 75
76 1 2 3 1 75 76
77 1 2 3 1 76 77
78 1 2 3 1 77 78
79 1 2 3 1 78 79
80 1 2 3 1 79 80
81 1 2 3 1 80 81
82 1 2 3 1 81 2
$EndElements
