$MeshFormat
2.2 0 8
$EndMeshFormat
$PhysicalNames
3
0 1 "Γ¹"
0 2 "Γ²"
1 3 "Ω"
$EndPhysicalNames
$Nodes
41
1 0 0 0
2 8 0 0
3 0.06622529219834396 0 0
4 0.1357618485681581 0 0
5 0.2087752314123134 0 0
6 0.2854392813183657 0 0
7 0.3659365324149232 0 0
8 0.4504586484307215 0 0
9 0.5392068700612103 0 0
10 0.6323925020693544 0 0
11 0.7302374168675555 0 0
12 0.8329745755800723 0 0
13 0.9408485910600333 0 0
14 1.05411630828252 0 0
15 1.173047414076716 0 0
16 1.297925075666255 0 0
17 1.429046620182912 0 0
18 1.566724241401981 0 0
19 1.711285741729525 0 0
20 1.863075317087695 0 0
21 2.022454373191328 0 0
22 2.189802382889987 0 0
23 2.365517791635033 0 0
24 2.550018970011936 0 0
25 2.743745208872695 0 0
26 2.947157758533617 0 0
27 3.160740934656904 0 0
28 3.385003270731498 0 0
29 3.620478723830942 0 0
30 3.867727949882944 0 0
31 4.127339635740791 0 0
32 4.399931906914985 0 0
33 4.686153791420603 0 0
34 4.986686768669877 0 0
35 5.302246395871768 0 0
36 5.633584005382162 0 0
37 5.981488494517624 0 0
38 6.34678820649724 0 0
39 6.730352904090799 0 0
40 7.133095838004422 0 0
41 7.555975918192615 0 0
$EndNodes
$Elements
42
1 15 2 1 1 1
2 15 2 2 2 2
3 1 2 3 1 1 3
4 1 2 3 1 3 4
5 1 2 3 1 4 5
6 1 2 3 1 5 6
7 1 2 3 1 6 7
8 1 2 3 1 7 8
9 1 2 3 1 8 9
10 1 2 3 1 9 10
11 1 2 3 1 10 11
12 1 2 3 1 11 12
13 1 2 3 1 12 13
14 1 2 3 1 13 14
15 1 2 3 1 14 15
16 1 2 3 1 15 16
17 1 2 3 1 16 17
18 1 2 3 1 17 18
19 1 2 3 1 18 19
20 1 2 3 1 19 20
21 1 2 3 1 20 21
22 1 2 3 1 21 22
23 1 2 3 1 22 23
24 1 2 3 1 23 24
25 1 2 3 1 24 25
26 1 2 3 1 25 26
27 1 2 3 1 26 27
28 1 2 3 1 27 28
29 1 2 3 1 28 29
30 1 2 3 1 29 30
31 1 2 3 1 30 31
32 1 2 3 1 31 32
33 1 2 3 1 32 33
34 1 2 3 1 33 34
35 1 2 3 1 34 35
36 1 2 3 1 35 36
37 1 2 3 1 36 37
38 1 2 3 1 37 38
39 1 2 3 1 38 39
40 1 2 3 1 39 40
41 1 2 3 1 40 41
42 1 2 3 1 41 2
$EndElements
