$MeshFormat
2.2 0 8
$EndMeshFormat
$PhysicalNames
3
0 1 "Γ¹"
0 2 "Γ²"
1 3 "Ω"
$EndPhysicalNames
$Nodes
161
1 0 0 0
2 8 0 0
3 0.0001629121998062045 0 0
4 0.0003339685369153277 0 0
5 0.0005135764861945248 0 0
6 0.0007021638224280996 0 0
7 0.0009001808237149467 0 0
8 0.001108099438889075 0 0
9 0.001326415520990766 0 0
10 0.001555648322364366 0 0
11 0.001796342787048985 0 0
12 0.002049072311933234 0 0
13 0.002314438514229323 0 0
14 0.002593071202585669 0 0
15 0.00288563408984726 0 0
16 0.003192825489549384 0 0
17 0.003515375493710143 0 0
18 0.003854052398601121 0 0
19 0.00420966358053836 0 0
20 0.004583056363741854 0 0
21 0.004975119175304049 0 0
22 0.005386785623329115 0 0
23 0.005819036270608525 0 0
24 0.006272900174688462 0 0
25 0.006749457060603654 0 0
26 0.007249839291624529 0 0
27 0.007775240321544059 0 0
28 0.008326911932399941 0 0
29 0.008906166858329935 0 0
30 0.009514385327605445 0 0
31 0.01015301569535454 0 0
32 0.01082357847441191 0 0
33 0.01152766769139316 0 0
34 0.01226696121863633 0 0
35 0.01304322062340181 0 0
36 0.01385829310387513 0 0
37 0.01471411790270079 0 0
38 0.01561273167112171 0 0
39 0.01655627681213229 0 0
40 0.01754699909072139 0 0
41 0.01858725726486957 0 0
42 0.01967952914168385 0 0
43 0.02082641502070186 0 0
44 0.022030647570389 0 0
45 0.02329509101804562 0 0
46 0.0246227571950268 0 0
47 0.02601680789803659 0 0
48 0.02748056108403415 0 0
49 0.02901750081330736 0 0
50 0.03063128562979673 0 0
51 0.03232575786828852 0 0
52 0.03410495510258012 0 0
53 0.03597311297440713 0 0
54 0.03793467900927286 0 0
55 0.03999432443564502 0 0
56 0.04215695222360254 0 0
57 0.04442771118317705 0 0
58 0.0468120094757471 0 0
59 0.04931552245083806 0 0
60 0.05194421112899367 0 0
61 0.05470433314233417 0 0
62 0.05760246076414881 0 0
63 0.06064549507890166 0 0
64 0.06384068108065775 0 0
65 0.06719562563910667 0 0
66 0.07071831540101882 0 0
67 0.07441714194373245 0 0
68 0.0783009110971236 0 0
69 0.0823788682241503 0 0
70 0.08666072132492039 0 0
71 0.09115666761929239 0 0
72 0.09587741258860868 0 0
73 0.1008341947423646 0 0
74 0.1060388162346043 0 0
75 0.1115036688984146 0 0
76 0.1172417647333531 0 0
77 0.1232667653579026 0 0
78 0.1295930155389607 0 0
79 0.1362355765818495 0 0
80 0.1432102648959399 0 0
81 0.150533687654188 0 0
82 0.1582232834015717 0 0
83 0.1662973598133349 0 0
84 0.1747751402760062 0 0
85 0.1836768087751914 0 0
86 0.1930235589055209 0 0
87 0.2028376480953185 0 0
88 0.2131424402805226 0 0
89 0.223962476440171 0 0
90 0.2353235133687121 0 0
91 0.2472525996095697 0 0
92 0.2597781421504295 0 0
93 0.2729299615445633 0 0
94 0.2867393693020156 0 0
95 0.3012392509831174 0 0
96 0.3164641263185791 0 0
97 0.3324502426581532 0 0
98 0.349235666994602 0 0
99 0.3668603641666027 0 0
100 0.3853662947247402 0 0
101 0.4047975220065316 0 0
102 0.4252003105599249 0 0
103 0.4466232387418971 0 0
104 0.469117310861713 0 0
105 0.4927360866749131 0 0
106 0.5175358055428727 0 0
107 0.5435755112552516 0 0
108 0.5709172017091966 0 0
109 0.5996259752205142 0 0
110 0.6297701855707843 0 0
111 0.6614216065962873 0 0
112 0.6946556012228571 0 0
113 0.7295512955758251 0 0
114 0.7661917767274283 0 0
115 0.8046642799493253 0 0
116 0.8450604071397332 0 0
117 0.8874763427157046 0 0
118 0.9320130733235189 0 0
119 0.9787766419056725 0 0
120 1.027878390731068 0 0
121 1.079435223240139 0 0
122 1.133569898197595 0 0
123 1.190411310747229 0 0
124 1.250094790212265 0 0
125 1.312762446011357 0 0
126 1.378563481416802 0 0
127 1.447654569720094 0 0
128 1.520200213324473 0 0
129 1.596373139443249 0 0
130 1.676354711324776 0 0
131 1.760335362720152 0 0
132 1.848515045862911 0 0
133 1.941103718557789 0 0
134 2.038321825783795 0 0
135 2.140400836332055 0 0
136 2.247583796756834 0 0
137 2.360125904817454 0 0
138 2.478295122644805 0 0
139 2.60237279730273 0 0
140 2.732654356198088 0 0
141 2.869449993269972 0 0
142 3.013085412736798 0 0
143 3.163902605235519 0 0
144 3.322260659818652 0 0
145 3.488536615541083 0 0
146 3.663126368572362 0 0
147 3.846445609946189 0 0
148 4.0389308156046 0 0
149 4.241040281787053 0 0
150 4.453255222424978 0 0
151 4.676080910404488 0 0
152 4.910047885492272 0 0
153 5.155713211285121 0 0
154 5.413661804521785 0 0
155 5.684507825651955 0 0
156 5.968896148962059 0 0
157 6.267503889915311 0 0
158 6.581042020063818 0 0
159 6.91025705986879 0 0
160 7.255932852454527 0 0
161 7.618892437120599 0 0
$EndNodes
$Elements
162
1 15 2 1 1 1
2 15 2 2 2 2
3 1 2 3 1 1 3
4 1 2 3 1 3 4
5 1 2 3 1 4 5
6 1 2 3 1 5 6
7 1 2 3 1 6 7
8 1 2 3 1 7 8
9 1 2 3 1 8 9
10 1 2 3 1 9 10
11 1 2 3 1 10 11
12 1 2 3 1 11 12
13 1 2 3 1 12 13
14 1 2 3 1 13 14
15 1 2 3 1 14 15
16 1 2 3 1 15 16
17 1 2 3 1 16 17
18 1 2 3 1 17 18
19 1 2 3 1 18 19
20 1 2 3 1 19 20
21 1 2 3 1 20 21
22 1 2 3 1 21 22
23 1 2 3 1 22 23
24 1 2 3 1 23 24
25 1 2 3 1 24 25
26 1 2 3 1 25 26
27 1 2 3 1 26 27
28 1 2 3 1 27 28
29 1 2 3 1 28 29
30 1 2 3 1 29 30
31 1 2 3 1 30 31
32 1 2 3 1 31 32
33 1 2 3 1 32 33
34 1 2 3 1 33 34
35 1 2 3 1 34 35
36 1 2 3 1 35 36
37 1 2 3 1 36 37
38 1 2 3 1 37 38
39 1 2 3 1 38 39
40 1 2 3 1 39 40
41 1 2 3 1 40 41
42 1 2 3 1 41 42
43 1 2 3 1 42 43
44 1 2 3 1 43 44
45 1 2 3 1 44 45
46 1 2 3 1 45 46
47 1 2 3 1 46 47
48 1 2 3 1 47 48
49 1 2 3 1 48 49
50 1 2 3 1 49 50
51 1 2 3 1 50 51
52 1 2 3 1 51 52
53 1 2 3 1 52 53
54 1 2 3 1 53 54
55 1 2 3 1 54 55
56 1 2 3 1 55 56
57 1 2 3 1 56 57
58 1 2 3 1 57 58
59 1 2 3 1 58 59
60 1 2 3 1 59 60
61 1 2 3 1 60 61
62 1 2 3 1 61 62
63 1 2 3 1 62 63
64 1 2 3 1 63 64
65 1 2 3 1 64 65
66 1 2 3 1 65 66
67 1 2 3 1 66 67
68 1 2 3 1 67 68
69 1 2 3 1 68 69
70 1 2 3 1 69 70
71 1 2 3 1 70 71
72 1 2 3 1 71 72
73 1 2 3 1 72 73
74 1 2 3 1 73 74
75 1 2 3 1 74 75
76 1 2 3 1 75 76
77 1 2 3 1 76 77
78 1 2 3 1 77 78
79 1 2 3 1 78 79
80 1 2 3 1 79 80
81 1 2 3 1 80 81
82 1 2 3 1 81 82
83 1 2 3 1 82 83
84 1 2 3 1 83 84
85 1 2 3 1 84 85
86 1 2 3 1 85 86
87 1 2 3 1 86 87
88 1 2 3 1 87 88
89 1 2 3 1 88 89
90 1 2 3 1 89 90
91 1 2 3 1 90 91
92 1 2 3 1 91 92
93 1 2 3 1 92 93
94 1 2 3 1 93 94
95 1 2 3 1 94 95
96 1 2 3 1 95 96
97 1 2 3 1 96 97
98 1 2 3 1 97 98
99 1 2 3 1 98 99
100 1 2 3 1 99 100
101 1 2 3 1 100 101
102 1 2 3 1 101 102
103 1 2 3 1 102 103
104 1 2 3 1 103 104
105 1 2 3 1 104 105
106 1 2 3 1 105 106
107 1 2 3 1 106 107
108 1 2 3 1 107 108
109 1 2 3 1 108 109
110 1 2 3 1 109 110
111 1 2 3 1 110 111
112 1 2 3 1 111 112
113 1 2 3 1 112 113
114 1 2 3 1 113 114
115 1 2 3 1 114 115
116 1 2 3 1 115 116
117 1 2 3 1 116 117
118 1 2 3 1 117 118
119 1 2 3 1 118 119
120 1 2 3 1 119 120
121 1 2 3 1 120 121
122 1 2 3 1 121 122
123 1 2 3 1 122 123
124 1 2 3 1 123 124
125 1 2 3 1 124 125
126 1 2 3 1 125 126
127 1 2 3 1 126 127
128 1 2 3 1 127 128
129 1 2 3 1 128 129
130 1 2 3 1 129 130
131 1 2 3 1 130 131
132 1 2 3 1 131 132
133 1 2 3 1 132 133
134 1 2 3 1 133 134
135 1 2 3 1 134 135
136 1 2 3 1 135 136
137 1 2 3 1 136 137
138 1 2 3 1 137 138
139 1 2 3 1 138 139
140 1 2 3 1 139 140
141 1 2 3 1 140 141
142 1 2 3 1 141 142
143 1 2 3 1 142 143
144 1 2 3 1 143 144
145 1 2 3 1 144 145
146 1 2 3 1 145 146
147 1 2 3 1 146 147
148 1 2 3 1 147 148
149 1 2 3 1 148 149
150 1 2 3 1 149 150
151 1 2 3 1 150 151
152 1 2 3 1 151 152
153 1 2 3 1 152 153
154 1 2 3 1 153 154
155 1 2 3 1 154 155
156 1 2 3 1 155 156
157 1 2 3 1 156 157
158 1 2 3 1 157 158
159 1 2 3 1 158 159
160 1 2 3 1 159 160
161 1 2 3 1 160 161
162 1 2 3 1 161 2
$EndElements
