$MeshFormat
2.2 0 8
$EndMeshFormat
$PhysicalNames
3
0 1 "Γ¹"
0 2 "Γ²"
1 3 "Ω"
$EndPhysicalNames
$Nodes
21
1 0 0 0
2 8 0 0
3 0.3999999999991952 0 0
4 0.7999999999985131 0 0
5 1.199999999997623 0 0
6 1.599999999996455 0 0
7 1.999999999995288 0 0
8 2.39999999999412 0 0
9 2.799999999992953 0 0
10 3.199999999991785 0 0
11 3.599999999990617 0 0
12 3.999999999989537 0 0
13 4.399999999990505 0 0
14 4.79999999999156 0 0
15 5.199999999992615 0 0
16 5.59999999999367 0 0
17 5.999999999994725 0 0
18 6.39999999999578 0 0
19 6.799999999996835 0 0
20 7.19999999999789 0 0
21 7.599999999998945 0 0
$EndNodes
$Elements
22
1 15 2 1 1 
2 15 2 2 2 2
3 1 2 3 1 1 3
4 1 2 3 1 3 4
5 1 2 3 1 4 5
6 1 2 3 1 5 6
7 1 2 3 1 6 7
8 1 2 3 1 7 8
9 1 2 3 1 8 9
10 1 2 3 1 9 10
11 1 2 3 1 10 11
12 1 2 3 1 11 12
13 1 2 3 1 12 13
14 1 2 3 1 13 14
15 1 2 3 1 14 15
16 1 2 3 1 15 16
17 1 2 3 1 16 17
18 1 2 3 1 17 18
19 1 2 3 1 18 19
20 1 2 3 1 19 20
21 1 2 3 1 20 21
22 1 2 3 1 21 2
$EndElements
