$MeshFormat
2.2 0 8
$EndMeshFormat
$PhysicalNames
5
1 2 "Γ¹"
1 3 "Γ²"
1 4 "Γ³"
1 5 "Γ⁴"
2 1 "Ω"
$EndPhysicalNames
$Nodes
337
1 0 0 0
2 4 0 0
3 0.9999999999976438 0 0
4 1.999999999994768 0 0
5 2.999999999997363 0 0
6 0.4999999999988219 0 0
7 1.499999999996206 0 0
8 2.499999999996065 0 0
9 3.499999999998681 0 0
10 4 4 0
11 4 0.9999999999976438 0
12 4 1.999999999994768 0
13 4 2.999999999997363 0
14 4 0.4999999999988219 0
15 4 1.499999999996206 0
16 4 2.499999999996065 0
17 4 3.499999999998681 0
18 0 4 0
19 3.000000000001388 4 0
20 2.000000000008238 4 0
21 1.000000000004162 4 0
22 3.500000000000694 4 0
23 3.250000000001041 4 0
24 3.750000000000347 4 0
25 2.500000000004813 4 0
26 1.5000000000062 4 0
27 0.500000000002081 4 0
28 3.375000000000868 4 0
29 3.125000000001214 4 0
30 3.875000000000173 4 0
31 3.62500000000052 4 0
32 0 3.000000000001388 0
33 0 2.000000000008238 0
34 0 1.000000000004162 0
35 0 0.500000000002081 0
36 0 3.500000000000694 0
37 0 2.500000000004813 0
38 0 1.5000000000062 0
39 0 0.7500000000031215 0
40 0 0.2500000000010405 0
41 0.9999999999992735 1.000000000002533 0
42 1.000000000000903 2.000000000004871 0
43 1.000000000002533 3.000000000000381 0
44 1.999999999998136 1.000000000000903 0
45 2.000000000001503 2.000000000001503 0
46 2.000000000004871 2.999999999999376 0
47 2.999999999998369 0.9999999999992735 0
48 2.999999999999376 1.999999999998136 0
49 3.000000000000381 2.999999999998368 0
50 0.4999999999996367 0.5000000000012665 0
51 0.5000000000004515 1.500000000004517 0
52 1.500000000000388 1.500000000002018 0
53 1.500000000002887 2.500000000002124 0
54 2.500000000000942 2.499999999999935 0
55 2.500000000003129 3.499999999999688 0
56 3.500000000000191 3.499999999999184 0
57 0.4999999999996367 1.000000000003348 0
58 1.000000000000088 1.500000000003702 0
59 1.500000000001203 2.000000000003187 0
60 2.000000000003187 2.50000000000044 0
61 2.500000000002626 2.999999999998872 0
62 3.000000000000885 3.499999999999184 0
63 0.2499999999998184 0.7500000000027143 0
64 0.7499999999994551 0.7500000000018998 0
65 0.9999999999984586 0.5000000000012665 0
66 0.7499999999998626 1.250000000003525 0
67 1.250000000000646 1.750000000003445 0
68 1.249999999999831 1.250000000002276 0
69 1.499999999998705 1.000000000001718 0
70 1.750000000000945 1.75000000000176 0
71 1.999999999999819 1.500000000001203 0
72 1.750000000002195 2.250000000001813 0
73 2.250000000001222 2.250000000000719 0
74 2.50000000000044 1.999999999999819 0
75 2.750000000000662 2.749999999999152 0
76 2.999999999999878 2.499999999998252 0
77 2.250000000002907 2.749999999999655 0
78 2.750000000001755 3.249999999999028 0
79 3.250000000000789 3.749999999999592 0
80 3.250000000000286 3.249999999998776 0
81 3.500000000000191 2.999999999997866 0
82 3.750000000000095 3.749999999999592 0
83 4 3.499999999998681 0
84 0.2499999999998184 0.5000000000016738 0
85 0.2499999999998184 0.2500000000006333 0
86 0.2499999999998184 1.000000000003755 0
87 0.2500000000002258 1.250000000004339 0
88 0.4999999999996367 0.750000000002307 0
89 0.7499999999994551 1.00000000000294 0
90 0.75000000000027 1.500000000004109 0
91 0.7500000000006772 1.750000000004694 0
92 0.9999999999996809 1.250000000003118 0
93 1.250000000000238 1.50000000000286 0
94 1.250000000001053 2.000000000004029 0
95 1.250000000001895 2.250000000003498 0
96 1.500000000000796 1.750000000002602 0
97 1.750000000001353 2.000000000002345 0
98 1.750000000003037 2.500000000001282 0
99 1.750000000003879 2.75000000000075 0
100 2.000000000002345 2.250000000000971 0
101 2.250000000002064 2.500000000000187 0
102 2.500000000001784 2.749999999999404 0
103 2.750000000001504 2.99999999999862 0
104 2.250000000003749 2.999999999999124 0
105 2.250000000004 3.249999999999532 0
106 2.750000000002007 3.499999999999436 0
107 2.750000000002259 3.749999999999844 0
108 3.000000000000633 3.249999999998776 0
109 3.250000000000537 3.499999999999184 0
110 3.500000000000442 3.749999999999592 0
111 0.5000000000004515 2.000000000006555 0
112 1.000000000001718 2.500000000002626 0
113 0.5000000000012665 2.500000000004309 0
114 0.5000000000012665 3.000000000000885 0
115 1.000000000003348 3.500000000000191 0
116 0.500000000002081 3.500000000000694 0
117 1.999999999996452 0.5000000000004515 0
118 1.49999999999789 0.5000000000004515 0
119 1.499999999998705 1.000000000001718 0
120 0.9999999999984586 0.5000000000012665 0
121 1.500000000003702 2.999999999999878 0
122 2.000000000006555 3.499999999999688 0
123 1.500000000005385 3.500000000000191 0
124 2.999999999997866 0.4999999999996367 0
125 2.499999999996569 0.4999999999996367 0
126 2.499999999998253 1.000000000000088 0
127 2.999999999998872 1.499999999998705 0
128 2.499999999998756 1.499999999999519 0
129 2.50000000000044 1.999999999999819 0
130 1.999999999999819 1.500000000001203 0
131 3.499999999998681 0.4999999999988219 0
132 3.499999999999185 0.9999999999984586 0
133 3.499999999999185 1.499999999997021 0
134 3.499999999999688 1.999999999996452 0
135 3.499999999999688 2.499999999997749 0
136 3.500000000000191 2.999999999997866 0
137 2.999999999999878 2.499999999998252 0
138 0.7499999999986402 0.2500000000006333 0
139 0.2499999999998183 0.2500000000006333 0
140 0.2500000000002258 1.25000000000434 0
141 0.2500000000002258 1.750000000006378 0
142 0.7500000000006772 1.750000000004694 0
143 1.250000000001895 2.250000000003498 0
144 1.25000000000271 2.750000000001252 0
145 1.750000000003879 2.75000000000075 0
146 2.250000000004 3.249999999999532 0
147 2.250000000005683 3.749999999999844 0
148 2.750000000002259 3.749999999999844 0
149 0.1249999999999092 0.6250000000023976 0
150 0.1249999999999092 0.8750000000034381 0
151 0.7499999999990477 0.5000000000012665 0
152 0.8749999999989568 0.6250000000015832 0
153 0.6249999999995459 0.6250000000015832 0
154 0.8749999999993643 0.8750000000022164 0
155 0.999999999998866 0.7500000000018998 0
156 0.9999999999980511 0.2500000000006333 0
157 0.6249999999997496 1.125000000003436 0
158 0.625000000000157 1.375000000004021 0
159 0.5000000000000441 1.250000000003932 0
160 1.125000000000367 1.625000000003574 0
161 1.125000000000774 1.875000000004158 0
162 1.000000000000496 1.750000000004287 0
163 1.249999999998989 1.000000000002125 0
164 1.374999999999268 1.125000000001997 0
165 1.124999999999552 1.125000000002405 0
166 1.375000000000109 1.375000000002147 0
167 1.499999999999547 1.250000000001868 0
168 1.749999999999262 1.250000000001461 0
169 1.74999999999842 1.000000000001311 0
170 1.750000000000103 1.50000000000161 0
171 1.875000000000382 1.625000000001481 0
172 1.625000000000667 1.625000000001889 0
173 1.875000000001224 1.875000000001631 0
174 2.000000000000661 1.750000000001353 0
175 1.999999999998977 1.250000000001053 0
176 1.625000000001699 2.1250000000025 0
177 1.625000000002541 2.375000000001969 0
178 1.500000000002045 2.250000000002656 0
179 2.250000000000972 2.000000000000661 0
180 2.375000000000831 2.125000000000269 0
181 2.125000000001362 2.125000000001111 0
182 2.375000000001082 2.375000000000327 0
183 2.500000000000691 2.249999999999877 0
184 2.750000000000159 2.249999999999035 0
185 2.749999999999908 1.999999999998977 0
186 2.75000000000041 2.499999999999094 0
187 2.87500000000027 2.624999999998702 0
188 2.625000000000802 2.624999999999543 0
189 2.875000000000521 2.87499999999876 0
190 3.00000000000013 2.74999999999831 0
191 2.999999999999627 2.249999999998194 0
192 2.125000000003047 2.625000000000048 0
193 2.125000000003889 2.874999999999515 0
194 2.000000000004029 2.749999999999908 0
195 2.62500000000219 3.12499999999895 0
196 2.625000000002442 3.374999999999358 0
197 2.500000000002878 3.24999999999928 0
198 3.125000000000837 3.624999999999388 0
199 3.125000000001088 3.874999999999796 0
200 3.000000000001136 3.749999999999592 0
201 3.250000000000286 2.999999999998117 0
202 3.375000000000238 3.124999999998321 0
203 3.125000000000334 3.124999999998572 0
204 3.375000000000238 3.37499999999898 0
205 3.500000000000191 3.249999999998525 0
206 3.750000000000095 3.249999999998273 0
207 3.750000000000095 2.999999999997614 0
208 3.750000000000095 3.499999999998932 0
209 3.875000000000048 3.624999999999137 0
210 3.625000000000143 3.624999999999388 0
211 3.875000000000048 3.874999999999796 0
212 4 3.749999999999341 0
213 4 3.249999999998022 0
214 0.1249999999999092 0.5000000000018774 0
215 0.2499999999998184 0.625000000002194 0
216 0.3749999999997276 0.5000000000014702 0
217 0.3749999999997276 0.6250000000019904 0
218 0.1249999999999092 0.3750000000013571 0
219 0.2499999999998184 0.3750000000011535 0
220 0.3749999999997276 0.3750000000009499 0
221 0.1249999999999092 0.1250000000003167 0
222 0.3749999999997276 0.8750000000030311 0
223 0.3749999999997276 1.000000000003551 0
224 0.2499999999998184 0.8750000000032346 0
225 0.1249999999999092 1.000000000003959 0
226 0.3749999999999313 1.125000000003844 0
227 0.2500000000000221 1.125000000004047 0
228 0.1250000000001129 1.12500000000425 0
229 0.3750000000003387 1.375000000004428 0
230 0.4999999999996367 0.6250000000017868 0
231 0.3749999999997276 0.7500000000025107 0
232 0.4999999999996367 0.8750000000028275 0
233 0.6249999999995459 0.8750000000026239 0
234 0.6249999999995459 0.7500000000021034 0
235 0.8749999999993643 1.000000000002736 0
236 0.7499999999994551 0.87500000000242 0
237 0.6249999999995459 1.000000000003144 0
238 0.7499999999996588 1.125000000003233 0
239 0.874999999999568 1.125000000003029 0
240 0.8749999999999752 1.375000000003614 0
241 0.875000000000179 1.500000000003905 0
242 0.7500000000000663 1.375000000003817 0
243 0.6250000000003608 1.500000000004313 0
244 0.8750000000003826 1.625000000004198 0
245 0.7500000000004736 1.625000000004401 0
246 0.6250000000005644 1.625000000004606 0
247 0.8750000000007901 1.875000000004783 0
248 0.9999999999994772 1.125000000002826 0
249 0.8749999999997717 1.250000000003321 0
250 0.9999999999998844 1.37500000000341 0
251 1.12499999999996 1.375000000002989 0
252 1.124999999999756 1.250000000002697 0
253 1.125000000000163 1.500000000003281 0
254 1.250000000000442 1.625000000003153 0
255 1.375000000000313 1.500000000002439 0
256 1.375000000000517 1.625000000002732 0
257 1.250000000000035 1.375000000002568 0
258 1.375000000000925 1.875000000003316 0
259 1.375000000001128 2.000000000003608 0
260 1.25000000000085 1.875000000003737 0
261 1.125000000000978 2.00000000000445 0
262 1.375000000001549 2.125000000003342 0
263 1.250000000001474 2.125000000003764 0
264 1.125000000001399 2.125000000004185 0
265 1.375000000002391 2.375000000002811 0
266 1.500000000000592 1.62500000000231 0
267 1.375000000000721 1.750000000003023 0
268 1.500000000001 1.875000000002894 0
269 1.625000000001074 1.875000000002473 0
270 1.62500000000087 1.750000000002181 0
271 1.875000000001428 2.000000000001924 0
272 1.750000000001149 1.875000000002052 0
273 1.625000000001278 2.000000000002766 0
274 1.750000000001774 2.125000000002079 0
275 1.875000000001849 2.125000000001658 0
276 1.875000000002691 2.375000000001127 0
277 1.875000000003112 2.500000000000861 0
278 1.750000000002616 2.375000000001548 0
279 1.625000000002962 2.500000000001703 0
280 1.875000000003533 2.625000000000595 0
281 1.750000000003458 2.625000000001016 0
282 1.625000000003383 2.625000000001437 0
283 1.875000000004375 2.875000000000063 0
284 2.000000000001924 2.125000000001237 0
285 1.87500000000227 2.250000000001392 0
286 2.000000000002766 2.375000000000705 0
287 2.125000000002204 2.37500000000058 0
288 2.125000000001783 2.250000000000845 0
289 2.375000000001503 2.500000000000061 0
290 2.250000000001643 2.375000000000453 0
291 2.125000000002625 2.500000000000314 0
292 2.250000000002486 2.624999999999921 0
293 2.375000000001925 2.624999999999795 0
294 2.625000000001644 2.874999999999012 0
295 2.500000000002205 2.874999999999138 0
296 2.625000000001223 2.749999999999278 0
297 2.500000000001363 2.62499999999967 0
298 2.375000000002346 2.749999999999529 0
299 2.375000000002767 2.874999999999264 0
300 2.875000000000942 2.999999999998494 0
301 2.750000000001083 2.874999999998886 0
302 2.625000000002065 2.999999999998746 0
303 2.75000000000163 3.124999999998824 0
304 2.875000000001068 3.124999999998698 0
305 2.375000000003188 2.999999999998998 0
306 2.250000000003328 2.874999999999389 0
307 2.12500000000431 2.99999999999925 0
308 2.375000000003313 3.124999999999202 0
309 2.250000000003874 3.124999999999328 0
310 2.125000000004436 3.124999999999454 0
311 2.375000000003564 3.37499999999961 0
312 2.87500000000132 3.374999999999106 0
313 2.875000000001446 3.49999999999931 0
314 2.750000000001881 3.374999999999232 0
315 2.625000000002568 3.499999999999562 0
316 2.875000000001572 3.624999999999514 0
317 2.750000000002133 3.62499999999964 0
318 2.625000000002694 3.624999999999766 0
319 2.875000000001823 3.874999999999922 0
320 3.000000000000507 3.124999999998572 0
321 2.875000000001194 3.249999999998902 0
322 3.000000000000759 3.37499999999898 0
323 3.125000000000585 3.37499999999898 0
324 3.125000000000459 3.249999999998776 0
325 3.125000000000711 3.499999999999184 0
326 3.250000000000663 3.624999999999388 0
327 3.375000000000364 3.499999999999184 0
328 3.37500000000049 3.624999999999388 0
329 3.250000000000411 3.37499999999898 0
330 3.250000000000915 3.874999999999796 0
331 3.375000000000742 3.874999999999796 0
332 3.500000000000316 3.624999999999388 0
333 3.375000000000616 3.749999999999592 0
334 3.500000000000568 3.874999999999796 0
335 3.625000000000394 3.874999999999796 0
336 3.625000000000268 3.749999999999592 0
337 3.750000000000221 3.874999999999796 0
$EndNodes
$Elements
616
1 1 2 2 1 1 6
2 1 2 2 1 6 3
3 1 2 2 1 3 7
4 1 2 2 1 7 4
5 1 2 2 1 4 8
6 1 2 2 1 8 5
7 1 2 2 1 5 9
8 1 2 2 1 9 2
9 1 2 3 2 2 14
10 1 2 3 2 14 11
11 1 2 3 2 11 15
12 1 2 3 2 15 12
13 1 2 3 2 12 16
14 1 2 3 2 16 13
15 1 2 3 2 13 17
16 1 2 3 2 17 10
17 1 2 4 3 19 25
18 1 2 4 3 25 20
19 1 2 4 3 20 26
20 1 2 4 3 26 21
21 1 2 4 3 21 27
22 1 2 4 3 27 18
23 1 2 4 3 22 28
24 1 2 4 3 28 23
25 1 2 4 3 23 29
26 1 2 4 3 29 19
27 1 2 4 3 10 30
28 1 2 4 3 30 24
29 1 2 4 3 24 31
30 1 2 4 3 31 22
31 1 2 5 4 18 36
32 1 2 5 4 36 32
33 1 2 5 4 32 37
34 1 2 5 4 37 33
35 1 2 5 4 33 38
36 1 2 5 4 38 34
37 1 2 5 4 34 39
38 1 2 5 4 39 35
39 1 2 5 4 35 40
40 1 2 5 4 40 1
41 2 2 1 1 33 111 113
42 2 2 1 1 111 112 113
43 2 2 1 1 111 42 112
44 2 2 1 1 113 112 43
45 2 2 1 1 43 114 113
46 2 2 1 1 114 37 113
47 2 2 1 1 114 32 37
48 2 2 1 1 113 37 33
49 2 2 1 1 32 114 116
50 2 2 1 1 114 115 116
51 2 2 1 1 114 43 115
52 2 2 1 1 116 115 21
53 2 2 1 1 21 27 116
54 2 2 1 1 27 36 116
55 2 2 1 1 27 18 36
56 2 2 1 1 116 36 32
57 2 2 1 1 3 7 118
58 2 2 1 1 7 117 118
59 2 2 1 1 7 4 117
60 2 2 1 1 118 117 44
61 2 2 1 1 44 119 118
62 2 2 1 1 119 120 118
63 2 2 1 1 119 41 120
64 2 2 1 1 118 120 3
65 2 2 1 1 43 121 123
66 2 2 1 1 121 122 123
67 2 2 1 1 121 46 122
68 2 2 1 1 123 122 20
69 2 2 1 1 20 26 123
70 2 2 1 1 26 115 123
71 2 2 1 1 26 21 115
72 2 2 1 1 123 115 43
73 2 2 1 1 4 8 125
74 2 2 1 1 8 124 125
75 2 2 1 1 8 5 124
76 2 2 1 1 125 124 47
77 2 2 1 1 47 126 125
78 2 2 1 1 126 117 125
79 2 2 1 1 126 44 117
80 2 2 1 1 125 117 4
81 2 2 1 1 44 126 128
82 2 2 1 1 126 127 128
83 2 2 1 1 126 47 127
84 2 2 1 1 128 127 48
85 2 2 1 1 48 129 128
86 2 2 1 1 129 130 128
87 2 2 1 1 129 45 130
88 2 2 1 1 128 130 44
89 2 2 1 1 5 9 131
90 2 2 1 1 9 14 131
91 2 2 1 1 9 2 14
92 2 2 1 1 131 14 11
93 2 2 1 1 11 132 131
94 2 2 1 1 132 124 131
95 2 2 1 1 132 47 124
96 2 2 1 1 131 124 5
97 2 2 1 1 47 132 133
98 2 2 1 1 132 15 133
99 2 2 1 1 132 11 15
100 2 2 1 1 133 15 12
101 2 2 1 1 12 134 133
102 2 2 1 1 134 127 133
103 2 2 1 1 134 48 127
104 2 2 1 1 133 127 47
105 2 2 1 1 48 134 135
106 2 2 1 1 134 16 135
107 2 2 1 1 134 12 16
108 2 2 1 1 135 16 13
109 2 2 1 1 13 136 135
110 2 2 1 1 136 137 135
111 2 2 1 1 136 49 137
112 2 2 1 1 135 137 48
113 2 2 1 1 3 138 6
114 2 2 1 1 138 139 6
115 2 2 1 1 138 50 139
116 2 2 1 1 6 139 1
117 2 2 1 1 33 38 141
118 2 2 1 1 38 140 141
119 2 2 1 1 38 34 140
120 2 2 1 1 141 140 51
121 2 2 1 1 33 141 111
122 2 2 1 1 141 142 111
123 2 2 1 1 141 51 142
124 2 2 1 1 111 142 42
125 2 2 1 1 43 112 144
126 2 2 1 1 112 143 144
127 2 2 1 1 112 42 143
128 2 2 1 1 144 143 53
129 2 2 1 1 43 144 121
130 2 2 1 1 144 145 121
131 2 2 1 1 144 53 145
132 2 2 1 1 121 145 46
133 2 2 1 1 20 122 147
134 2 2 1 1 122 146 147
135 2 2 1 1 122 46 146
136 2 2 1 1 147 146 55
137 2 2 1 1 20 147 25
138 2 2 1 1 147 148 25
139 2 2 1 1 147 55 148
140 2 2 1 1 25 148 19
141 2 2 1 1 35 149 39
142 2 2 1 1 149 150 39
143 2 2 1 1 149 63 150
144 2 2 1 1 39 150 34
145 2 2 1 1 50 151 153
146 2 2 1 1 151 152 153
147 2 2 1 1 151 65 152
148 2 2 1 1 153 152 64
149 2 2 1 1 41 154 155
150 2 2 1 1 154 152 155
151 2 2 1 1 154 64 152
152 2 2 1 1 155 152 65
153 2 2 1 1 50 138 151
154 2 2 1 1 138 156 151
155 2 2 1 1 138 3 156
156 2 2 1 1 151 156 65
157 2 2 1 1 57 157 159
158 2 2 1 1 157 158 159
159 2 2 1 1 157 66 158
160 2 2 1 1 159 158 51
161 2 2 1 1 58 160 162
162 2 2 1 1 160 161 162
163 2 2 1 1 160 67 161
164 2 2 1 1 162 161 42
165 2 2 1 1 41 163 165
166 2 2 1 1 163 164 165
167 2 2 1 1 163 69 164
168 2 2 1 1 165 164 68
169 2 2 1 1 52 166 167
170 2 2 1 1 166 164 167
171 2 2 1 1 166 68 164
172 2 2 1 1 167 164 69
173 2 2 1 1 44 168 169
174 2 2 1 1 168 167 169
175 2 2 1 1 168 52 167
176 2 2 1 1 169 167 69
177 2 2 1 1 52 170 172
178 2 2 1 1 170 171 172
179 2 2 1 1 170 71 171
180 2 2 1 1 172 171 70
181 2 2 1 1 45 173 174
182 2 2 1 1 173 171 174
183 2 2 1 1 173 70 171
184 2 2 1 1 174 171 71
185 2 2 1 1 52 168 170
186 2 2 1 1 168 175 170
187 2 2 1 1 168 44 175
188 2 2 1 1 170 175 71
189 2 2 1 1 59 176 178
190 2 2 1 1 176 177 178
191 2 2 1 1 176 72 177
192 2 2 1 1 178 177 53
193 2 2 1 1 45 179 181
194 2 2 1 1 179 180 181
195 2 2 1 1 179 74 180
196 2 2 1 1 181 180 73
197 2 2 1 1 54 182 183
198 2 2 1 1 182 180 183
199 2 2 1 1 182 73 180
200 2 2 1 1 183 180 74
201 2 2 1 1 48 184 185
202 2 2 1 1 184 183 185
203 2 2 1 1 184 54 183
204 2 2 1 1 185 183 74
205 2 2 1 1 54 186 188
206 2 2 1 1 186 187 188
207 2 2 1 1 186 76 187
208 2 2 1 1 188 187 75
209 2 2 1 1 49 189 190
210 2 2 1 1 189 187 190
211 2 2 1 1 189 75 187
212 2 2 1 1 190 187 76
213 2 2 1 1 54 184 186
214 2 2 1 1 184 191 186
215 2 2 1 1 184 48 191
216 2 2 1 1 186 191 76
217 2 2 1 1 60 192 194
218 2 2 1 1 192 193 194
219 2 2 1 1 192 77 193
220 2 2 1 1 194 193 46
221 2 2 1 1 61 195 197
222 2 2 1 1 195 196 197
223 2 2 1 1 195 78 196
224 2 2 1 1 197 196 55
225 2 2 1 1 62 198 200
226 2 2 1 1 198 199 200
227 2 2 1 1 198 79 199
228 2 2 1 1 200 199 19
229 2 2 1 1 49 201 203
230 2 2 1 1 201 202 203
231 2 2 1 1 201 81 202
232 2 2 1 1 203 202 80
233 2 2 1 1 56 204 205
234 2 2 1 1 204 202 205
235 2 2 1 1 204 80 202
236 2 2 1 1 205 202 81
237 2 2 1 1 13 206 207
238 2 2 1 1 206 205 207
239 2 2 1 1 206 56 205
240 2 2 1 1 207 205 81
241 2 2 1 1 56 208 210
242 2 2 1 1 208 209 210
243 2 2 1 1 208 83 209
244 2 2 1 1 210 209 82
245 2 2 1 1 10 211 212
246 2 2 1 1 211 209 212
247 2 2 1 1 211 82 209
248 2 2 1 1 212 209 83
249 2 2 1 1 56 206 208
250 2 2 1 1 206 213 208
251 2 2 1 1 206 13 213
252 2 2 1 1 208 213 83
253 2 2 1 1 63 149 215
254 2 2 1 1 149 214 215
255 2 2 1 1 149 35 214
256 2 2 1 1 215 214 84
257 2 2 1 1 63 215 217
258 2 2 1 1 215 216 217
259 2 2 1 1 215 84 216
260 2 2 1 1 217 216 50
261 2 2 1 1 35 218 214
262 2 2 1 1 218 219 214
263 2 2 1 1 218 85 219
264 2 2 1 1 214 219 84
265 2 2 1 1 50 216 220
266 2 2 1 1 216 219 220
267 2 2 1 1 216 84 219
268 2 2 1 1 220 219 85
269 2 2 1 1 35 40 218
270 2 2 1 1 40 221 218
271 2 2 1 1 40 1 221
272 2 2 1 1 218 221 85
273 2 2 1 1 63 222 224
274 2 2 1 1 222 223 224
275 2 2 1 1 222 57 223
276 2 2 1 1 224 223 86
277 2 2 1 1 63 224 150
278 2 2 1 1 224 225 150
279 2 2 1 1 224 86 225
280 2 2 1 1 150 225 34
281 2 2 1 1 57 226 223
282 2 2 1 1 226 227 223
283 2 2 1 1 226 87 227
284 2 2 1 1 223 227 86
285 2 2 1 1 34 225 228
286 2 2 1 1 225 227 228
287 2 2 1 1 225 86 227
288 2 2 1 1 228 227 87
289 2 2 1 1 57 159 226
290 2 2 1 1 159 229 226
291 2 2 1 1 159 51 229
292 2 2 1 1 226 229 87
293 2 2 1 1 63 217 231
294 2 2 1 1 217 230 231
295 2 2 1 1 217 50 230
296 2 2 1 1 231 230 88
297 2 2 1 1 63 231 222
298 2 2 1 1 231 232 222
299 2 2 1 1 231 88 232
300 2 2 1 1 222 232 57
301 2 2 1 1 64 233 234
302 2 2 1 1 233 232 234
303 2 2 1 1 233 57 232
304 2 2 1 1 234 232 88
305 2 2 1 1 64 234 153
306 2 2 1 1 234 230 153
307 2 2 1 1 234 88 230
308 2 2 1 1 153 230 50
309 2 2 1 1 64 154 236
310 2 2 1 1 154 235 236
311 2 2 1 1 154 41 235
312 2 2 1 1 236 235 89
313 2 2 1 1 64 236 233
314 2 2 1 1 236 237 233
315 2 2 1 1 236 89 237
316 2 2 1 1 233 237 57
317 2 2 1 1 66 157 238
318 2 2 1 1 157 237 238
319 2 2 1 1 157 57 237
320 2 2 1 1 238 237 89
321 2 2 1 1 66 238 239
322 2 2 1 1 238 235 239
323 2 2 1 1 238 89 235
324 2 2 1 1 239 235 41
325 2 2 1 1 66 240 242
326 2 2 1 1 240 241 242
327 2 2 1 1 240 58 241
328 2 2 1 1 242 241 90
329 2 2 1 1 66 242 158
330 2 2 1 1 242 243 158
331 2 2 1 1 242 90 243
332 2 2 1 1 158 243 51
333 2 2 1 1 58 244 241
334 2 2 1 1 244 245 241
335 2 2 1 1 244 91 245
336 2 2 1 1 241 245 90
337 2 2 1 1 51 243 246
338 2 2 1 1 243 245 246
339 2 2 1 1 243 90 245
340 2 2 1 1 246 245 91
341 2 2 1 1 58 162 244
342 2 2 1 1 162 247 244
343 2 2 1 1 162 42 247
344 2 2 1 1 244 247 91
345 2 2 1 1 66 239 249
346 2 2 1 1 239 248 249
347 2 2 1 1 239 41 248
348 2 2 1 1 249 248 92
349 2 2 1 1 66 249 240
350 2 2 1 1 249 250 240
351 2 2 1 1 249 92 250
352 2 2 1 1 240 250 58
353 2 2 1 1 68 251 252
354 2 2 1 1 251 250 252
355 2 2 1 1 251 58 250
356 2 2 1 1 252 250 92
357 2 2 1 1 68 252 165
358 2 2 1 1 252 248 165
359 2 2 1 1 252 92 248
360 2 2 1 1 165 248 41
361 2 2 1 1 67 160 254
362 2 2 1 1 160 253 254
363 2 2 1 1 160 58 253
364 2 2 1 1 254 253 93
365 2 2 1 1 67 254 256
366 2 2 1 1 254 255 256
367 2 2 1 1 254 93 255
368 2 2 1 1 256 255 52
369 2 2 1 1 68 166 257
370 2 2 1 1 166 255 257
371 2 2 1 1 166 52 255
372 2 2 1 1 257 255 93
373 2 2 1 1 68 257 251
374 2 2 1 1 257 253 251
375 2 2 1 1 257 93 253
376 2 2 1 1 251 253 58
377 2 2 1 1 67 258 260
378 2 2 1 1 258 259 260
379 2 2 1 1 258 59 259
380 2 2 1 1 260 259 94
381 2 2 1 1 67 260 161
382 2 2 1 1 260 261 161
383 2 2 1 1 260 94 261
384 2 2 1 1 161 261 42
385 2 2 1 1 59 262 259
386 2 2 1 1 262 263 259
387 2 2 1 1 262 95 263
388 2 2 1 1 259 263 94
389 2 2 1 1 42 261 264
390 2 2 1 1 261 263 264
391 2 2 1 1 261 94 263
392 2 2 1 1 264 263 95
393 2 2 1 1 59 178 262
394 2 2 1 1 178 265 262
395 2 2 1 1 178 53 265
396 2 2 1 1 262 265 95
397 2 2 1 1 67 256 267
398 2 2 1 1 256 266 267
399 2 2 1 1 256 52 266
400 2 2 1 1 267 266 96
401 2 2 1 1 67 267 258
402 2 2 1 1 267 268 258
403 2 2 1 1 267 96 268
404 2 2 1 1 258 268 59
405 2 2 1 1 70 269 270
406 2 2 1 1 269 268 270
407 2 2 1 1 269 59 268
408 2 2 1 1 270 268 96
409 2 2 1 1 70 270 172
410 2 2 1 1 270 266 172
411 2 2 1 1 270 96 266
412 2 2 1 1 172 266 52
413 2 2 1 1 70 173 272
414 2 2 1 1 173 271 272
415 2 2 1 1 173 45 271
416 2 2 1 1 272 271 97
417 2 2 1 1 70 272 269
418 2 2 1 1 272 273 269
419 2 2 1 1 272 97 273
420 2 2 1 1 269 273 59
421 2 2 1 1 72 176 274
422 2 2 1 1 176 273 274
423 2 2 1 1 176 59 273
424 2 2 1 1 274 273 97
425 2 2 1 1 72 274 275
426 2 2 1 1 274 271 275
427 2 2 1 1 274 97 271
428 2 2 1 1 275 271 45
429 2 2 1 1 72 276 278
430 2 2 1 1 276 277 278
431 2 2 1 1 276 60 277
432 2 2 1 1 278 277 98
433 2 2 1 1 72 278 177
434 2 2 1 1 278 279 177
435 2 2 1 1 278 98 279
436 2 2 1 1 177 279 53
437 2 2 1 1 60 280 277
438 2 2 1 1 280 281 277
439 2 2 1 1 280 99 281
440 2 2 1 1 277 281 98
441 2 2 1 1 53 279 282
442 2 2 1 1 279 281 282
443 2 2 1 1 279 98 281
444 2 2 1 1 282 281 99
445 2 2 1 1 60 194 280
446 2 2 1 1 194 283 280
447 2 2 1 1 194 46 283
448 2 2 1 1 280 283 99
449 2 2 1 1 72 275 285
450 2 2 1 1 275 284 285
451 2 2 1 1 275 45 284
452 2 2 1 1 285 284 100
453 2 2 1 1 72 285 276
454 2 2 1 1 285 286 276
455 2 2 1 1 285 100 286
456 2 2 1 1 276 286 60
457 2 2 1 1 73 287 288
458 2 2 1 1 287 286 288
459 2 2 1 1 287 60 286
460 2 2 1 1 288 286 100
461 2 2 1 1 73 288 181
462 2 2 1 1 288 284 181
463 2 2 1 1 288 100 284
464 2 2 1 1 181 284 45
465 2 2 1 1 73 182 290
466 2 2 1 1 182 289 290
467 2 2 1 1 182 54 289
468 2 2 1 1 290 289 101
469 2 2 1 1 73 290 287
470 2 2 1 1 290 291 287
471 2 2 1 1 290 101 291
472 2 2 1 1 287 291 60
473 2 2 1 1 77 192 292
474 2 2 1 1 192 291 292
475 2 2 1 1 192 60 291
476 2 2 1 1 292 291 101
477 2 2 1 1 77 292 293
478 2 2 1 1 292 289 293
479 2 2 1 1 292 101 289
480 2 2 1 1 293 289 54
481 2 2 1 1 75 294 296
482 2 2 1 1 294 295 296
483 2 2 1 1 294 61 295
484 2 2 1 1 296 295 102
485 2 2 1 1 75 296 188
486 2 2 1 1 296 297 188
487 2 2 1 1 296 102 297
488 2 2 1 1 188 297 54
489 2 2 1 1 77 293 298
490 2 2 1 1 293 297 298
491 2 2 1 1 293 54 297
492 2 2 1 1 298 297 102
493 2 2 1 1 77 298 299
494 2 2 1 1 298 295 299
495 2 2 1 1 298 102 295
496 2 2 1 1 299 295 61
497 2 2 1 1 75 189 301
498 2 2 1 1 189 300 301
499 2 2 1 1 189 49 300
500 2 2 1 1 301 300 103
501 2 2 1 1 75 301 294
502 2 2 1 1 301 302 294
503 2 2 1 1 301 103 302
504 2 2 1 1 294 302 61
505 2 2 1 1 78 195 303
506 2 2 1 1 195 302 303
507 2 2 1 1 195 61 302
508 2 2 1 1 303 302 103
509 2 2 1 1 78 303 304
510 2 2 1 1 303 300 304
511 2 2 1 1 303 103 300
512 2 2 1 1 304 300 49
513 2 2 1 1 77 299 306
514 2 2 1 1 299 305 306
515 2 2 1 1 299 61 305
516 2 2 1 1 306 305 104
517 2 2 1 1 77 306 193
518 2 2 1 1 306 307 193
519 2 2 1 1 306 104 307
520 2 2 1 1 193 307 46
521 2 2 1 1 61 308 305
522 2 2 1 1 308 309 305
523 2 2 1 1 308 105 309
524 2 2 1 1 305 309 104
525 2 2 1 1 46 307 310
526 2 2 1 1 307 309 310
527 2 2 1 1 307 104 309
528 2 2 1 1 310 309 105
529 2 2 1 1 61 197 308
530 2 2 1 1 197 311 308
531 2 2 1 1 197 55 311
532 2 2 1 1 308 311 105
533 2 2 1 1 78 312 314
534 2 2 1 1 312 313 314
535 2 2 1 1 312 62 313
536 2 2 1 1 314 313 106
537 2 2 1 1 78 314 196
538 2 2 1 1 314 315 196
539 2 2 1 1 314 106 315
540 2 2 1 1 196 315 55
541 2 2 1 1 62 316 313
542 2 2 1 1 316 317 313
543 2 2 1 1 316 107 317
544 2 2 1 1 313 317 106
545 2 2 1 1 55 315 318
546 2 2 1 1 315 317 318
547 2 2 1 1 315 106 317
548 2 2 1 1 318 317 107
549 2 2 1 1 62 200 316
550 2 2 1 1 200 319 316
551 2 2 1 1 200 19 319
552 2 2 1 1 316 319 107
553 2 2 1 1 78 304 321
554 2 2 1 1 304 320 321
555 2 2 1 1 304 49 320
556 2 2 1 1 321 320 108
557 2 2 1 1 78 321 312
558 2 2 1 1 321 322 312
559 2 2 1 1 321 108 322
560 2 2 1 1 312 322 62
561 2 2 1 1 80 323 324
562 2 2 1 1 323 322 324
563 2 2 1 1 323 62 322
564 2 2 1 1 324 322 108
565 2 2 1 1 80 324 203
566 2 2 1 1 324 320 203
567 2 2 1 1 324 108 320
568 2 2 1 1 203 320 49
569 2 2 1 1 79 198 326
570 2 2 1 1 198 325 326
571 2 2 1 1 198 62 325
572 2 2 1 1 326 325 109
573 2 2 1 1 79 326 328
574 2 2 1 1 326 327 328
575 2 2 1 1 326 109 327
576 2 2 1 1 328 327 56
577 2 2 1 1 80 204 329
578 2 2 1 1 204 327 329
579 2 2 1 1 204 56 327
580 2 2 1 1 329 327 109
581 2 2 1 1 80 329 323
582 2 2 1 1 329 325 323
583 2 2 1 1 329 109 325
584 2 2 1 1 323 325 62
585 2 2 1 1 22 28 331
586 2 2 1 1 28 330 331
587 2 2 1 1 28 23 330
588 2 2 1 1 331 330 79
589 2 2 1 1 23 29 330
590 2 2 1 1 29 199 330
591 2 2 1 1 29 19 199
592 2 2 1 1 330 199 79
593 2 2 1 1 79 328 333
594 2 2 1 1 328 332 333
595 2 2 1 1 328 56 332
596 2 2 1 1 333 332 110
597 2 2 1 1 79 333 331
598 2 2 1 1 333 334 331
599 2 2 1 1 333 110 334
600 2 2 1 1 331 334 22
601 2 2 1 1 82 335 336
602 2 2 1 1 335 334 336
603 2 2 1 1 335 22 334
604 2 2 1 1 336 334 110
605 2 2 1 1 82 336 210
606 2 2 1 1 336 332 210
607 2 2 1 1 336 110 332
608 2 2 1 1 210 332 56
609 2 2 1 1 10 30 211
610 2 2 1 1 30 337 211
611 2 2 1 1 30 24 337
612 2 2 1 1 211 337 82
613 2 2 1 1 24 31 337
614 2 2 1 1 31 335 337
615 2 2 1 1 31 22 335
616 2 2 1 1 337 335 82
$EndElements
