$MeshFormat
2.2 0 8
$EndMeshFormat
$PhysicalNames
7
2 1 "Γ¹"
2 2 "Γ²"
2 3 "Γ³"
2 4 "Γ⁴"
2 5 "Γ⁵"
2 6 "Γ⁶"
3 7 "Ω"
$EndPhysicalNames
$Nodes
125
1 0 0 0
2 4 0 0
3 4 4 0
4 0 4 0
5 0 0 4
6 4 0 4
7 4 4 4
8 0 4 4
9 0.9999999999976438 0 0
10 1.999999999994768 0 0
11 2.999999999997363 0 0
12 4 0.9999999999976438 0
13 4 1.999999999994768 0
14 4 2.999999999997363 0
15 3.000000000001388 4 0
16 2.000000000008238 4 0
17 1.000000000004162 4 0
18 0 3.000000000001388 0
19 0 2.000000000008238 0
20 0 1.000000000004162 0
21 0.9999999999976438 0 4
22 1.999999999994768 0 4
23 2.999999999997363 0 4
24 4 0.9999999999976438 4
25 4 1.999999999994768 4
26 4 2.999999999997363 4
27 3.000000000001388 4 4
28 2.000000000008238 4 4
29 1.000000000004162 4 4
30 0 3.000000000001388 4
31 0 2.000000000008238 4
32 0 1.000000000004162 4
33 0 0 0.9999999999976438
34 0 0 1.999999999994768
35 0 0 2.999999999997363
36 4 0 0.9999999999976438
37 4 0 1.999999999994768
38 4 0 2.999999999997363
39 4 4 0.9999999999976438
40 4 4 1.999999999994768
41 4 4 2.999999999997363
42 0 4 0.9999999999976438
43 0 4 1.999999999994768
44 0 4 2.999999999997363
45 0.9999999999992735 1.000000000002533 0
46 1.000000000000903 2.000000000004871 0
47 1.000000000002533 3.000000000000381 0
48 1.999999999998136 1.000000000000903 0
49 2.000000000001503 2.000000000001503 0
50 2.000000000004871 2.999999999999376 0
51 2.999999999998369 0.9999999999992735 0
52 2.999999999999376 1.999999999998136 0
53 3.000000000000381 2.999999999998368 0
54 0 3.000000000001388 0.9999999999976438
55 0 3.000000000001388 1.999999999994768
56 0 3.000000000001388 2.999999999997363
57 0 2.000000000008238 0.9999999999976437
58 0 2.000000000008238 1.999999999994768
59 0 2.000000000008238 2.999999999997363
60 0 1.000000000004162 0.9999999999976438
61 0 1.000000000004162 1.999999999994768
62 0 1.000000000004162 2.999999999997363
63 0.9999999999992735 1.000000000002533 4
64 1.000000000000903 2.000000000004871 4
65 1.000000000002533 3.000000000000381 4
66 1.999999999998136 1.000000000000903 4
67 2.000000000001503 2.000000000001503 4
68 2.000000000004871 2.999999999999376 4
69 2.999999999998369 0.9999999999992735 4
70 2.999999999999376 1.999999999998136 4
71 3.000000000000381 2.999999999998368 4
72 4 0.9999999999976437 0.9999999999976439
73 4 0.9999999999976437 1.999999999994768
74 4 0.9999999999976438 2.999999999997363
75 4 1.999999999994768 0.9999999999976437
76 4 1.999999999994768 1.999999999994768
77 4 1.999999999994769 2.999999999997362
78 4 2.999999999997363 0.9999999999976438
79 4 2.999999999997362 1.999999999994768
80 4 2.999999999997362 2.999999999997363
81 0.9999999999976437 0 0.9999999999976439
82 0.9999999999976437 0 1.999999999994768
83 0.9999999999976438 0 2.999999999997363
84 1.999999999994768 0 0.9999999999976437
85 1.999999999994768 0 1.999999999994768
86 1.999999999994769 0 2.999999999997362
87 2.999999999997363 0 0.9999999999976438
88 2.999999999997362 0 1.999999999994768
89 2.999999999997362 0 2.999999999997363
90 3.000000000001388 4 0.9999999999976438
91 3.000000000001388 4 1.999999999994768
92 3.000000000001388 4 2.999999999997363
93 2.000000000008238 4 0.9999999999976437
94 2.000000000008238 4 1.999999999994768
95 2.000000000008238 4 2.999999999997363
96 1.000000000004162 4 0.9999999999976438
97 1.000000000004162 4 1.999999999994768
98 1.000000000004162 4 2.999999999997363
99 0.9999999999992734 1.000000000002533 0.9999999999976437
100 0.9999999999992731 1.000000000002533 1.999999999994768
101 0.9999999999992736 1.000000000002533 2.999999999997363
102 1.000000000000903 2.000000000004871 0.9999999999976436
103 1.000000000000902 2.000000000004871 1.999999999994768
104 1.000000000000903 2.000000000004872 2.999999999997362
105 1.000000000002532 3.000000000000382 0.9999999999976439
106 1.000000000002533 3.000000000000381 1.999999999994768
107 1.000000000002533 3.00000000000038 2.999999999997363
108 1.999999999998135 1.000000000000903 0.9999999999976434
109 1.999999999998135 1.000000000000902 1.999999999994768
110 1.999999999998136 1.000000000000903 2.999999999997362
111 2.000000000001504 2.000000000001504 0.9999999999976437
112 2.000000000001503 2.000000000001503 1.999999999994768
113 2.000000000001503 2.000000000001503 2.999999999997362
114 2.000000000004871 2.999999999999376 0.9999999999976436
115 2.000000000004871 2.999999999999376 1.999999999994769
116 2.000000000004871 2.999999999999376 2.999999999997363
117 2.999999999998369 0.9999999999992739 0.999999999997644
118 2.999999999998368 0.9999999999992736 1.999999999994769
119 2.999999999998368 0.9999999999992736 2.999999999997363
120 2.999999999999376 1.999999999998136 0.9999999999976436
121 2.999999999999376 1.999999999998135 1.999999999994768
122 2.999999999999376 1.999999999998136 2.999999999997361
123 3.000000000000381 2.999999999998368 0.999999999997644
124 3.00000000000038 2.999999999998368 1.999999999994769
125 3.000000000000379 2.999999999998367 2.999999999997362
$EndNodes
$Elements
576
1 2 2 1 1 1 9 20
2 2 2 1 1 20 9 45
3 2 2 1 1 20 45 19
4 2 2 1 1 19 45 46
5 2 2 1 1 19 46 18
6 2 2 1 1 18 46 47
7 2 2 1 1 18 47 4
8 2 2 1 1 4 47 17
9 2 2 1 1 9 10 45
10 2 2 1 1 45 10 48
11 2 2 1 1 45 48 46
12 2 2 1 1 46 48 49
13 2 2 1 1 46 49 47
14 2 2 1 1 47 49 50
15 2 2 1 1 47 50 17
16 2 2 1 1 17 50 16
17 2 2 1 1 10 11 48
18 2 2 1 1 48 11 51
19 2 2 1 1 48 51 49
20 2 2 1 1 49 51 52
21 2 2 1 1 49 52 50
22 2 2 1 1 50 52 53
23 2 2 1 1 50 53 16
24 2 2 1 1 16 53 15
25 2 2 1 1 11 2 51
26 2 2 1 1 51 2 12
27 2 2 1 1 51 12 52
28 2 2 1 1 52 12 13
29 2 2 1 1 52 13 53
30 2 2 1 1 53 13 14
31 2 2 1 1 53 14 15
32 2 2 1 1 15 14 3
33 2 2 2 2 4 18 42
34 2 2 2 2 42 18 54
35 2 2 2 2 42 54 43
36 2 2 2 2 43 54 55
37 2 2 2 2 43 55 44
38 2 2 2 2 44 55 56
39 2 2 2 2 44 56 8
40 2 2 2 2 8 56 30
41 2 2 2 2 18 19 54
42 2 2 2 2 54 19 57
43 2 2 2 2 54 57 55
44 2 2 2 2 55 57 58
45 2 2 2 2 55 58 56
46 2 2 2 2 56 58 59
47 2 2 2 2 56 59 30
48 2 2 2 2 30 59 31
49 2 2 2 2 19 20 57
50 2 2 2 2 57 20 60
51 2 2 2 2 57 60 58
52 2 2 2 2 58 60 61
53 2 2 2 2 58 61 59
54 2 2 2 2 59 61 62
55 2 2 2 2 59 62 31
56 2 2 2 2 31 62 32
57 2 2 2 2 20 1 60
58 2 2 2 2 60 1 33
59 2 2 2 2 60 33 61
60 2 2 2 2 61 33 34
61 2 2 2 2 61 34 62
62 2 2 2 2 62 34 35
63 2 2 2 2 62 35 32
64 2 2 2 2 32 35 5
65 2 2 3 3 5 21 32
66 2 2 3 3 32 21 63
67 2 2 3 3 32 63 31
68 2 2 3 3 31 63 64
69 2 2 3 3 31 64 30
70 2 2 3 3 30 64 65
71 2 2 3 3 30 65 8
72 2 2 3 3 8 65 29
73 2 2 3 3 21 22 63
74 2 2 3 3 63 22 66
75 2 2 3 3 63 66 64
76 2 2 3 3 64 66 67
77 2 2 3 3 64 67 65
78 2 2 3 3 65 67 68
79 2 2 3 3 65 68 29
80 2 2 3 3 29 68 28
81 2 2 3 3 22 23 66
82 2 2 3 3 66 23 69
83 2 2 3 3 66 69 67
84 2 2 3 3 67 69 70
85 2 2 3 3 67 70 68
86 2 2 3 3 68 70 71
87 2 2 3 3 68 71 28
88 2 2 3 3 28 71 27
89 2 2 3 3 23 6 69
90 2 2 3 3 69 6 24
91 2 2 3 3 69 24 70
92 2 2 3 3 70 24 25
93 2 2 3 3 70 25 71
94 2 2 3 3 71 25 26
95 2 2 3 3 71 26 27
96 2 2 3 3 27 26 7
97 2 2 4 4 2 12 36
98 2 2 4 4 36 12 72
99 2 2 4 4 36 72 37
100 2 2 4 4 37 72 73
101 2 2 4 4 37 73 38
102 2 2 4 4 38 73 74
103 2 2 4 4 38 74 6
104 2 2 4 4 6 74 24
105 2 2 4 4 12 13 72
106 2 2 4 4 72 13 75
107 2 2 4 4 72 75 73
108 2 2 4 4 73 75 76
109 2 2 4 4 73 76 74
110 2 2 4 4 74 76 77
111 2 2 4 4 74 77 24
112 2 2 4 4 24 77 25
113 2 2 4 4 13 14 75
114 2 2 4 4 75 14 78
115 2 2 4 4 75 78 76
116 2 2 4 4 76 78 79
117 2 2 4 4 76 79 77
118 2 2 4 4 77 79 80
119 2 2 4 4 77 80 25
120 2 2 4 4 25 80 26
121 2 2 4 4 14 3 78
122 2 2 4 4 78 3 39
123 2 2 4 4 78 39 79
124 2 2 4 4 79 39 40
125 2 2 4 4 79 40 80
126 2 2 4 4 80 40 41
127 2 2 4 4 80 41 26
128 2 2 4 4 26 41 7
129 2 2 5 5 1 9 33
130 2 2 5 5 33 9 81
131 2 2 5 5 33 81 34
132 2 2 5 5 34 81 82
133 2 2 5 5 34 82 35
134 2 2 5 5 35 82 83
135 2 2 5 5 35 83 5
136 2 2 5 5 5 83 21
137 2 2 5 5 9 10 81
138 2 2 5 5 81 10 84
139 2 2 5 5 81 84 82
140 2 2 5 5 82 84 85
141 2 2 5 5 82 85 83
142 2 2 5 5 83 85 86
143 2 2 5 5 83 86 21
144 2 2 5 5 21 86 22
145 2 2 5 5 10 11 84
146 2 2 5 5 84 11 87
147 2 2 5 5 84 87 85
148 2 2 5 5 85 87 88
149 2 2 5 5 85 88 86
150 2 2 5 5 86 88 89
151 2 2 5 5 86 89 22
152 2 2 5 5 22 89 23
153 2 2 5 5 11 2 87
154 2 2 5 5 87 2 36
155 2 2 5 5 87 36 88
156 2 2 5 5 88 36 37
157 2 2 5 5 88 37 89
158 2 2 5 5 89 37 38
159 2 2 5 5 89 38 23
160 2 2 5 5 23 38 6
161 2 2 6 6 3 15 39
162 2 2 6 6 39 15 90
163 2 2 6 6 39 90 40
164 2 2 6 6 40 90 91
165 2 2 6 6 40 91 41
166 2 2 6 6 41 91 92
167 2 2 6 6 41 92 7
168 2 2 6 6 7 92 27
169 2 2 6 6 15 16 90
170 2 2 6 6 90 16 93
171 2 2 6 6 90 93 91
172 2 2 6 6 91 93 94
173 2 2 6 6 91 94 92
174 2 2 6 6 92 94 95
175 2 2 6 6 92 95 27
176 2 2 6 6 27 95 28
177 2 2 6 6 16 17 93
178 2 2 6 6 93 17 96
179 2 2 6 6 93 96 94
180 2 2 6 6 94 96 97
181 2 2 6 6 94 97 95
182 2 2 6 6 95 97 98
183 2 2 6 6 95 98 28
184 2 2 6 6 28 98 29
185 2 2 6 6 17 4 96
186 2 2 6 6 96 4 42
187 2 2 6 6 96 42 97
188 2 2 6 6 97 42 43
189 2 2 6 6 97 43 98
190 2 2 6 6 98 43 44
191 2 2 6 6 98 44 29
192 2 2 6 6 29 44 8
193 4 2 7 1 1 9 20 33
194 4 2 7 1 9 20 33 81
195 4 2 7 1 33 81 20 60
196 4 2 7 1 9 20 81 45
197 4 2 7 1 20 60 81 45
198 4 2 7 1 81 60 99 45
199 4 2 7 1 33 81 60 34
200 4 2 7 1 81 60 34 82
201 4 2 7 1 34 82 60 61
202 4 2 7 1 81 60 82 99
203 4 2 7 1 60 61 82 99
204 4 2 7 1 82 61 100 99
205 4 2 7 1 34 82 61 35
206 4 2 7 1 82 61 35 83
207 4 2 7 1 35 83 61 62
208 4 2 7 1 82 61 83 100
209 4 2 7 1 61 62 83 100
210 4 2 7 1 83 62 101 100
211 4 2 7 1 35 83 62 5
212 4 2 7 1 83 62 5 21
213 4 2 7 1 5 21 62 32
214 4 2 7 1 83 62 21 101
215 4 2 7 1 62 32 21 101
216 4 2 7 1 21 32 63 101
217 4 2 7 1 20 45 19 60
218 4 2 7 1 45 19 60 99
219 4 2 7 1 60 99 19 57
220 4 2 7 1 45 19 99 46
221 4 2 7 1 19 57 99 46
222 4 2 7 1 99 57 102 46
223 4 2 7 1 60 99 57 61
224 4 2 7 1 99 57 61 100
225 4 2 7 1 61 100 57 58
226 4 2 7 1 99 57 100 102
227 4 2 7 1 57 58 100 102
228 4 2 7 1 100 58 103 102
229 4 2 7 1 61 100 58 62
230 4 2 7 1 100 58 62 101
231 4 2 7 1 62 101 58 59
232 4 2 7 1 100 58 101 103
233 4 2 7 1 58 59 101 103
234 4 2 7 1 101 59 104 103
235 4 2 7 1 62 101 59 32
236 4 2 7 1 101 59 32 63
237 4 2 7 1 32 63 59 31
238 4 2 7 1 101 59 63 104
239 4 2 7 1 59 31 63 104
240 4 2 7 1 63 31 64 104
241 4 2 7 1 19 46 18 57
242 4 2 7 1 46 18 57 102
243 4 2 7 1 57 102 18 54
244 4 2 7 1 46 18 102 47
245 4 2 7 1 18 54 102 47
246 4 2 7 1 102 54 105 47
247 4 2 7 1 57 102 54 58
248 4 2 7 1 102 54 58 103
249 4 2 7 1 58 103 54 55
250 4 2 7 1 102 54 103 105
251 4 2 7 1 54 55 103 105
252 4 2 7 1 103 55 106 105
253 4 2 7 1 58 103 55 59
254 4 2 7 1 103 55 59 104
255 4 2 7 1 59 104 55 56
256 4 2 7 1 103 55 104 106
257 4 2 7 1 55 56 104 106
258 4 2 7 1 104 56 107 106
259 4 2 7 1 59 104 56 31
260 4 2 7 1 104 56 31 64
261 4 2 7 1 31 64 56 30
262 4 2 7 1 104 56 64 107
263 4 2 7 1 56 30 64 107
264 4 2 7 1 64 30 65 107
265 4 2 7 1 18 47 4 54
266 4 2 7 1 47 4 54 105
267 4 2 7 1 54 105 4 42
268 4 2 7 1 47 4 105 17
269 4 2 7 1 4 42 105 17
270 4 2 7 1 105 42 96 17
271 4 2 7 1 54 105 42 55
272 4 2 7 1 105 42 55 106
273 4 2 7 1 55 106 42 43
274 4 2 7 1 105 42 106 96
275 4 2 7 1 42 43 106 96
276 4 2 7 1 106 43 97 96
277 4 2 7 1 55 106 43 56
278 4 2 7 1 106 43 56 107
279 4 2 7 1 56 107 43 44
280 4 2 7 1 106 43 107 97
281 4 2 7 1 43 44 107 97
282 4 2 7 1 107 44 98 97
283 4 2 7 1 56 107 44 30
284 4 2 7 1 107 44 30 65
285 4 2 7 1 30 65 44 8
286 4 2 7 1 107 44 65 98
287 4 2 7 1 44 8 65 98
288 4 2 7 1 65 8 29 98
289 4 2 7 1 9 10 45 81
290 4 2 7 1 10 45 81 84
291 4 2 7 1 81 84 45 99
292 4 2 7 1 10 45 84 48
293 4 2 7 1 45 99 84 48
294 4 2 7 1 84 99 108 48
295 4 2 7 1 81 84 99 82
296 4 2 7 1 84 99 82 85
297 4 2 7 1 82 85 99 100
298 4 2 7 1 84 99 85 108
299 4 2 7 1 99 100 85 108
300 4 2 7 1 85 100 109 108
301 4 2 7 1 82 85 100 83
302 4 2 7 1 85 100 83 86
303 4 2 7 1 83 86 100 101
304 4 2 7 1 85 100 86 109
305 4 2 7 1 100 101 86 109
306 4 2 7 1 86 101 110 109
307 4 2 7 1 83 86 101 21
308 4 2 7 1 86 101 21 22
309 4 2 7 1 21 22 101 63
310 4 2 7 1 86 101 22 110
311 4 2 7 1 101 63 22 110
312 4 2 7 1 22 63 66 110
313 4 2 7 1 45 48 46 99
314 4 2 7 1 48 46 99 108
315 4 2 7 1 99 108 46 102
316 4 2 7 1 48 46 108 49
317 4 2 7 1 46 102 108 49
318 4 2 7 1 108 102 111 49
319 4 2 7 1 99 108 102 100
320 4 2 7 1 108 102 100 109
321 4 2 7 1 100 109 102 103
322 4 2 7 1 108 102 109 111
323 4 2 7 1 102 103 109 111
324 4 2 7 1 109 103 112 111
325 4 2 7 1 100 109 103 101
326 4 2 7 1 109 103 101 110
327 4 2 7 1 101 110 103 104
328 4 2 7 1 109 103 110 112
329 4 2 7 1 103 104 110 112
330 4 2 7 1 110 104 113 112
331 4 2 7 1 101 110 104 63
332 4 2 7 1 110 104 63 66
333 4 2 7 1 63 66 104 64
334 4 2 7 1 110 104 66 113
335 4 2 7 1 104 64 66 113
336 4 2 7 1 66 64 67 113
337 4 2 7 1 46 49 47 102
338 4 2 7 1 49 47 102 111
339 4 2 7 1 102 111 47 105
340 4 2 7 1 49 47 111 50
341 4 2 7 1 47 105 111 50
342 4 2 7 1 111 105 114 50
343 4 2 7 1 102 111 105 103
344 4 2 7 1 111 105 103 112
345 4 2 7 1 103 112 105 106
346 4 2 7 1 111 105 112 114
347 4 2 7 1 105 106 112 114
348 4 2 7 1 112 106 115 114
349 4 2 7 1 103 112 106 104
350 4 2 7 1 112 106 104 113
351 4 2 7 1 104 113 106 107
352 4 2 7 1 112 106 113 115
353 4 2 7 1 106 107 113 115
354 4 2 7 1 113 107 116 115
355 4 2 7 1 104 113 107 64
356 4 2 7 1 113 107 64 67
357 4 2 7 1 64 67 107 65
358 4 2 7 1 113 107 67 116
359 4 2 7 1 107 65 67 116
360 4 2 7 1 67 65 68 116
361 4 2 7 1 47 50 17 105
362 4 2 7 1 50 17 105 114
363 4 2 7 1 105 114 17 96
364 4 2 7 1 50 17 114 16
365 4 2 7 1 17 96 114 16
366 4 2 7 1 114 96 93 16
367 4 2 7 1 105 114 96 106
368 4 2 7 1 114 96 106 115
369 4 2 7 1 106 115 96 97
370 4 2 7 1 114 96 115 93
371 4 2 7 1 96 97 115 93
372 4 2 7 1 115 97 94 93
373 4 2 7 1 106 115 97 107
374 4 2 7 1 115 97 107 116
375 4 2 7 1 107 116 97 98
376 4 2 7 1 115 97 116 94
377 4 2 7 1 97 98 116 94
378 4 2 7 1 116 98 95 94
379 4 2 7 1 107 116 98 65
380 4 2 7 1 116 98 65 68
381 4 2 7 1 65 68 98 29
382 4 2 7 1 116 98 68 95
383 4 2 7 1 98 29 68 95
384 4 2 7 1 68 29 28 95
385 4 2 7 1 10 11 48 84
386 4 2 7 1 11 48 84 87
387 4 2 7 1 84 87 48 108
388 4 2 7 1 11 48 87 51
389 4 2 7 1 48 108 87 51
390 4 2 7 1 87 108 117 51
391 4 2 7 1 84 87 108 85
392 4 2 7 1 87 108 85 88
393 4 2 7 1 85 88 108 109
394 4 2 7 1 87 108 88 117
395 4 2 7 1 108 109 88 117
396 4 2 7 1 88 109 118 117
397 4 2 7 1 85 88 109 86
398 4 2 7 1 88 109 86 89
399 4 2 7 1 86 89 109 110
400 4 2 7 1 88 109 89 118
401 4 2 7 1 109 110 89 118
402 4 2 7 1 89 110 119 118
403 4 2 7 1 86 89 110 22
404 4 2 7 1 89 110 22 23
405 4 2 7 1 22 23 110 66
406 4 2 7 1 89 110 23 119
407 4 2 7 1 110 66 23 119
408 4 2 7 1 23 66 69 119
409 4 2 7 1 48 51 49 108
410 4 2 7 1 51 49 108 117
411 4 2 7 1 108 117 49 111
412 4 2 7 1 51 49 117 52
413 4 2 7 1 49 111 117 52
414 4 2 7 1 117 111 120 52
415 4 2 7 1 108 117 111 109
416 4 2 7 1 117 111 109 118
417 4 2 7 1 109 118 111 112
418 4 2 7 1 117 111 118 120
419 4 2 7 1 111 112 118 120
420 4 2 7 1 118 112 121 120
421 4 2 7 1 109 118 112 110
422 4 2 7 1 118 112 110 119
423 4 2 7 1 110 119 112 113
424 4 2 7 1 118 112 119 121
425 4 2 7 1 112 113 119 121
426 4 2 7 1 119 113 122 121
427 4 2 7 1 110 119 113 66
428 4 2 7 1 119 113 66 69
429 4 2 7 1 66 69 113 67
430 4 2 7 1 119 113 69 122
431 4 2 7 1 113 67 69 122
432 4 2 7 1 69 67 70 122
433 4 2 7 1 49 52 50 111
434 4 2 7 1 52 50 111 120
435 4 2 7 1 111 120 50 114
436 4 2 7 1 52 50 120 53
437 4 2 7 1 50 114 120 53
438 4 2 7 1 120 114 123 53
439 4 2 7 1 111 120 114 112
440 4 2 7 1 120 114 112 121
441 4 2 7 1 112 121 114 115
442 4 2 7 1 120 114 121 123
443 4 2 7 1 114 115 121 123
444 4 2 7 1 121 115 124 123
445 4 2 7 1 112 121 115 113
446 4 2 7 1 121 115 113 122
447 4 2 7 1 113 122 115 116
448 4 2 7 1 121 115 122 124
449 4 2 7 1 115 116 122 124
450 4 2 7 1 122 116 125 124
451 4 2 7 1 113 122 116 67
452 4 2 7 1 122 116 67 70
453 4 2 7 1 67 70 116 68
454 4 2 7 1 122 116 70 125
455 4 2 7 1 116 68 70 125
456 4 2 7 1 70 68 71 125
457 4 2 7 1 50 53 16 114
458 4 2 7 1 53 16 114 123
459 4 2 7 1 114 123 16 93
460 4 2 7 1 53 16 123 15
461 4 2 7 1 16 93 123 15
462 4 2 7 1 123 93 90 15
463 4 2 7 1 114 123 93 115
464 4 2 7 1 123 93 115 124
465 4 2 7 1 115 124 93 94
466 4 2 7 1 123 93 124 90
467 4 2 7 1 93 94 124 90
468 4 2 7 1 124 94 91 90
469 4 2 7 1 115 124 94 116
470 4 2 7 1 124 94 116 125
471 4 2 7 1 116 125 94 95
472 4 2 7 1 124 94 125 91
473 4 2 7 1 94 95 125 91
474 4 2 7 1 125 95 92 91
475 4 2 7 1 116 125 95 68
476 4 2 7 1 125 95 68 71
477 4 2 7 1 68 71 95 28
478 4 2 7 1 125 95 71 92
479 4 2 7 1 95 28 71 92
480 4 2 7 1 71 28 27 92
481 4 2 7 1 11 2 51 87
482 4 2 7 1 2 51 87 36
483 4 2 7 1 87 36 51 117
484 4 2 7 1 2 51 36 12
485 4 2 7 1 51 117 36 12
486 4 2 7 1 36 117 72 12
487 4 2 7 1 87 36 117 88
488 4 2 7 1 36 117 88 37
489 4 2 7 1 88 37 117 118
490 4 2 7 1 36 117 37 72
491 4 2 7 1 117 118 37 72
492 4 2 7 1 37 118 73 72
493 4 2 7 1 88 37 118 89
494 4 2 7 1 37 118 89 38
495 4 2 7 1 89 38 118 119
496 4 2 7 1 37 118 38 73
497 4 2 7 1 118 119 38 73
498 4 2 7 1 38 119 74 73
499 4 2 7 1 89 38 119 23
500 4 2 7 1 38 119 23 6
501 4 2 7 1 23 6 119 69
502 4 2 7 1 38 119 6 74
503 4 2 7 1 119 69 6 74
504 4 2 7 1 6 69 24 74
505 4 2 7 1 51 12 52 117
506 4 2 7 1 12 52 117 72
507 4 2 7 1 117 72 52 120
508 4 2 7 1 12 52 72 13
509 4 2 7 1 52 120 72 13
510 4 2 7 1 72 120 75 13
511 4 2 7 1 117 72 120 118
512 4 2 7 1 72 120 118 73
513 4 2 7 1 118 73 120 121
514 4 2 7 1 72 120 73 75
515 4 2 7 1 120 121 73 75
516 4 2 7 1 73 121 76 75
517 4 2 7 1 118 73 121 119
518 4 2 7 1 73 121 119 74
519 4 2 7 1 119 74 121 122
520 4 2 7 1 73 121 74 76
521 4 2 7 1 121 122 74 76
522 4 2 7 1 74 122 77 76
523 4 2 7 1 119 74 122 69
524 4 2 7 1 74 122 69 24
525 4 2 7 1 69 24 122 70
526 4 2 7 1 74 122 24 77
527 4 2 7 1 122 70 24 77
528 4 2 7 1 24 70 25 77
529 4 2 7 1 52 13 53 120
530 4 2 7 1 13 53 120 75
531 4 2 7 1 120 75 53 123
532 4 2 7 1 13 53 75 14
533 4 2 7 1 53 123 75 14
534 4 2 7 1 75 123 78 14
535 4 2 7 1 120 75 123 121
536 4 2 7 1 75 123 121 76
537 4 2 7 1 121 76 123 124
538 4 2 7 1 75 123 76 78
539 4 2 7 1 123 124 76 78
540 4 2 7 1 76 124 79 78
541 4 2 7 1 121 76 124 122
542 4 2 7 1 76 124 122 77
543 4 2 7 1 122 77 124 125
544 4 2 7 1 76 124 77 79
545 4 2 7 1 124 125 77 79
546 4 2 7 1 77 125 80 79
547 4 2 7 1 122 77 125 70
548 4 2 7 1 77 125 70 25
549 4 2 7 1 70 25 125 71
550 4 2 7 1 77 125 25 80
551 4 2 7 1 125 71 25 80
552 4 2 7 1 25 71 26 80
553 4 2 7 1 53 14 15 123
554 4 2 7 1 14 15 123 78
555 4 2 7 1 123 78 15 90
556 4 2 7 1 14 15 78 3
557 4 2 7 1 15 90 78 3
558 4 2 7 1 78 90 39 3
559 4 2 7 1 123 78 90 124
560 4 2 7 1 78 90 124 79
561 4 2 7 1 124 79 90 91
562 4 2 7 1 78 90 79 39
563 4 2 7 1 90 91 79 39
564 4 2 7 1 79 91 40 39
565 4 2 7 1 124 79 91 125
566 4 2 7 1 79 91 125 80
567 4 2 7 1 125 80 91 92
568 4 2 7 1 79 91 80 40
569 4 2 7 1 91 92 80 40
570 4 2 7 1 80 92 41 40
571 4 2 7 1 125 80 92 71
572 4 2 7 1 80 92 71 26
573 4 2 7 1 71 26 92 27
574 4 2 7 1 80 92 26 41
575 4 2 7 1 92 27 26 41
576 4 2 7 1 26 27 7 41
$EndElements
